<?xml version="1.0" encoding="utf-8"?>
<!-- Generator: Adobe Illustrator 24.0.3, SVG Export Plug-In . SVG Version: 6.00 Build 0)  -->
<svg version="1.1" id="レイヤー_1" xmlns="http://www.w3.org/2000/svg" xmlns:xlink="http://www.w3.org/1999/xlink" x="0px"
	 y="0px" viewBox="0 0 1280 737.3" style="enable-background:new 0 0 1280 737.3;" xml:space="preserve">
<style type="text/css">
	.st0{fill:#235977;}
	.st1{fill:#143951;}
	.st2{fill:#427D8D;}
	.st3{opacity:0.5;fill:#143951;enable-background:new    ;}
	.st4{opacity:0.1;fill:#EEF2F4;enable-background:new    ;}
	.st5{fill:#204D6A;}
	.st6{fill:#EEF2F4;}
	.st7{fill:url(#SVGID_1_);}
	.st8{fill:#273026;}
	.st9{fill:url(#SVGID_2_);}
	.st10{fill:url(#SVGID_3_);}
	.st11{fill:url(#SVGID_4_);}
	.st12{fill:#122F3F;}
	.st13{fill:url(#SVGID_5_);}
	.st14{fill:url(#SVGID_6_);}
	.st15{fill:url(#SVGID_7_);}
	.st16{fill:url(#SVGID_8_);}
	.st17{fill:none;stroke:#235977;stroke-width:6;stroke-miterlimit:10;}
	.st18{fill:none;stroke:#204D6A;stroke-width:6;stroke-miterlimit:10;}
	.st19{fill:#FFAE0D;}
	.st20{fill:#FF9E10;}
	.st21{fill:#ED7900;}
	.st22{fill:none;stroke:#143951;stroke-linecap:round;stroke-linejoin:round;stroke-miterlimit:10;}
	.st23{fill:#256582;}
	.st24{fill:url(#SVGID_9_);}
	.st25{fill:none;stroke:#235977;stroke-miterlimit:10;}
	.st26{fill:url(#SVGID_10_);stroke:#CCCCCC;stroke-width:2;stroke-miterlimit:10;}
	.st27{fill:url(#SVGID_11_);}
	.st28{fill:url(#SVGID_12_);}
	.st29{opacity:0.3;fill:#FBFFE2;enable-background:new    ;}
	.st30{opacity:0.1;fill:#FBFFE2;enable-background:new    ;}
	.st31{opacity:0.2;fill:#427D8D;enable-background:new    ;}	
@-webkit-keyframes satoken {
  0% {
    fill: #D3DADD;
	opacity: 0.6;
  }
  40% {
    fill: #EEF2F4;
  }
  60% {
    fill: #EEF2F4;
  }
  100% {
    fill: #D3DADD;
	opacity: 0.6;
  }
}
	.satoken {
  -webkit-animation: satoken 1s ease-in-out infinite; 
  animation: satoken 1s ease-in-out infinite;
	}
	
@-webkit-keyframes flashT {
  0% {
    fill: #D3DADD;
	opacity: 0.6;
  }
  40% {
    fill: #EEF2F4;
  }
  60% {
    fill: #EEF2F4;
  }
  65% {
    fill: #235977;
  }
  67% {
    fill: #D3DADD;
  }
  70% {
    fill: #1c4a5e;
  }
  100% {
    fill: #D3DADD;
	opacity: 0.6;
  }
}
	.flashT {
  -webkit-animation: flashT 1s ease-in-out infinite; 
  animation: flashT 1s ease-in-out infinite;
	}
	
@-webkit-keyframes highlightBase {
  0% {
    fill: #427D8D;
  }
  50% {
    fill: #122F3F;
  }
  100% {
    fill: #427D8D;
  }
}
	.hB {
  -webkit-animation: highlightBase 10s ease-in-out infinite; 
  animation: highlightBase 10s ease-in-out infinite;
	}
	
@-webkit-keyframes shadowBase {
  0% {
    fill: #143951;
  }
  35% {
    fill: #122F3F;
  }
  70% {
    fill: #1c4a5e;
  }
  100% {
    fill: #143951;
  }
}
	.sB {
  -webkit-animation: shadowBase 10s ease-in-out infinite; 
  animation: shadowBase 10s ease-in-out infinite;
	}
	
@-webkit-keyframes darkestBase {
  0% {
    fill: #143951;
  }
  50% {
    fill: #122F3F;
  }
  100% {
    fill: #143951;
  }
}
	#darkestBase {
  -webkit-animation: darkestBase 10s ease-in-out infinite; 
  animation: darkestBase 10s ease-in-out infinite;
	}
	
@-webkit-keyframes mainBase {
  0% {
    fill: #235977;
  }
  40% {
    fill: #1f5066;
  }
  60% {
    fill: #1c4a5e;
  }
  100% {
    fill: #235977;
  }
}
	#mainBase {
  -webkit-animation: mainBase 10s ease-in-out infinite; 
  animation: mainBase 10s ease-in-out infinite;
	}
	
@-webkit-keyframes flashLightRight {
  0% {
    fill: #235977;
  }
  53% {
    fill: #458496;
  }
  86% {
    fill: #143951;
  }
  100% {
    fill: #235977;
  }
}
	#flashLightRight {
  -webkit-animation: flashLightRight 2s ease-in-out infinite; 
  animation: flashLightRight 2s ease-in-out infinite;
	}
	
@-webkit-keyframes flashLightLeft {
  0% {
    fill: #235977;
  }
  53% {
    fill: #143951;
  }
  86% {
    fill: #458496;
  }
  100% {
    fill: #235977;
  }
}
	#flashLightLeft {
  -webkit-animation: flashLightLeft 2s ease-in-out infinite; 
  animation: flashLightLeft 2s ease-in-out infinite;
	}
	
@-webkit-keyframes flashScreen {
  0% {
    fill: #143951;
  }
  50% {
    fill: #143951;
  }
}
	#flashScreen {
  -webkit-animation: flashScreen 1s ease-in-out infinite; 
  animation: flashScreen 1s ease-in-out infinite;
	}
	
@-webkit-keyframes flashPanel {
  0% {
    fill: #235977;
  }
  53% {
    fill: #143951;
  }
  100% {
    fill: #235977;
  }
}
	#flashPanel {
  -webkit-animation: flashPanel 3s ease-in-out infinite; 
  animation: flashPanel 3s ease-in-out infinite;
	}
	
@keyframes eyeA {
	100%{
		transform:translate3d(-4px,-1px,0);
	}
	75% {
		transform:translate3d(0,0,0);
	}
	50% {
		transform:translate3d(0,0,0);
	}
}
#eyeA {
	-webkit-animation:eyeA 2s infinite alternate;
	animation:eyeA 2s infinite alternate;
	}
	
@keyframes shadowB {
	0%{
		transform:translate3d(0,0,0);
    	opacity: 50%;
	}
	12% {
		transform:translate3d(15px,6px,0);
    	opacity: 100%;
	}
	25% {
		transform:translate3d(30px,12px,0);
    	opacity: 50%;
	}
	38% {
		transform:translate3d(45px,18px,0);
    	opacity: 100%;
	}
	50% {
		transform:translate3d(60px,25px,0);
    	opacity: 50%;
	}
	62% {
		transform:translate3d(75px,18px,0);
    	opacity: 100%;
	}
	75% {
		transform:translate3d(90px,12px,0);
    	opacity: 50%;
	}
	92% {
		transform:translate3d(105px,6px,0);
    	opacity: 100%;
	}
	100% {
		transform:translate3d(120px,0,0);
    	opacity: 50%;
	}
}
#shadowB {
	-webkit-animation:shadowB 7s infinite alternate;
	animation:shadowB 7s infinite alternate;
	}
	
@keyframes alienB {
	0%{
		transform:translate3d(0,0,0) scale(1,0.98);
	}
	12% {
		transform:translate3d(15px,6px,0);
	}
	25% {
		transform:translate3d(30px,12px,0) scale(1,0.98);
	}
	38% {
		transform:translate3d(45px,18px,0);
	}
	50% {
		transform:translate3d(60px,25px,0) scale(1,0.98);
	}
	62% {
		transform:translate3d(75px,18px,0);
	}
	75% {
		transform:translate3d(90px,12px,0) scale(1,0.98);
	}
	92% {
		transform:translate3d(105px,6px,0);
	}
	100% {
		transform:translate3d(120px,0,0) scale(1,0.98);
	}
}
#alienB {
	-webkit-animation:alienB 7s infinite alternate;
	animation:alienB 7s infinite alternate;
	}
@keyframes eyeB {
	100%{
		transform:translate3d(0,-2px,0);
	}
	75% {
		transform:translate3d(2px,-2px,0);
	}
	50% {
		transform:translate3d(-2px,-2px,0);
	}
}
#eyeB {
	-webkit-animation:eyeB 2s infinite alternate;
	animation:eyeB 2s infinite alternate;
	}

@keyframes eyeC {
	100%{
		transform:translate3d(7px,-2px,0);
	}
	75% {
		transform:translate3d(5px,2px,0);
	}
	50% {
		transform:translate3d(2px,4px,0);
	}
}
#eyeC {
	-webkit-animation:eyeC 2s infinite alternate;
	animation:eyeC 2s infinite alternate;
	}
	
@keyframes leftShoes {
	100%{
		transform:translate3d(0,0,0);
	}
	75% {
		transform:translate3d(0,-3px,0);
	}
	50% {
		transform:translate3d(0,-10px,0);
	}
}
#leftShoes {
	-webkit-animation:leftShoes 2s infinite alternate;
	animation:leftShoes 2s infinite alternate;
	}
	
@keyframes rightShoes {
	100%{
		transform:translate3d(0,-10px,0);
	}
	75% {
		transform:translate3d(0,-3px,0);
	}
	50% {
		transform:translate3d(0,0,0);
	}
}
#rightShoes {
	-webkit-animation:rightShoes 2s infinite alternate;
	animation:rightShoes 2s infinite alternate;
	}
	
@keyframes dack {
	0%{
		transform:translate3d(0,0,0);
	}
	70%{
		transform:translate3d(0,-44px,0) scale(1,1.08);
	}
	100%{
		transform:translate3d(0,-30px,0);
	}
}
#dack {
	-webkit-animation:dack 2s infinite alternate;
	animation:dack 2s infinite alternate;
	}
	
@keyframes wood {
	0%{
		transform:translate3d(0,0px,0);
	}
	50%{
		transform:translate3d(0,-15px,0) scale(1,1.03);
	}
	100%{
		transform:translate3d(0,0,0);
	}
}
.wood {
	-webkit-animation:wood 2s infinite alternate;
	animation:wood 2s infinite alternate;
	}
	
@keyframes canLid {
	0%{
		transform:translate3d(0,1px,0);
	}
	20%{
		transform:translate3d(0,-1px,0);
	}
	70%{
		transform:translate3d(0,0,0);
	}
	100%{
		transform:translate3d(1px,0,0);
	}
}
#canLid {
	-webkit-animation:canLid 1s infinite alternate;
	animation:canLid 1s infinite alternate;
	}

.line{
	fill:#eef2f4;
	stroke:#eef2f4;
	stroke-dasharray: 2000;
	stroke-dashoffset: 0;
	stroke-width: 0.5;
	-webkit-animation: line 2s ease-in 0s;
	animation: line 2s ease-in 0s;
	}

  @-webkit-keyframes line {
      0% {
        stroke-dashoffset: 2000;
        fill:transparent;
      }
      40% {
        stroke-dashoffset: 1000;
        fill:transparent;
      }
  60% {
        stroke-dashoffset: 0;
        fill:#eef2f4;
      }
      100% {
        stroke-dashoffset: 0;
        fill:#eef2f4;
      }
    }
</style>
<path id="mainBase" class="st0" d="M1280.3,737.3H0V0h0.9L1280,0.1L1280.3,737.3z"/>
	

<g id="shadowBase">
	<polygon class="sB" points="356,430.2 321.4,431.2 321.4,416 272.5,439.6 272.5,540.7 321.4,517.1 321.4,448 	"/>
	<polygon class="sB" points="236.6,0.1 0,0 0,94.9 115.4,151.1 479.1,151.1 479.1,175.4 479.2,546.1 428.9,570.7 428.9,682.8 
		540.1,737.4 1121.2,737.4 1279.8,660.9 1278.9,0.3 	"/>
	<polygon class="sB" points="168.2,540.7 217.1,517.1 217.1,416 168.2,439.6 	"/>
	<polygon class="sB" points="168.2,283.6 116.1,308.7 116.1,409.9 217.1,360.8 217.1,153.8 168.2,177.4 	"/>
	<polygon class="sB" points="116,671.5 165,648 165,547 116,570.4 	"/>
	<polygon class="sB" points="376.8,278.4 425.7,254.9 425.7,153.8 376.8,177.3 	"/>
	<polygon class="sB" points="376.8,540.7 425.7,517.2 425.7,416 376.8,439.6 	"/>
	<polygon class="sB" points="324.6,671.6 373.5,648.2 373.5,547 324.6,570.6 	"/>
	<polygon class="sB" points="272.5,278.4 321.4,254.9 321.4,153.8 272.5,177.4 	"/>
	<polygon class="sB" points="269.2,562.9 269.2,547 220.3,570.4 220.3,671.5 269.2,648 269.2,579.7 303.9,561.9 	"/>
	<polygon class="sB" points="477.8,285.2 428.9,308.6 428.9,409.8 477.8,386.3 	"/>
	<polygon class="sB" points="418.4,305.9 373.5,285.7 324.6,308.6 324.6,409.8 373.5,386.3 373.5,320.4 	"/>
</g>
<path id="shadowGround" class="st1" d="M1214.9,677.4l-122.1,59.4l-518.5,0l-127-61l150.9-80.4c12.3-6.6,20.1-19.4,20.1-33.4
	l0.1-158.7L1214.9,677.4z"/>
<g id="passege">
	<path class="st0" d="M357.6,431.3l-11.9,5.8c-14,6.7-30.3,6.7-44.3,0l-11.9-5.8v-2.9h68.1L357.6,431.3L357.6,431.3z"/>
	<path class="st0" d="M305.6,563l-11.9,5.8c-14,6.7-30.3,6.7-44.3,0l-11.9-5.8v-2.9h68.1L305.6,563L305.6,563z"/>
</g>
<g id="highlightBase">
	<polygon class="hB" points="322.1,150.9 271.5,175.2 218.2,150.8 167.7,175.1 1.1,96.8 1.1,-0.2 237.7,-0.1 125.9,56.6 
		271.5,126.6 	"/>
	<polygon class="hB" points="530.8,150.9 480.2,126.6 429.7,150.9 480.2,175.2 	"/>
	<polygon class="hB" points="426.5,150.9 375.9,126.6 325.3,150.9 375.9,175.2 	"/>
	<polygon class="hB" points="428.1,306.3 478.7,281.9 428.1,257.6 377.5,281.9 	"/>
	<polygon class="hB" points="323.7,306.3 374.3,281.9 323.7,257.6 273.1,281.9 	"/>
	<polygon class="hB" points="115,306.3 165.6,281.9 115,257.6 64.4,281.9 	"/>
	<polygon class="hB" points="377.6,544.4 428.2,568.8 478.7,544.4 428.2,520.1 	"/>
	<polygon class="hB" points="14,520.4 115,568.8 165.6,544.4 64.6,496.1 	"/>
	<path class="hB" d="M599.6,336.9l-119.3-58.5v110.6l-50.6,24.3l50.6,24.3l119-56.4C617.9,372.5,618.1,346,599.6,336.9z"/>
	<path class="hB" d="M426.5,413.4l-50.5-24.3l-50.6,24.3l8.8,4.2l-5.8,2.8c-3,1.5-6.4,1.5-9.4,0l-5.7-2.8l8.9-4.3l-102.7-49.5
		l-102.7,49.5l50.5,24.3l52.2-25.1l52.2,25.1l18.7-9l11.2,5.4c13.9,6.7,30.2,6.7,44.3,0l11.4-5.5l18.9,9.1L426.5,413.4z"/>
	<path class="hB" d="M374.3,544.4l-50.6-24.3l-50.5,24.3l9.4,4.5l-6.4,3.2c-3,1.5-6.4,1.5-9.4,0l-6.3-3.1l9.5-4.5l-50.6-24.3
		l-50.5,24.3l50.5,24.3l18.1-8.7l11.9,5.8c13.9,6.7,30.2,6.7,44.3,0l11.9-5.8l18.1,8.8L374.3,544.4z"/>
	<polygon class="hB" points="12.9,404.5 0.7,410.3 0.7,398.4 	"/>
	<polygon class="hB" points="25.2,424.3 0.7,436.2 0.7,424.1 12.9,418.3 	"/>
	<polygon class="hB" points="37.5,444.2 0.7,462 0.7,449.9 25.2,438.1 	"/>
	<polygon class="hB" points="49.9,464.2 0.7,487.8 0.7,475.7 37.5,458 	"/>
	<polygon class="hB" points="62.2,483.9 11.7,508.3 0.7,502.8 -0.7,502.1 0.7,501.5 49.9,477.8 	"/>
	<polygon class="hB" points="5.9,315.3 5.9,327.4 0.7,324.8 0.7,317.8 	"/>
	<polygon class="hB" points="18.3,307.6 18.2,319.6 5.9,313.6 	"/>
	<polygon class="hB" points="30.7,299.9 30.6,312 18.3,305.9 	"/>
	<polygon class="hB" points="43,292.2 43,304.3 30.7,298.2 	"/>
	<polygon class="hB" points="55.5,284.5 55.5,296.6 43.1,290.5 	"/>
</g>
<ellipse id="shadowA" class="st1" cx="115" cy="283.2" rx="6.3" ry="3"/>
<ellipse id="shadowC" class="st1" cx="375.5" cy="411.6" rx="17.1" ry="8.3"/>
<ellipse id="shadowCan" class="st1" cx="323.1" cy="531.6" rx="11.7" ry="5.7"/>
<ellipse id="shadowDack" class="st1" cx="428.5" cy="545.5" rx="13.8" ry="6.6"/>
<path id="shadowBonsai" class="st3" d="M428.9,200.6l7.6,55.4c-2.6-0.2-5.3-0.3-7.9-0.3c-28.6,0-51.7,11.4-51.7,25.3
	c0,13.9,23.2,25.3,51.7,25.3c28.6,0,51.7-11.4,51.7-25.3C474.4,238.9,428.9,200.6,428.9,200.6z"/>
<ellipse id="shadowCan_1_" class="st1" cx="518" cy="374.8" rx="11.8" ry="5.7"/>
<path id="shadowScoop" class="st1" d="M539.5,367.7l15.7,7.9c3.6,1.5,4.5-2.1,2.8-2.8l-16.3-7.7
	C539.6,363.8,536.9,366.2,539.5,367.7z"/>
<path id="shadowShoesR" class="st1" d="M335.8,271.7c-1.7-0.5-2.9-0.3-5.1-0.1c-2.2,0.3-3.7,3.8-0.3,6.2c0.6,0.4,1.5,1,1.7,1.9
	c0.8,3.6,5.6,6.7,10.4,6.7c3.6,0,6.5-1.8,7-3.7c0.6-2.5-1.3-5.9-3.6-6.6C337.5,273.9,339.2,272.8,335.8,271.7z"/>
<path id="shadowShoesL" class="st1" d="M314.1,271.7c1.7-0.5,2.9-0.3,5.1-0.1c2.2,0.3,3.7,3.8,0.3,6.2c-0.6,0.4-1.5,1-1.7,1.9
	c-0.8,3.6-5.6,6.7-10.4,6.7c-3.6,0-6.5-1.8-7-3.7c-0.6-2.5,1.3-5.9,3.6-6.6C312.5,273.9,310.8,272.8,314.1,271.7z"/>
<ellipse id="reflectLeft" class="st4" cx="219.3" cy="391.3" rx="31.5" ry="15.1"/>
<ellipse id="reflectRight" class="st4" cx="428.5" cy="544.8" rx="31.5" ry="15.1"/>
<g id="ladder01">
	<path class="st5" d="M144.1,424.2c-1,0-1.6,0.6-1.6,1.6v3.6c0,1.2-1.2,1.9-2.3,1.4l-8.2-4c-0.6-0.3-1-0.9-1-1.4v-8.3
		c0-0.9-0.7-1.6-1.6-1.6c-0.9,0-1.6,0.7-1.6,1.6v109.6c0,0.9,0.7,1.6,1.6,1.6c0.6,0,1.1-0.2,1.3-0.7c0.2-0.2,0.3-0.6,0.3-0.9v-4.1
		c0-1.2,1.2-1.9,2.3-1.4l8.2,4c0.6,0.3,1,0.9,1,1.4v8.7c0,0.9,0.7,1.6,1.6,1.6c0.9,0,1.6-0.7,1.6-1.6V425.8
		C145.7,424.9,145,424.2,144.1,424.2z M133.3,431.1l8.2,4c0.6,0.2,1,0.8,1,1.4v1.2c0,1.2-1.2,1.9-2.3,1.4l-8.2-4
		c-0.6-0.3-1-0.9-1-1.4v-1.2C131,431.2,132.3,430.5,133.3,431.1z M140.1,496.7l-8.2-4c-0.6-0.3-1-0.9-1-1.4v-1.2
		c0-1.2,1.2-1.9,2.3-1.4l8.2,4c0.6,0.3,1,0.9,1,1.4v1.2C142.4,496.5,141.2,497.2,140.1,496.7z M142.4,502.2v1.2
		c0,1.2-1.2,1.9-2.3,1.4l-8.2-4c-0.6-0.2-1-0.8-1-1.4v-1.2c0-1.2,1.2-1.9,2.3-1.4l8.2,4C142,501.1,142.4,501.7,142.4,502.2z
		 M140.1,488.3l-8.2-4c-0.6-0.2-1-0.8-1-1.3v-1.3c0-1.2,1.2-1.9,2.3-1.4l8.2,4c0.6,0.3,1,0.9,1,1.4v1.2
		C142.4,488.2,141.2,488.9,140.1,488.3z M140.1,480.1l-8.2-4c-0.6-0.2-1-0.7-1-1.4v-1.2c0-1.2,1.2-1.9,2.3-1.4l8.2,4
		c0.6,0.3,1,0.9,1,1.4v1.2C142.4,479.9,141.2,480.6,140.1,480.1z M140.1,471.9l-8.2-4c-0.6-0.2-1-0.7-1-1.4v-1.2
		c0-1.2,1.2-1.9,2.3-1.4l8.2,4c0.6,0.3,1,0.9,1,1.4v1.2C142.4,471.8,141.2,472.5,140.1,471.9z M140.1,463.7l-8.2-4
		c-0.6-0.1-1-0.7-1-1.4v-1.2c0-1.2,1.2-1.9,2.3-1.4l8.2,4c0.6,0.3,1,0.9,1,1.4v1.2C142.4,463.5,141.2,464.2,140.1,463.7z
		 M140.1,455.5l-8.2-4c-0.6-0.2-1-0.7-1-1.4v-1.2c0-1.2,1.2-1.9,2.3-1.4l8.2,4c0.6,0.3,1,0.9,1,1.4v1.2
		C142.4,455.3,141.2,456,140.1,455.5z M140.1,447.4l-8.2-4c-0.6-0.2-1-0.8-1-1.5v-1.1c0-1.2,1.2-1.9,2.3-1.4l8.2,4
		c0.6,0.3,1,0.9,1,1.4v1.2C142.4,447.2,141.2,447.9,140.1,447.4z M142.4,519.8c0,1.2-1.2,1.9-2.3,1.4l-8.2-4c-0.6-0.2-1-0.7-1-1.4
		v-1.2c0-1.2,1.2-1.9,2.3-1.4l8.2,4c0.6,0.3,1,0.9,1,1.4V519.8z M140.2,512.9l-8.2-4c-0.6-0.3-1-0.9-1-1.4v-1.2
		c-0.1-1.1,1.2-1.8,2.3-1.4l8.2,4c0.6,0.3,1,0.9,1,1.4v1.2C142.5,512.7,141.3,513.5,140.2,512.9z"/>
</g>
<g id="ladder03">
	<path class="st5" d="M345.7,557.6c-0.9,0-1.6,0.7-1.6,1.6v109.6c0,0.9,0.7,1.6,1.6,1.6c0.9,0,1.6-0.7,1.6-1.6v-8.7
		c0-0.6,0.3-1.2,1-1.4l8.2-4c1-0.4,2.3,0.3,2.3,1.4v4.1c0,0.9,0.7,1.6,1.6,1.6c0.9,0,1.6-0.7,1.6-1.6V550.6c0-0.9-0.7-1.6-1.6-1.6
		c-0.9,0-1.6,0.7-1.6,1.6v8.3c0,0.6-0.3,1.2-1,1.4l-8.2,4c-1,0.4-2.3-0.3-2.3-1.4v-3.6C347.3,558.3,346.7,557.6,345.7,557.6
		L345.7,557.6z M358.6,639.8v1.2c0,0.6-0.3,1.2-1,1.4l-8.2,4c-1,0.4-2.3-0.3-2.3-1.4v-1.2c0-0.6,0.3-1.2,1-1.4l8.2-4
		C357.4,637.9,358.6,638.7,358.6,639.8z M357.7,634.2l-8.2,4c-1,0.4-2.3-0.3-2.3-1.4v-1.2c0-0.6,0.3-1.2,1-1.4l8.2-4
		c1-0.4,2.3,0.3,2.3,1.4v1.2C358.6,633.4,358.3,634.1,357.7,634.2z M357.7,626l-8.2,4c-1,0.4-2.3-0.3-2.3-1.4v-1.2
		c0-0.6,0.3-1.2,1-1.4l8.2-4c1-0.4,2.3,0.3,2.3,1.4v1.2C358.6,625.2,358.3,625.7,357.7,626z M357.7,617.9l-8.2,4
		c-1,0.4-2.3-0.3-2.3-1.4v-1.2c0-0.6,0.3-1.2,1-1.4l8.2-4c1-0.4,2.3,0.3,2.3,1.4v1.2C358.6,617,358.3,617.6,357.7,617.9z
		 M357.7,609.6l-8.2,4c-1,0.4-2.3-0.3-2.3-1.4V611c0-0.6,0.3-1.2,1-1.4l8.2-4c1-0.4,2.3,0.3,2.3,1.4v1.2
		C358.6,608.8,358.3,609.4,357.7,609.6z M357.7,601.4l-8.2,4c-1,0.4-2.3-0.3-2.3-1.4v-1.2c0-0.6,0.3-1.2,1-1.4l8.2-4
		c1-0.4,2.3,0.3,2.3,1.4v1.2C358.6,600.6,358.3,601.1,357.7,601.4z M357.7,593.3l-8.2,4c-1,0.4-2.3-0.3-2.3-1.4v-1.3
		c0-0.6,0.3-1.2,1-1.4l8.2-4c1-0.4,2.3,0.3,2.3,1.4v1.2C358.6,592.4,358.3,592.9,357.7,593.3z M357.7,585l-8.2,4
		c-1,0.4-2.3-0.3-2.3-1.4v-1.2c0-0.6,0.3-1.2,1-1.4l8.2-4c1-0.4,2.3,0.3,2.3,1.4v1.2C358.6,584.3,358.3,584.7,357.7,585z
		 M357.7,576.7l-8.2,4c-1,0.4-2.3-0.3-2.3-1.4v-1.2c0-0.6,0.3-1.2,1-1.4l8.2-4c1-0.4,2.3,0.3,2.3,1.4v1.2
		C358.6,576,358.3,576.5,357.7,576.7z M348.1,568.4l8.2-4c1-0.4,2.3,0.3,2.3,1.4v1.2c0,0.6-0.3,1.2-1,1.4l-8.2,4
		c-1,0.4-2.3-0.3-2.3-1.4v-1.2C347.3,569.3,347.6,568.8,348.1,568.4z M357.7,650.7l-8.2,4c-1,0.4-2.3-0.3-2.3-1.4v-1.2
		c0-0.6,0.3-1.2,1-1.4l8.2-4c1-0.4,2.3,0.3,2.3,1.4v1.2C358.6,649.8,358.3,650.4,357.7,650.7z"/>
</g>
<g id="ladder02">
	<path class="st5" d="M451.1,292.5c-0.9,0-1.6,0.7-1.6,1.6v109.6c0,0.9,0.7,1.6,1.6,1.6c0.9,0,1.6-0.7,1.6-1.6v-8.7
		c0-0.6,0.3-1.2,1-1.4l8.2-4c1-0.4,2.3,0.3,2.3,1.4v4.1c0,0.9,0.7,1.6,1.6,1.6s1.6-0.7,1.6-1.6V285.5c0-0.9-0.7-1.6-1.6-1.6
		s-1.6,0.7-1.6,1.6v8.3c0,0.6-0.3,1.2-1,1.4l-8.2,4c-1,0.4-2.3-0.3-2.3-1.4v-3.6C452.7,293.2,451.9,292.5,451.1,292.5z M464.1,374.7
		v1.2c0,0.6-0.3,1.2-1,1.4l-8.2,4c-1,0.4-2.3-0.3-2.3-1.4v-1.2c0-0.6,0.3-1.2,1-1.4l8.2-4C462.8,372.8,464.1,373.7,464.1,374.7
		L464.1,374.7z M463.1,369.3l-8.2,4c-1,0.4-2.3-0.3-2.3-1.4v-1.3c0-0.6,0.3-1.2,1-1.4l8.2-4c1-0.4,2.3,0.3,2.3,1.4v1.2
		C464.1,368.4,463.7,369,463.1,369.3L463.1,369.3z M463.1,361l-8.2,4c-1,0.4-2.3-0.3-2.3-1.4v-1.2c0-0.6,0.3-1.2,1-1.4l8.2-4
		c1-0.4,2.3,0.3,2.3,1.4v1.2C464.1,360.2,463.7,360.8,463.1,361z M463.1,352.8l-8.2,3.9c-1,0.4-2.3-0.3-2.3-1.4v-1.2
		c0-0.6,0.3-1.2,1-1.4l8.2-4c1-0.4,2.3,0.3,2.3,1.4v1.2C464.1,351.9,463.7,352.6,463.1,352.8L463.1,352.8z M463.1,344.6l-8.2,4
		c-1,0.4-2.3-0.3-2.3-1.4V346c0-0.6,0.3-1.2,1-1.4l8.2-4c1-0.4,2.3,0.3,2.3,1.4v1.2C464.1,343.7,463.7,344.3,463.1,344.6z
		 M463.1,336.4l-8.2,4c-1,0.4-2.3-0.3-2.3-1.4v-1.2c0-0.6,0.3-1.2,1-1.4l8.2-4c1-0.4,2.3,0.3,2.3,1.4v1.2
		C464.1,335.6,463.7,336.1,463.1,336.4z M463.1,328.1l-8.2,4c-1,0.4-2.3-0.3-2.3-1.4v-1.2c0-0.6,0.3-1.2,1-1.4l8.2-4
		c1-0.4,2.3,0.3,2.3,1.4v1.2C464.1,327.4,463.7,328,463.1,328.1z M463.1,319.9l-8.2,4c-1,0.4-2.3-0.3-2.3-1.4v-1.2
		c0-0.6,0.3-1.2,1-1.4l8.2-4c1-0.4,2.3,0.3,2.3,1.4v1.2C464.1,319.2,463.7,319.7,463.1,319.9z M463.1,311.7l-8.2,4
		c-1,0.4-2.3-0.3-2.3-1.4v-1.2c0-0.6,0.3-1.2,1-1.4l8.2-4c1-0.4,2.3,0.3,2.3,1.4v1.2C464.1,310.9,463.7,311.4,463.1,311.7z
		 M453.6,303.4l8.2-4c1-0.4,2.3,0.3,2.3,1.4v1.2c0,0.6-0.3,1.2-1,1.4l-8.2,4c-1,0.4-2.3-0.3-2.3-1.4v-1.2
		C452.7,304.2,453.1,303.7,453.6,303.4z M463.1,385.6l-8.2,4c-1,0.4-2.3-0.3-2.3-1.4V387c0-0.6,0.3-1.2,1-1.4l8.2-4
		c1-0.4,2.3,0.3,2.3,1.4v1.2C464.1,384.8,463.7,385.4,463.1,385.6z"/>
</g>
<g>
	<ellipse id="shadowB" class="st1" cx="275.7" cy="681.4" rx="11.6" ry="5.6"/>
</g>
<g id="alienB">
	<circle class="st6" cx="275.8" cy="646.1" r="9.7"/>
	
		<linearGradient id="SVGID_1_" gradientUnits="userSpaceOnUse" x1="276.2815" y1="-1306.1378" x2="276.2815" y2="-1356.2295" gradientTransform="matrix(1 0 0 -1 0 -674)">
		<stop  offset="0" style="stop-color:#ED7900"/>
		<stop  offset="1" style="stop-color:#FFAE0D"/>
	</linearGradient>
	<path class="st7" d="M290.5,671.7c-0.4-1.9-3.6-2.2-3.6,0.3c0,1.2-1.9,1.3-1.9,0.1v-3.3c0.1-3.1,0.3-6.3,1-9.3
		c0.4-2.4,1.1-4.9,1.9-7.1l0.3-0.9c0.1-0.2,0.2-0.4,0.3-0.6c0.7-1.9,1.1-3.9,1-6c0-0.2-0.2-1.7-0.3-2.4c-1.4-5.5-6.2-9.8-12.2-10.2
		c-3.9-0.3-7.4,1.1-10,3.4c0,0-1.5,1.6-2,2.3c-1.6,2.3-2.4,4.9-2.4,7.7c0,1.7,0.3,3.6,1,5c0,0.1,0.1,0.2,0.1,0.3
		c0.1,0.3,0.2,0.4,0.3,0.7c1,2.4,1.6,4.9,2,7.4c0.6,3.1,1,6.2,1,9.3v3.3c-0.1,1.2-2,1.1-1.9-0.1c-0.2-2.9-4.2-2-3.6,0.7
		c0,6.2,9.2,6.2,9.3,0v-11.8c0-0.6,0.3-1,0.6-1.3c0.4-0.3,1-0.6,1.6-0.4c0.3,0.1,0.6,0.2,0.7,0.3c0.3,0.3,0.6,0.9,0.6,1.4v19.7
		c0,1,0.9,1.9,1.9,1.9c1,0,1.9-0.9,1.9-1.9v-19.7c0-0.6,0.2-1,0.6-1.4c0.2-0.2,0.4-0.3,0.7-0.3h0.1c0.6-0.2,1.2,0,1.6,0.4
		c0.3,0.3,0.6,0.9,0.6,1.3v11.9c0.1,6.2,9.2,6.2,9.3,0C290.5,672.2,290.5,671.8,290.5,671.7L290.5,671.7z M283.5,646.8
		c-0.3,2.4-1.7,4.4-3.6,5.6c-0.7,0.4-1.6,0.9-2.6,1c-0.4,0.1-1,0.2-1.6,0.2s-1.2-0.1-1.7-0.2c-0.9-0.2-1.6-0.4-2.3-1
		c-2.3-1.4-3.7-3.9-3.7-6.8c0-4,2.9-7.2,6.6-7.7c0.3-0.1,0.7-0.1,1.2-0.1c2,0,4,0.9,5.4,2.2c1.6,1.5,2.4,3.6,2.4,5.7
		C283.6,645.8,283.5,646.6,283.5,646.8L283.5,646.8z"/>
	<path class="st1" d="M290.4,646.1c0.7,2.2-0.3,4.5-2.3,5.4c-0.2,0.1-0.3,0.2-0.6,0.2h-0.6c-0.1,0-0.3,0-0.3-0.1
		c-1-0.3-1.2-1.7-0.7-3.1c0.4-1.5,1.7-2.3,2.6-2c0.4,0,0.4-1.6,0.4-1.9v-0.8c-0.1-0.6-0.2-1.2-0.3-1.7c0-0.1-0.1-0.2-0.1-0.3
		c0-0.1-0.1-0.3-0.1-0.3l-0.3-0.9v-0.1c-0.1-0.2-0.1-0.3-0.2-0.4c-0.4-1-1-1.9-1.6-2.7c-0.2-0.3-0.6-0.2-0.7,0.1
		c-0.6,1.5-2.3,2.4-4.3,2.6c-1.2,0.1-2.6-0.1-4-0.6c-1-0.3-1.9-0.9-2.4-1.4l-0.2-0.2c-0.6-0.4-1.1-1-1.6-1.6c-1-1.5-2.9-2-4.4-1.6
		c-0.6,0.2-1.2,0.4-1.6,1h-0.1l-0.4,0.4c-0.6,0.6-1,1.1-1.4,1.6c-0.6,0.7-0.9,1.6-1,2.4c-0.3,1.6,0.2,3.6,1.4,4.9
		c0.3,0.3,0.6,0.7,0.9,1.3c1,2,0.7,4.2-0.6,4.9c-0.4,0.3-1.1,0.3-1.6,0.1H264c-0.2-0.1-0.3-0.1-0.4-0.2c-0.1,0-0.1-0.1-0.2-0.1
		c-2.4-1.3-4-3.9-3.6-6.8c0.1-2,1.1-3.9,2.6-5c0.3-0.3,0.4-0.6,0.3-1c-0.2-1,0.2-2.2,1-3c1-1.2,2.4-1.6,3.6-1.5
		c0.4,0.1,0.9,0,1.1-0.3c1.6-2.3,3.7-3.6,6.2-4.1c1.9-0.4,3.9-0.4,5.8,0c4.5,1.1,8.4,4.9,8.7,10.1c0,0.4,0.3,0.9,0.6,1
		c0.6,0.3,1.1,1,1.4,1.7c0.3,0.9,0.2,1.6-0.2,2.4c-0.2,0.3-0.3,0.9-0.1,1.2C290.4,646,290.4,646,290.4,646.1L290.4,646.1z"/>
	<path id="eyeB" class="st8" d="M275.6,641.8c-1,0-1.7,0.3-2.4,0.7c-0.7,0.6-0.3,1.6,0.6,1.6h0.1c0.4,0,1,0.2,1.3,0.6
		s0.6,0.7,0.6,1.2c0,1-1,1.9-1.9,1.9c-1,0-1.3,1.2-0.6,1.6c0.6,0.4,1.6,0.7,2.4,0.7c2.4,0,4.2-1.9,4.2-4.2
		C279.9,643.7,278.1,641.8,275.6,641.8L275.6,641.8z M277.7,645.4c-0.4,0-0.9-0.3-0.9-0.9s0.3-0.9,0.9-0.9s0.9,0.3,0.9,0.9
		C278.6,645.1,278.2,645.4,277.7,645.4z"/>
	
		<linearGradient id="SVGID_2_" gradientUnits="userSpaceOnUse" x1="276.2766" y1="-1356.2504" x2="276.2766" y2="-1349.2446" gradientTransform="matrix(1 0 0 -1 0 -674)">
		<stop  offset="0" style="stop-color:#ED7900"/>
		<stop  offset="1" style="stop-color:#FFD40D"/>
	</linearGradient>
	<path class="st9" d="M276.3,682.1c1,0,1.9-0.9,1.9-1.9v-3.3c0-1-0.9-1.9-1.9-1.9c-1,0-1.9,0.9-1.9,1.9v3.3
		C274.5,681.4,275.3,682.1,276.3,682.1z"/>
</g>
<g id="alienA">
	<circle class="st6" cx="375.5" cy="386.1" r="10.2"/>
	<path id="eyeA" class="st8" d="M375.5,381.9c-1,0-1.7,0.3-2.4,0.7c-0.7,0.6-0.3,1.6,0.6,1.6h0.1c0.4,0,1,0.2,1.3,0.6
		c0.3,0.3,0.6,0.7,0.6,1.2c0,1-1,1.9-1.9,1.9c-1,0-1.3,1.2-0.6,1.6c0.6,0.4,1.6,0.7,2.4,0.7c2.4,0,4.2-1.9,4.2-4.2
		C379.6,383.9,377.9,381.9,375.5,381.9L375.5,381.9z M377.6,385.6c-0.4,0-0.9-0.3-0.9-0.9c0-0.6,0.3-0.9,0.9-0.9
		c0.6,0,0.9,0.3,0.9,0.9C378.5,385.2,378.1,385.6,377.6,385.6z"/>
	
		<linearGradient id="SVGID_3_" gradientUnits="userSpaceOnUse" x1="375.618" y1="-1047.4902" x2="375.618" y2="-1091.7607" gradientTransform="matrix(1 0 0 -1 0 -674)">
		<stop  offset="0" style="stop-color:#ED7900"/>
		<stop  offset="1" style="stop-color:#FFAE0D"/>
	</linearGradient>
	<path class="st10" d="M387.9,403.7v-18c0-6.8-5.5-12.3-12.3-12.3c-3.4,0-6.5,1.4-8.7,3.6c-2.3,2.3-3.6,5.4-3.6,8.7v17.9
		c-2.9,1.5-4.9,3.6-4.9,5.7c0,4.6,7.7,8.3,17.2,8.3c9.5,0,17.2-3.6,17.2-8.2C392.7,407.1,390.9,405.3,387.9,403.7z M371.7,379.1
		c1.1-0.6,2.4-1,3.7-1c1.1,0,2.3,0.3,3.2,0.6c2.8,1.2,4.6,4,4.6,7.2c0,4.3-3.6,7.9-7.9,7.9c-4.3,0-7.9-3.6-7.9-7.9
		C367.7,383.1,369.4,380.5,371.7,379.1L371.7,379.1z"/>
	<path class="st1" d="M393.8,384.6v0.6c0,2.4-2,4.6-4.6,4.6c-0.3,0-0.6,0-1-0.1c-0.1,0-0.2-0.1-0.3-0.1h-0.1v-3.9
		c0-2-0.4-3.9-1.4-5.5c-0.6,0.4-1.2,0.7-1.9,0.9h-0.4c-1,0-1.9-0.3-2.7-1.2c-0.3-0.3-0.6-0.6-0.7-0.9c-0.3-0.3-0.6-0.4-1-0.4
		c-0.3,0-0.6,0.1-0.9,0.3c-0.1,0.1-0.2,0.1-0.2,0.2c-0.2,0.2-0.3,0.4-0.6,0.6c-1.5,1.6-4.2,1.6-5.6,0l-0.6-0.6c0,0,0-0.1-0.1-0.1
		c-0.3-0.3-0.6-0.4-1-0.4s-0.7,0.2-1,0.4c-0.3,0.3-0.4,0.6-0.7,0.9c-0.9,0.9-1.6,1.2-2.3,1.3c-0.9,0.2-1.6-0.1-2.2-0.3
		c-0.7,1.6-1.1,3.2-1.1,4.9v3.9h-0.1c-0.1,0-0.2,0.1-0.3,0.1c-0.3,0.1-0.6,0.1-1,0.1c-2.6,0-4.6-2-4.6-4.6v-0.9c0-1,0.9-1.7,1.9-1.7
		c1,0,1.9,0.9,1.9,1.7c0,0.3,0.1,0.6,0.3,0.6c0.2,0.2,0.4,0.3,0.7,0.3c0.3,0,0.6-0.1,0.7-0.3c0.2-0.2,0.3-0.3,0.3-0.6
		c0,0-1-3.3-0.3-6.5c1.2-6.2,8.9-5.9,11.9-6c3.1-0.1,4.2-2.4,8.3-2.2c3.6,0.3,5.3,3.6,5.7,6.5c0.6,2.7-0.3,8.2-0.3,8.2
		c0,0.2,0.1,0.4,0.3,0.6c0.2,0.2,0.4,0.3,0.7,0.3s0.6-0.1,0.7-0.3c0.2-0.2,0.3-0.3,0.3-0.6c0-1,0.9-1.7,1.9-1.7
		C393,382.8,393.8,383.6,393.8,384.6L393.8,384.6z"/>
</g>
<g id="alienC">
	<circle class="st6" cx="115.1" cy="250.7" r="10.3"/>
	<path id="eyeC" d="M115.1,246.7c-1,0-1.7,0.3-2.4,0.7c-0.7,0.6-0.3,1.6,0.6,1.6h0.1c0.4,0,1,0.2,1.3,0.6c0.3,0.3,0.6,0.7,0.6,1.2
		c0,1-1,1.9-1.9,1.9s-1.3,1.2-0.6,1.6c0.6,0.4,1.6,0.7,2.4,0.7c2.4,0,4.2-1.9,4.2-4.2C119.4,248.7,117.4,246.7,115.1,246.7z
		 M117.1,250.5c-0.4,0-0.9-0.3-0.9-0.9s0.3-0.9,0.9-0.9s0.9,0.3,0.9,0.9C118,250,117.6,250.5,117.1,250.5z"/>
	
		<linearGradient id="SVGID_4_" gradientUnits="userSpaceOnUse" x1="115.0547" y1="-912.7802" x2="115.0547" y2="-957.2379" gradientTransform="matrix(1 0 0 -1 0 -674)">
		<stop  offset="0" style="stop-color:#ED7900"/>
		<stop  offset="1" style="stop-color:#FFAE0D"/>
	</linearGradient>
	<path class="st11" d="M123.7,242.4c-2.4-2.4-5.8-3.7-9.5-3.6c-6.2,0.3-11.2,5.4-11.5,11.5c-0.1,1.9,0.3,4,0.9,5.7
		c0,0.1,0,0.1,0.1,0.2c0.6,1.4,1.5,2.7,2.6,3.6l0.1,0.1c0.4,0.4,0.7,0.9,1,1.5c0.5,1.1,0.5,2.5,0.1,3.8v0.2
		c-0.2,0.7-0.3,1.5-0.3,2.3c0,1.6,0.6,3.2,1.5,4.5c0.6,0.9,1,1.9,1,2.9v6.3c0,0.1,0,0.1,0,0.2c0.1,0.9,0.7,1.7,1.6,1.8
		c1.1,0.1,2-0.7,2-1.9v-4c0-1,0.7-1.9,1.6-1.9c1.1-0.1,2,0.7,2,1.9v4c0,1,0.7,1.9,1.6,1.9c1,0.1,1.9-0.6,2-1.7c0-0.1,0-0.1,0-0.2
		V275c0-1,0.3-2,1-2.9c1-1.3,1.5-2.9,1.5-4.5c0-0.7-0.1-1.6-0.3-2.3v-0.2c-0.4-1.2-0.3-2.6,0.1-3.7c0.2-0.6,0.6-1.1,1-1.5l0.1-0.1
		c1.6-1.6,2.9-3.7,3.3-6.2l0,0l0,0c0.2-0.9,0.3-1.6,0.3-2.4C127.2,247.6,125.8,244.6,123.7,242.4z M122.7,252.3
		C122.7,252.3,122.7,252.3,122.7,252.3c-0.6,3.1-2.8,5.5-5.7,6.3l0,0c-1.1,0.3-2.4,0.4-3.7,0.1c-0.1,0-0.2,0-0.3-0.1
		c-1.8-0.5-3.3-1.6-4.4-2.9c0,0,0-0.1-0.1-0.1c-0.6-0.9-1-1.8-1.2-2.8c-1-4.7,2.3-8.9,6.6-9.3l0,0c0.9-0.1,1.7-0.1,2.7,0.1
		s1.7,0.6,2.4,1c0,0,0.1,0,0.1,0.1c1.6,1.1,2.9,2.9,3.5,4.8C122.8,250.3,122.9,251.3,122.7,252.3z"/>
	<path class="st1" d="M127,253.6c-0.3,0.1-0.6,0.1-1,0.1c-1.4,0-2.4-0.6-3.3-1.4c-2-1.9-2.9-5.4-3.6-7.9c-0.3-1.2-0.6-2.2-0.7-2.6
		c-0.9-1.6-2.2-0.6-2.8-0.3c-0.6,0.4-1.2,1-1.6,1.7c-2,2.9-2.9,7.6-3.3,9.3c-0.3,1.4-1.1,2.4-2.2,3c-1.5,1-3.3,1-4.9,0.4
		c-0.2-0.1-0.4-0.2-0.6-0.3c-6.6-3.1-5.5-20.7,10.6-20.7c3.3,0,4.9,1.5,4.9,1.5s2.2-0.3,4.2,0.9C130.8,241.6,131.6,252.3,127,253.6z
		"/>
</g>
<g id="tools">
	<g>
		<g>
			<path class="st0" d="M572.2,323.9L572.2,323.9c-0.2-0.2-2.5-4.5-6.2-6.5c-3.8-2.1-4.5,0.2-4.6,1.8c-0.2,1.3,0.3,6.7,0.6,9.1
				c0.1,0.6-0.1,1.4-0.3,2l-10.4,25.9c-0.2,0.5-0.8,0.6-1.1,0.2l-2-2.2c-1.8-2-5.1-1.1-5.7,1.5l-2.1,10.1c-0.1,0.3,0.1,0.6,0.4,0.8
				l15,7.1c0,0,4.1-4.9,4.1-5c0.2-1.1-0.2-2.1-0.9-2.9l0,0l-3.2-3.6l-0.1-0.1l-0.2-0.3c-1.1-1.2-1.4-2.9-0.8-4.5l10.4-25.5
				c0.3-0.9,1.1-1.6,1.9-1.9c1.1-0.4,2.7-1.1,4.9-1.9c0.5-0.2,0.8-0.4,1-0.7C573.5,326.1,572.2,323.9,572.2,323.9z M565.5,319.8
				l4.1,4.5c0.4,0.5,0.2,1.2-0.3,1.5l-3.4,1.4c-0.6,0.3-1.5-0.2-1.5-0.9l-0.6-5.6C563.6,319.6,564.8,319.1,565.5,319.8z"/>
			<path class="st5" d="M545.7,358.2l2.4,2.5c0.6,0.6,0.7,1.5,0.4,2.4l-1.9,6.2l-5.5-2.7c0,0,5.1,2.4,4.9-0.8l-0.6-7.5
				C545.1,358.2,545.5,358,545.7,358.2z"/>
		</g>
		<path class="st5" d="M572.5,327.3c-0.2,0.2-0.6,0.6-1,0.7c-2.1,0.8-3.7,1.5-4.9,1.9c-0.9,0.3-1.6,1.1-1.9,1.9l-10.4,25.5
			c-0.6,1.5-0.3,3.2,0.8,4.5l3.6,3.9c0.7,0.8,1.1,1.9,0.9,2.9c0,0.2-0.1,0.5-0.1,0.5c0,0.1-2.6,4.3-2.6,4.3
			c-0.5,0.5-1.3,0.2-1.3,0.2l-6.7-3.2l1.8-4.5c0.2-0.6,1.5-0.7,2-0.2l3,3.3c0.2,0.2,0.1,0.5-0.2,0.6c0,0-4.7,0.6-3.2,2l0.2,0.1
			c1.5,0.9,3.5,0.4,4.4-1.1l1.1-1.6c0.8-1.3,0.4-2.6-0.6-3.8l-3.2-3.5c-0.9-0.9-1.5-2.9-1.1-4.1l10.6-26.7c0.4-1.1,1.3-1.9,2.3-2.3
			l4.9-1.8c1.6-0.7,1.3-3,1.3-3S573.5,326.1,572.5,327.3z"/>
	</g>
	<g>
		<path class="st0" d="M535.6,363.1c-1.9,0-3.3,0.7-3.3,1.5v4.3c0,0.2-0.3,0.5-0.6,0.3l-3.2-1.5l-1.1-8.8c0-2.4-4.1-4.5-9.3-4.5
			c-4.8,0-8.7,1.7-9.2,3.9l-3.2-1.5c-1.8-0.8-3.7,0.4-3.7,2.4v5.8c0,0.9,0.7,1.6,1.6,1.6s1.6-0.7,1.6-1.6v-4.5
			c0-0.2,0.3-0.5,0.6-0.3l2.7,1.3L507,374c0.5,2.8,5.4,4.9,11.2,4.9s10.6-2.1,11.2-4.9l-0.3-2.8l2.8,1.4c1.8,0.8,3.7-0.4,3.7-2.4
			l0.1-4c1.5,0,2.9-0.5,3.2-1.2c0.1-0.2,0.1-0.2,0.1-0.4C538.9,363.8,537.5,363.1,535.6,363.1z"/>
		<path class="st1" d="M527.2,359.6c0,0.2,0,0.3-0.1,0.5c-0.1,0.2-0.2,0.4-0.4,0.6c-0.2,0.2-0.5,0.5-0.8,0.7
			c-1.6,1.2-4.5,2.1-7.9,2.1c-3.4,0-6.5-0.9-8-2.2c-0.2-0.2-0.4-0.4-0.6-0.6s-0.2-0.3-0.4-0.6c0-0.2-0.1-0.3-0.1-0.5
			c0-2.4,4.1-4.4,9.1-4.4C523.1,355.2,527.2,357.2,527.2,359.6z"/>
		<path class="st12" d="M526,361.3c-1.6,1.2-4.5,2.1-7.9,2.1c-3.4,0-6.5-0.9-8-2.2c1.5-1.3,4.5-2.2,7.9-2.2
			C521.4,359,524.5,359.9,526,361.3z"/>
		<path class="st2" d="M521.8,358.3c-0.6,0-1.1,0.1-1.7,0.2c-0.2,0-0.3,0-0.4-0.1c-1.7-1.5-5.7,0.9-1.7,1.1c0.2,0,0.4,0.2,0.4,0.4
			c0.1,1.1,1.9,1.4,3.4,1.5C526,361.5,526.4,358.4,521.8,358.3z"/>
	</g>
</g>
<g id="bonsai">
	<ellipse id="shadow" class="st1" cx="425.5" cy="283.6" rx="17.1" ry="8.3"/>
	<g>
		
			<linearGradient id="SVGID_5_" gradientUnits="userSpaceOnUse" x1="426.0185" y1="-961.6403" x2="426.0185" y2="-920.2571" gradientTransform="matrix(1 0 0 -1 0 -674)">
			<stop  offset="0" style="stop-color:#143951"/>
			<stop  offset="1" style="stop-color:#204D6A"/>
		</linearGradient>
		<path class="st13" d="M450.3,257.9C450.1,257.9,450.1,257.9,450.3,257.9c0-6.6-10.9-11.8-24.4-11.8c-13.5,0-24.2,5.1-24.2,11.7
			v0.2l7.2,21.9c0.6,4.4,7.8,7.8,16.9,7.8s16.3-3.4,16.9-7.8L450.3,257.9z"/>
		<ellipse class="st1" cx="426.1" cy="259.3" rx="20" ry="9.6"/>
		<path class="st12" d="M426.1,249.4c-11.1,0-20,4.4-20,9.6c0,2.6,1.8,4.6,4.9,6.3c0.1-4.9,2.5-9.1,6.2-11.7c-0.6,0.7-1,1.5-1,2.4
			c0,3.1,4.3,5.5,9.7,5.5c5.4,0,9.7-2.5,9.7-5.5c0-1-0.4-1.9-1.1-2.7c3.8,2.7,6.3,7,6.4,12c3.2-1.6,4.9-3.8,4.9-6.3
			C445.8,253.9,436.9,249.4,426.1,249.4z"/>
	</g>
	<g>
		<g>
			<path class="st0" d="M477.5,242.8h-27.2c-7.4,0.4-11.7,2.1-14.4,4.3c-0.1,0.1-0.2,0.2-0.3,0.2l0,0c-0.2,0.2-0.5,0.5-0.7,0.6
				c-0.1,0-0.1,0.1-0.1,0.1c-0.2,0.2-0.2,0.2-0.4,0.4c-0.2,0.2-0.5,0.6-0.7,0.8c-0.2,0.2-0.3,0.4-0.5,0.6l0,0l0,0
				c-0.1,0.1-0.1,0.2-0.2,0.2c-0.2,0.2-0.4,0.6-0.6,0.8c-0.2,0.2-0.3,0.6-0.5,0.8c-0.2,0.4-0.5,0.8-0.6,1.1
				c-0.2,0.2-0.3,0.5-0.4,0.7c-0.1,0.2-0.2,0.2-0.2,0.3c-0.3,0.5-0.6,0.9-0.9,1.2c0,0,0,0-0.1,0.1c-0.3,0.3-0.6,0.6-1,0.9
				c-0.1,0.1-0.2,0.1-0.2,0.2c-0.2,0.1-0.3,0.2-0.5,0.2c-0.2,0.1-0.4,0.2-0.6,0.2c-0.1,0-0.2,0.1-0.2,0.1c-0.1,0-0.2,0-0.2,0
				c-0.2,0-0.4,0.1-0.6,0.1c-0.2,0-0.2,0-0.3,0c-0.1,0-0.2,0-0.3,0c-0.1,0-0.2,0-0.2,0c-0.1,0-0.2,0-0.2-0.1
				c-1.8-0.4-2.8-1.7-3.7-3.3c-0.2-0.2-0.3-0.5-0.5-0.7c-0.2-0.2-0.2-0.4-0.4-0.6c-0.2-0.3-0.5-0.7-0.7-1.1c0-0.1-0.1-0.1-0.1-0.2
				c-0.2-0.2-0.3-0.4-0.5-0.6c-0.1-0.1-0.1-0.2-0.2-0.2l0,0c0-0.1-0.1-0.1-0.1-0.1c-0.2-0.4-0.6-0.7-0.9-1.1
				c-0.2-0.2-0.3-0.3-0.5-0.5c-0.2-0.2-0.4-0.4-0.6-0.6c-0.2-0.1-0.2-0.2-0.3-0.3c-0.2-0.1-0.2-0.2-0.4-0.3c0,0,0,0-0.1,0l0,0
				c-0.1-0.1-0.2-0.2-0.3-0.2c-2.8-2-7.1-3.6-14.1-4h-19.9c-19.9,0.2-35.8-17.3-34.4-36.7c0.1-1.4,0.2-2.8,0.5-4.1
				c2.8-15.2,16-27,31.5-28l0,0c1.3-4.7,3-9,4.9-12.9c22.1-43.5,82.4-35.8,100.1,2c5,10.8,6.6,24.1,2.8,39.3
				c4.7,2.4,9,7.1,10.6,12.2C502.3,228.3,491.9,243.1,477.5,242.8z"/>
			<path class="st1" d="M435.4,247.5c-5,4.1-4.7,9.6-9.4,9.6c-4.9,0-4.6-5.9-10.4-10.1c2.9,2,6.5,3.2,10.3,3.2
				C429.4,250.1,432.6,249.1,435.4,247.5z"/>
		</g>
		<g>
			
				<linearGradient id="SVGID_6_" gradientUnits="userSpaceOnUse" x1="433.9015" y1="138.1878" x2="433.9015" y2="93.5303" gradientTransform="matrix(1 0 0 1 0 38)">
				<stop  offset="0" style="stop-color:#235977"/>
				<stop  offset="1" style="stop-color:#427D8D"/>
			</linearGradient>
			<path class="st14" d="M475.2,149.8c6.2,6.6,3.7,17.5-4.9,20.7c-9.7,3.6-21.8,5.7-35,5.7c-14.8,0-28.1-2.7-38.4-7.1
				c-8-3.4-10.5-13.6-4.7-20.2C414.8,124,454.3,127.3,475.2,149.8z"/>
			
				<linearGradient id="SVGID_7_" gradientUnits="userSpaceOnUse" x1="384.4735" y1="176.3813" x2="391.2216" y2="138.1106" gradientTransform="matrix(1 0 0 1 0 38)">
				<stop  offset="0" style="stop-color:#235977"/>
				<stop  offset="1" style="stop-color:#427D8D"/>
			</linearGradient>
			<path class="st15" d="M420.4,195.7c2.9,0,4.5,3.4,2.5,5.6c-6.3,7-20.9,11.9-38,11.9c-9,0-17.3-1.4-24.1-3.7
				c-9.3-3.2-12.6-14.4-6.5-22.1c5.9-7.6,14.9-12.7,24.8-13.4c-0.2,0.6-0.2,1.3-0.2,1.9C379,186.8,397.5,195.7,420.4,195.7
				C420.3,195.7,420.4,195.7,420.4,195.7z"/>
			
				<linearGradient id="SVGID_8_" gradientUnits="userSpaceOnUse" x1="468.2115" y1="191.846" x2="464.1641" y2="168.8925" gradientTransform="matrix(1 0 0 1 0 38)">
				<stop  offset="0" style="stop-color:#235977"/>
				<stop  offset="1" style="stop-color:#427D8D"/>
			</linearGradient>
			<path class="st16" d="M495.3,213.4c0,9.2-15.7,16.7-34.9,16.7c-8.4,0-16.2-1.5-22.2-3.8c-1.6-0.6-1.1-3,0.6-3c0.7,0,1.4,0,2.1,0
				c24.5,0,44.7-9.1,46.5-20.5C492.4,205.7,495.3,209.4,495.3,213.4z"/>
		</g>
	</g>
</g>
<g id="GarbageCan">
	<g id="can">
		<path class="st0" d="M336,508.4c0,0.2-1.6,17.6-1.6,22.5c0,2.8-5,5-11.2,5c-6.2,0-11.2-2.3-11.2-5l-1.7-22.5
			c0-3.4,5.8-6.2,12.9-6.2C330.2,502.3,336,505,336,508.4z"/>
		<path class="st1" d="M335.3,509L335.3,509c0,0.4-0.2,0.7-0.4,1.1c-0.4,0.5-1,1.1-1.2,1.3c-2.2,1.7-6.1,2.8-10.5,2.8
			c-4.6,0-8.7-1.2-10.9-3c-0.2-0.2-0.6-0.7-1-1.1c-0.2-0.3-0.4-0.6-0.4-1.1l0,0c0-3.2,5.4-5.8,12.2-5.8
			C329.9,503.2,335.3,505.8,335.3,509z"/>
		<path class="st12" d="M333.7,511.4c-2.2,1.7-6.1,2.8-10.5,2.8c-4.6,0-8.7-1.2-10.9-3c2.1-1.8,6.1-2.9,10.5-2.9
			C327.5,508.2,331.7,509.5,333.7,511.4z"/>
	</g>
	<g id="canLid">
		<path class="st0" d="M334.6,501.6l0.6,3.1c0.6,3.5-5.1,7.4-12.8,8.8c-7.7,1.4-14.4-0.3-15-3.7l-0.6-3.1c-0.6-3.5,5.1-7.4,12.8-8.8
			C327.3,496.5,334,498.2,334.6,501.6z"/>
		<path class="st2" d="M334.6,501.6c0.1,0.5,0.1,1.1-0.2,1.6c-1.1,3-6.2,6-12.7,7.1c-6.5,1.1-12.3,0.2-14.4-2.3
			c-0.3-0.4-0.6-0.9-0.7-1.5c-0.6-3.5,5.1-7.4,12.8-8.8C327.3,496.5,334,498.2,334.6,501.6z"/>
		<path class="st0" d="M323.3,501.6l0.1,0.6c0.2,0.7-1.1,1.5-2.8,1.9c-1.6,0.3-3.1-0.1-3.2-0.8l-0.1-0.6c-0.2-0.7,1.1-1.5,2.8-1.9
			C321.8,500.5,323.2,500.9,323.3,501.6z"/>
		<path class="st2" d="M323.3,501.6c0,0.1,0,0.2,0,0.3c-0.2,0.6-1.3,1.3-2.7,1.5c-1.4,0.2-2.6,0-3.1-0.5c-0.1-0.1-0.2-0.2-0.2-0.3
			c-0.2-0.7,1.1-1.5,2.8-1.9C321.8,500.5,323.2,500.9,323.3,501.6z"/>
	</g>
</g>
<g id="hole">
	<path id="hole" class="st1" d="M212.8,126.2c0,0.4-0.1,0.9-0.2,1.3c-0.2,0.5-0.6,1.1-1.1,1.5c-0.6,0.7-1.4,1.5-2.3,2.1
		c-4.6,3.5-12.8,5.8-22.1,5.8c-9.7,0-18.2-2.5-22.7-6.2c-0.6-0.6-1.2-1.1-1.7-1.7c-0.4-0.5-0.7-1-1.1-1.5c-0.1-0.4-0.2-0.9-0.2-1.3
		c0-6.7,11.4-12.2,25.5-12.2C201.3,114,212.8,119.4,212.8,126.2z"/>
	<path id="darkestBase_1_" class="st12" d="M209.4,131.1c-4.6,3.5-12.8,5.8-22.1,5.8c-9.7,0-18.2-2.5-22.7-6.2
		c4.4-3.6,12.7-6.2,22.1-6.2C196.6,124.5,205.1,127.2,209.4,131.1z"/>
	<g id="holeLadder">
		<path class="st5" d="M187.4,102.1c-0.9,0-1.6,0.7-1.6,1.6v8.3c0,0.6-0.3,1.2-1,1.4l-1.2,0.6l-7,3.4c-1,0.4-2.3-0.3-2.3-1.4v-3.6
			c0-0.9-0.6-1.6-1.6-1.6c-0.9,0-1.6,0.7-1.6,1.6v22c2.4,0.9,5,1.5,7.9,2l4.4-2.1c1-0.4,2.3,0.3,2.3,1.4v1.2c0,0.1,0,0.1,0,0.2
			c0.5,0,1,0,1.5,0c0.6,0,1.2,0,1.9,0v-33.2C189,102.9,188.3,102.1,187.4,102.1z M174.2,123c0.2-0.6,0.5-1.1,1-1.4l8.2-4
			c1-0.4,2.3,0.3,2.3,1.4v1.2c0,0.6-0.3,1.2-1,1.4l-8.2,4c-1,0.4-2.3-0.3-2.3-1.4V123z M185.7,128.5c-0.1,0.6-0.4,1.1-1,1.4l-8.2,4
			c-1,0.4-2.3-0.3-2.3-1.4v-1.2c0-0.6,0.3-1.2,1-1.4l8.2-4c1-0.4,2.3,0.3,2.3,1.4V128.5z"/>
	</g>
</g>
<g id="hole02">
	<path id="hole" class="st1" d="M1237.9,701c14.1,0,25.5,5.5,25.5,12.2c0,0.4-0.1,0.9-0.2,1.3c-0.3,0.6-0.6,1.1-1.1,1.5
		c-0.5,0.6-1.1,1.1-1.7,1.7c-4.5,3.7-13.1,6.2-22.7,6.2c-9.3,0-17.5-2.4-22.1-5.8c-0.9-0.6-1.6-1.4-2.3-2.1
		c-0.4-0.5-0.8-1.1-1.1-1.5c-0.1-0.4-0.2-0.9-0.2-1.3C1212.2,706.5,1223.7,701,1237.9,701z"/>
	<path id="darkestBase_1_" class="st12" d="M1238.3,711.6c9.5,0,17.8,2.5,22.1,6.2c-4.5,3.7-13.1,6.2-22.7,6.2
		c-9.3,0-17.5-2.4-22.1-5.8C1219.9,714.3,1228.5,711.6,1238.3,711.6z"/>
	<g id="holeLadder">
		<path class="st5" d="M1235.9,690.8v33.2c0.6,0,1.2,0,1.9,0c0.6,0,1.1,0,1.5,0c0-0.1,0-0.1,0-0.2v-1.2c0-1.1,1.3-1.8,2.3-1.4
			l4.4,2.1c2.9-0.5,5.6-1.1,7.9-2v-22c0-0.9-0.7-1.6-1.6-1.6c-1,0-1.6,0.7-1.6,1.6v3.6c0,1.1-1.3,1.8-2.3,1.4l-7-3.4l-1.2-0.6
			c-0.6-0.2-1-0.7-1-1.4v-8.3c0-0.9-0.7-1.6-1.6-1.6C1236.7,689.2,1236,689.9,1235.9,690.8z M1250.8,711.3c0,1.1-1.3,1.8-2.3,1.4
			l-8.2-4c-0.6-0.2-1-0.7-1-1.4v-1.2c0-1.1,1.3-1.8,2.3-1.4l8.2,4c0.5,0.3,0.8,0.8,1,1.4V711.3z M1239.3,714.3
			c0-1.1,1.3-1.8,2.3-1.4l8.2,4c0.6,0.2,1,0.7,1,1.4v1.2c0,1.1-1.3,1.8-2.3,1.4l-8.2-4c-0.6-0.2-0.9-0.7-1-1.4V714.3z"/>
	</g>
</g>
<g id="lampLeft_1_">
	<path id="lampLeft" class="st17" d="M191.2,375.3v-85.6c0-5.5,4.5-10.1,10.1-10.1h2c5.5,0,10.1,4.5,10.1,10.1l0,0"/>
	<ellipse class="st2" cx="218.1" cy="293.9" rx="10.6" ry="5.1"/>
	<ellipse class="st0" cx="218.1" cy="292.9" rx="10.6" ry="5.1"/>
	<ellipse class="st2" cx="222.4" cy="293.2" rx="6.2" ry="3"/>
</g>
<g id="lampRight">
	<path class="st18" d="M456.6,528.8v-85.6c0-5.5-4.5-10.1-10.1-10.1h-2c-5.5,0-10.1,4.5-10.1,10.1l0,0"/>
	<ellipse class="st5" cx="429.8" cy="446.3" rx="10.6" ry="5.1"/>
	<ellipse class="st2" cx="434.2" cy="446.7" rx="6.2" ry="3"/>
	<path class="st5" d="M456.6,505.5c-3.2,0-5.8,1.2-5.8,2.8v24.5c0,1.5,2.6,2.8,5.8,2.8s5.8-1.2,5.8-2.8v-24.5
		C462.4,506.8,459.8,505.5,456.6,505.5z"/>
</g>
<g id="dack">
	<path class="st19" d="M410.3,537.8c0,0.2,0,0.3,0,0.5c0,0.2,0.1,0.6,0.1,0.8l0,0c0.8,5.6,6.6,10.1,14,10.9c0.1,0,0.1,0,0.1,0
		c0.1,0.1,0.2,0.1,0.4,0.1c0.1,0,0.1,0,0.2,0c0.6,0.1,1.3,0.1,2,0.1c0.1,0,0.2,0,0.2,0l0,0c0.7,0,1.5-0.1,2.3-0.2h0.1
		c4.1-0.5,8-2.2,10.8-4.5c0.1-0.1,0.1-0.1,0.2-0.2l0,0l0,0c0.1-0.1,0.2-0.2,0.2-0.2c1.5-0.6,2.8-1.8,3.5-3.1l0,0
		c0.8-1.4,1.2-3,1.2-4.5c0-1.1-0.2-1.9-0.7-2.7c-0.1-0.2-0.2-0.2-0.3-0.4c-0.6-3.4-2.3-7.4-4.9-9.2c-1.2-0.8-2.8-1-4.5-0.9
		c0.2-0.8,0.3-1.7,0.3-2.7c0-6.2-5.4-11.4-11.9-11.4c-6.6,0-11.9,5.1-11.9,11.4c0,2.9,1.1,5.6,3.1,7.6c-0.3,0.2-0.6,0.6-0.9,0.8
		c-0.3,0.3-0.6,0.6-1,1.1C411.3,533,410.4,535.3,410.3,537.8z"/>
	<path class="st20" d="M413.1,531c0.2-0.3,0.6-0.7,1-1.1c0.2-0.2,0.6-0.6,0.9-0.8c2.2,2.3,5.4,3.7,8.8,3.7c4.2,0,7.9-2.1,10.1-5.3
		c-1.9,4.3-6.4,7.4-11.6,7.4c-1.1,0-2.3-0.2-3.5-0.6c-5.2-1.5-4.1,10.9,9.2,10.6c2.6-0.1,4.2-2.8,3.6-5.2c-0.1-0.1-0.1-0.2-0.1-0.2
		c-0.4-2,0.2-4.7,2.3-6.2c-0.6,0.8-0.8,1.8-0.8,2.8c0,2.8,1.9,5,4.7,6c0.9,0.3,1.9,0.5,2.8,0.5c1.5,0,2.9-0.3,4.1-1
		c0.1-0.1-1.2,2.6-3.8,3.4l0,0c-8.4,8.4-29.6,5.9-30.3-7.1l0,0l0,0c0-0.2,0-0.3,0-0.5C410.4,535.3,411.3,533,413.1,531z"/>
	<path class="st21" d="M417.4,524.1c-3.6,0-5.7,1.9-5.7,3c0,1.8,4.1,3.3,7.7,3.6c4.6,0.3,5.5-0.6,5.5-1.5
		C424.9,528,421,524.1,417.4,524.1z"/>
	<path d="M424.3,519.7c-1.2,0-2.2,1-2.3,2.2c0,1.2,1,2.2,2.2,2.2c0.4,0,0.9-0.2,1.2-0.4c0.3-0.2,0.2-0.8-0.3-0.8c-0.5,0-1-0.5-1-1
		c0-0.2,0.2-0.5,0.3-0.6c0.2-0.2,0.4-0.3,0.6-0.3h0.1c0.5,0,0.7-0.5,0.3-0.8C425.2,519.9,424.8,519.7,424.3,519.7L424.3,519.7z
		 M422.7,521.1c0-0.3,0.2-0.5,0.5-0.5c0.3,0,0.5,0.2,0.5,0.5s-0.2,0.5-0.5,0.5C423,521.6,422.7,521.3,422.7,521.1z"/>
	<path d="M416,518.6c-1.1,0-2.1,0.9-2,1.9c0,1.1,0.9,2,2,2c0.3,0,0.8-0.2,1.1-0.3c0.4-0.2,0.2-0.8-0.2-0.8c-0.4,0-0.9-0.4-0.9-0.9
		c0-0.2,0.1-0.4,0.2-0.6c0.2-0.2,0.5-0.2,0.6-0.2l0,0c0.4,0,0.6-0.6,0.2-0.8C416.8,518.7,416.5,518.6,416,518.6L416,518.6z
		 M414.6,519.9c0-0.2,0.2-0.4,0.4-0.4c0.2,0,0.4,0.2,0.4,0.4s-0.2,0.4-0.4,0.4C414.8,520.4,414.5,520.1,414.6,519.9z"/>
</g>
<g id="shoes">
	<g id="rightShoes">
		<path class="st0" d="M344.3,269.1c0.2-1.5-0.6-3.3-1.9-3.9l0,0c1.3-7.5-11.8-8.6-11.9-1.4c-0.1,3.2-1.3,5.7-1.3,7.3
			c0,4.5,1,5.3,2.8,6.3c0.6,0.3,1,1.1,1.1,1.9c0.8,3.3,5.3,5.8,8.5,5.8c7.1,0,8.7-3.8,8.7-7.2c0-2.8-1.9-5.1-4.6-6.3
			C345,271.6,344,270.7,344.3,269.1z"/>
		<path class="st2" d="M340.7,262.1c0,0.2-0.2,0.6-0.4,0.7c-0.2,0.2-0.5,0.4-0.9,0.6c-0.2,0.1-0.3,1.1-0.5,1.9
			c-0.1,0.5-0.2,0.9-0.4,0.9s-0.4-0.3-0.6-0.7c-0.4-0.6-0.9-1.6-1.2-1.6c-1.5-0.1-2.9-0.6-3.5-1.3c-0.2-0.2-0.4-0.6-0.4-0.9
			c0.1-1.1,1.9-1.9,4.1-1.7C339,260.1,340.7,261.1,340.7,262.1z"/>
		<path class="st22" d="M341.6,266.9l-4.5,0.5c-0.4,0-0.7,0.4-0.6,0.8l0,0c0,0.4,0.4,0.7,0.8,0.6l3.6-0.4c0.4-0.1,0.7,0.2,0.8,0.6
			v0.1c0.1,0.4-0.2,0.7-0.6,0.8l-4.5,0.6"/>
		<path class="st2" d="M342.1,283.4c-3.2,0-7.8-2.5-8.6-5.8c-0.2-0.9-0.6-1.7-1.1-2c-1.8-1.1-2.8-1.8-2.8-6.4c0-0.2,0-0.3,0.1-0.5
			c-0.3,1.1-0.6,1.9-0.6,2.7c0,4.5,1,5.3,2.8,6.3c0.6,0.3,1,1.1,1.1,1.9c0.8,3.3,5.3,5.8,8.5,5.8c6.3,0,8.5-2.8,8.7-7.2
			C349.3,281.2,346.9,283.4,342.1,283.4z"/>
		<path class="st1" d="M340.3,263c-0.2,0.2-0.6,0.3-0.9,0.6c-0.2,0.2-0.5,2.8-0.9,2.8c-0.5,0.1-1.4-2.3-1.9-2.4
			c-1.5-0.2-2.9-0.6-3.5-1.3c0.6-0.6,2.1-1.1,3.7-1C338.3,261.7,339.6,262.2,340.3,263z"/>
		<ellipse class="st23" cx="344.3" cy="275.5" rx="3.7" ry="2.1"/>
	</g>
	<g id="leftShoes">
		<path class="st0" d="M305.7,269.1c-0.2-1.5,0.6-3.3,1.9-3.9l0,0c-1.3-7.5,11.8-8.6,11.9-1.4c0.1,3.2,1.3,5.7,1.3,7.3
			c0,4.5-1,5.3-2.8,6.3c-0.6,0.3-1,1.1-1.1,1.9c-0.8,3.3-5.3,5.8-8.5,5.8c-7.1,0-8.7-3.8-8.7-7.2c0-2.8,1.9-5.1,4.6-6.3
			C305.1,271.5,306,270.7,305.7,269.1z"/>
		<path class="st2" d="M309.4,262.1c0,0.2,0.2,0.6,0.4,0.7c0.2,0.2,0.5,0.4,0.9,0.6c0.2,0.1,0.3,1.1,0.5,1.9
			c0.1,0.5,0.2,0.9,0.4,0.9s0.4-0.3,0.6-0.7c0.4-0.6,0.9-1.6,1.2-1.6c1.5-0.1,2.9-0.6,3.5-1.3c0.2-0.2,0.4-0.6,0.4-0.9
			c-0.1-1.1-1.9-1.9-4.1-1.7C311.1,260,309.3,261,309.4,262.1z"/>
		<path class="st22" d="M308.4,266.8l4.5,0.5c0.4,0,0.7,0.4,0.6,0.8l0,0c0,0.4-0.4,0.7-0.8,0.6l-3.6-0.4c-0.4-0.1-0.7,0.2-0.8,0.6
			v0.1c-0.1,0.4,0.2,0.7,0.6,0.8l4.5,0.6"/>
		<path class="st2" d="M307.8,283.3c3.2,0,7.8-2.5,8.6-5.8c0.2-0.9,0.6-1.7,1.1-2c1.8-1.1,2.8-1.8,2.8-6.4c0-0.2,0-0.3-0.1-0.5
			c0.3,1.1,0.6,1.9,0.6,2.7c0,4.5-1,5.3-2.8,6.3c-0.6,0.3-1,1.1-1.1,1.9c-0.8,3.3-5.3,5.8-8.5,5.8c-6.3,0-8.5-2.8-8.7-7.2
			C300.7,281.1,303,283.3,307.8,283.3z"/>
		<path class="st1" d="M309.8,262.9c0.2,0.2,0.6,0.3,0.9,0.6c0.2,0.2,0.5,2.8,0.9,2.8c0.5,0.1,1.4-2.3,1.9-2.4
			c1.5-0.2,2.9-0.6,3.5-1.3c-0.6-0.6-2.1-1.1-3.7-1C311.7,261.7,310.3,262.2,309.8,262.9z"/>
		<ellipse class="st23" cx="311" cy="275.8" rx="3.2" ry="1.9"/>
	</g>
</g>
<g id="deskTop">
	<polygon class="st1" points="263.3,470.5 263.3,502.3 242.8,492.4 242.8,460.6 	"/>
	<polygon class="st3" points="247.7,451.4 248.1,468.9 236.6,463.8 236.4,446.2 	"/>
	<g>
		<polygon class="st2" points="242.1,507.9 207.9,524.2 184.3,512.9 218.5,496.5 		"/>
		<polygon class="st1" points="207.9,552.5 207.9,552.5 207.9,524.2 242.1,507.9 242.1,536.1 238.6,537.7 218.5,528.1 218.5,522.9 
			211.4,526.4 211.4,550.8 		"/>
		<polygon class="st0" points="207.9,552.5 207.9,552.5 207.9,552.5 207.9,524.2 207.9,524.2 184.3,512.9 184.3,541.2 		"/>
		<polygon class="st3" points="238.6,537.7 211.4,550.8 211.4,526.4 218.5,522.9 218.5,528.1 		"/>
	</g>
	
		<linearGradient id="SVGID_9_" gradientUnits="userSpaceOnUse" x1="215.5656" y1="474.6977" x2="206.2711" y2="458.5992" gradientTransform="matrix(1 0 0 1 0 38)">
		<stop  offset="0" style="stop-color:#235977"/>
		<stop  offset="1" style="stop-color:#204D6A"/>
	</linearGradient>
	<path class="st24" d="M222,507.9c-1.9-0.7-5.5-2-7.8-2.8c-1.2-0.4-1.9-1.6-1.7-2.9l1.2-7.5l-8.6,2.6l-1.5,9.3
		c-0.2,1.2,0.2,2.5,1.1,3.4l4.1,4.2c0.4,0.4,1.1,0.6,1.6,0.3l11.7-5.6C222.6,508.7,222.6,508,222,507.9z"/>
	<path class="st0" d="M229.8,457.7v32.5c0,1.9-1.1,3.6-2.8,4.5l-38.4,18.5c-2.4,1.1-5.2-0.6-5.2-3.2v-30.3c0-2.8,1.6-5.4,4.1-6.6
		l37.7-18.2C227.4,453.9,229.8,455.3,229.8,457.7z"/>
	<path class="st0" d="M231.9,508.8l-1.2,0.6c-0.6,0.2-1.2,0.2-1.8,0l-2.8-1.3c-1.2-0.6-1.2-2.4,0-2.9l0.6-0.3c0.8-0.4,1.8-0.4,2.7,0
		l2.4,1.2C233.1,506.5,233.1,508.2,231.9,508.8z"/>
	<path class="st25" d="M226.8,505.3c-2.5-1.3-6.2,1-7.4,0c-1.1-0.9,1.4-2.5,0.6-3.2c-0.7-0.6-7.1,1.9-7.1,1.9"/>
	<g>
		<path class="st0" d="M213.3,509.6c0-1.5-2.5-2.7-5.6-2.7s-5.6,1.2-5.6,2.7v9.9c0,0.4,0.2,0.7,0.4,1.1c0.1,0.1,0.2,0.2,0.2,0.2
			c1,0.8,2.8,1.4,5,1.4c2,0,3.8-0.5,4.9-1.3c0.1-0.1,0.2-0.2,0.3-0.3c0.2-0.2,0.4-0.6,0.4-1.1C213.3,517.4,213.3,509.7,213.3,509.6z
			"/>
		<path class="st1" d="M213.1,509.8L213.1,509.8c0,0.2-0.1,0.3-0.2,0.5c-0.2,0.2-0.4,0.5-0.6,0.6c-1,0.7-2.7,1.2-4.6,1.2
			c-2,0-3.8-0.5-4.7-1.3c-0.1-0.1-0.3-0.3-0.4-0.5c-0.1-0.2-0.2-0.3-0.2-0.5l0,0c0-1.4,2.4-2.5,5.4-2.5
			C210.8,507.3,213.1,508.4,213.1,509.8z"/>
		<path class="st12" d="M212.4,510.9c-1,0.7-2.7,1.2-4.6,1.2c-2,0-3.8-0.5-4.7-1.3c0.9-0.7,2.7-1.3,4.6-1.3
			C209.7,509.5,211.5,510.1,212.4,510.9z"/>
		<path class="st2" d="M209.9,509.1c-0.3,0-0.6,0.1-1,0.1c-0.1,0-0.2,0-0.2-0.1c-1-0.9-3.3,0.5-1.1,0.6c0.2,0,0.2,0.1,0.2,0.2
			c0,0.6,1.1,0.8,2,0.8C212.4,510.9,212.6,509.1,209.9,509.1z"/>
		<path class="st0" d="M215.5,514.9v3.2c0,1.1-1.2,1.9-2.2,1.4l-1.2-0.6c-0.6-0.3-0.6-1.2,0-1.5l0,0c0.2-0.1,0.5-0.1,0.7,0l0.4,0.2
			c0.2,0.1,0.3,0,0.3-0.2v-1.8l0,0c0-0.2-0.2-0.4-0.3-0.5l-1.1-0.6c-0.6-0.3-0.6-1.3,0-1.6l0,0c0.2-0.1,0.6-0.1,0.8,0l1.9,0.9
			C215.3,513.9,215.5,514.4,215.5,514.9z"/>
	</g>
</g>
<g id="kBoy">
	<path class="st1" d="M243.2,387.8c-0.2,0-0.8-0.2-0.9-0.2c-1.2-2.2-3.6-4.1-7.1-5.5c-1.1-0.5-2.4-1-3.8-1.4
		c-3.6-1.1-7.9-1.6-12.5-1.6c-4.9,0-9.3,0.6-13.1,1.9c-1.1,0.3-2.2,0.7-3.1,1.1c-4.6,1.9-7.7,4.9-7.7,8.4c0,1,0.2,1.9,0.6,2.8
		c0.5,0.9,1.1,1.8,2,2.6c3.2,2.9,8.8,5.1,15.7,5.9c-0.2,0.2-0.2,0.5-0.2,0.7c0,1.6,2.8,3,6.2,3c3.4,0,6.2-1.4,6.2-3
		c0-0.2-0.1-0.6-0.2-0.8c5.8-0.7,10.7-2.4,13.9-4.8c0.5-0.3,0.9-0.6,1.3-1.1c0.6-0.6,1.2-1.3,1.6-1.9c0.3,0,0.6,0.1,1.1,0.1
		c3.4,0,6.2-1.4,6.2-3C249.4,389.2,246.6,387.8,243.2,387.8z"/>
	<path class="st12" d="M206,386.2c0.8-0.2,1.7-0.5,2.6-0.7c3.2-0.8,6.8-1.2,10.6-1.2c3.6,0,6.9,0.4,10,1.1l0,0
		c1.1,0.2,2.2,0.5,3.2,0.8c2.2,0.6,4.1,1.5,5.8,2.5c1.8,1.1,3.1,2.3,4,3.6c0.2,0.2,0.3,0.6,0.5,0.8c-0.1,0.1-0.1,0.2-0.2,0.3
		c-0.4,0.8-1.1,1.5-1.8,2.3c-0.4,0.4-0.8,0.7-1.3,1.1c-4.3,3.2-11.7,5.2-20.1,5.2c-9.3,0-17.4-2.5-21.4-6.2c-0.9-0.8-1.5-1.7-2-2.6
		C197.2,390.2,200.9,387.8,206,386.2z"/>
	<path class="st6" d="M239.3,391.8c-0.3-0.6-0.7-1.1-1.2-1.5c-0.2-0.3-0.6-0.6-0.9-0.8c-1.4-1-3.1-1.6-4.9-1.6V385
		c0.4-0.6,0.8-1.4,1.1-2.1c0.1,0,0.2,0,0.2,0c0.6,0,1.2-0.5,1.7-1.3c0.6-1.1,1.1-2.8,1.1-4.9c0-3.4-1.2-6.1-2.8-6.1
		c-0.1,0-0.2,0-0.2,0c-2.4-5.6-7.9-9.5-14.3-9.5s-11.9,3.9-14.3,9.5c-0.1,0-0.2,0-0.2,0c-1.5,0-2.8,2.8-2.8,6.1
		c0,1.9,0.4,3.7,1.1,4.9c0.5,0.8,1.1,1.3,1.7,1.3c0.1,0,0.2,0,0.2,0c0.3,0.7,0.6,1.5,1.1,2.1v2.8c-4.4,0.1-7.9,3.4-8.3,7.7
		c4,3.7,12.1,6.2,21.4,6.2c8.4,0,15.8-2,20.1-5.2l0,0c0.5-0.3,0.9-0.6,1.3-1.1c0.7-0.7,1.4-1.5,1.8-2.3
		C242.5,393.4,239.4,391.8,239.3,391.8z"/>
	
		<radialGradient id="SVGID_10_" cx="394.7266" cy="339.0195" r="13.3042" gradientTransform="matrix(-1 0 0 1 613.8 38)" gradientUnits="userSpaceOnUse">
		<stop  offset="0" style="stop-color:#FBB03B"/>
		<stop  offset="1" style="stop-color:#F7931E"/>
	</radialGradient>
	<path class="st26" d="M206,374.6c0.2-0.9,0.4-1.7,0.7-2.5c2-4.9,6.8-8.4,12.4-8.4c0.4,0,0.9,0,1.4,0.1c0.5,0.1,1,0.2,1.5,0.2
		c0.9,0.2,1.7,0.5,2.5,0.8c0.6,0.2,1.1,0.5,1.5,0.8c3.6,2.2,6.1,6,6.4,10.5c0,0.3,0,0.6,0,1c0,4.8-2.6,9-6.4,11.4
		c-2,1.2-4.4,1.9-6.9,1.9c-7.4,0-13.3-5.9-13.3-13.3C205.8,376.2,205.9,375.4,206,374.6z"/>
	
		<linearGradient id="SVGID_11_" gradientUnits="userSpaceOnUse" x1="388.2527" y1="-15.8751" x2="400.5792" y2="-15.8751" gradientTransform="matrix(-1 0 0 -1 613.8 386)">
		<stop  offset="0" style="stop-color:#FFFFFF"/>
		<stop  offset="1" style="stop-color:#EEF2F4"/>
	</linearGradient>
	<ellipse class="st27" cx="219.3" cy="401.9" rx="6.2" ry="3"/>
	
		<linearGradient id="SVGID_12_" gradientUnits="userSpaceOnUse" x1="364.4107" y1="-4.4407" x2="376.8183" y2="-4.4407" gradientTransform="matrix(-1 0 0 -1 613.8 386)">
		<stop  offset="0" style="stop-color:#FFFFFF"/>
		<stop  offset="1" style="stop-color:#EEF2F4"/>
	</linearGradient>
	<path class="st28" d="M237.2,389.6c0.2-0.3,0.5-0.6,0.9-0.9c1-0.7,2.5-1.2,4.3-1.3c0.2,0,0.6,0,0.8,0c3.4,0,6.2,1.4,6.2,3
		c0,1.6-2.8,3-6.2,3c-0.1,0-0.2,0-0.3,0c-0.2,0-0.4,0-0.6,0c-0.9,0-1.7-0.2-2.4-0.4c-0.5-0.2-0.9-0.4-1.3-0.6
		c-1.1-0.6-1.6-1.2-1.6-2C236.9,390.1,237,389.9,237.2,389.6z"/>
	<path class="st29" d="M223.7,366.6c0,2.1-2,3.8-4.5,3.8s-4.5-1.7-4.5-3.8c0-1,0.4-1.9,1.1-2.5l0,0c1.1-0.2,2.2-0.4,3.3-0.4
		c0.4,0,0.9,0,1.4,0.1c0.5,0.1,1,0.2,1.5,0.2c0.2,0,0.3,0.1,0.5,0.1C223.2,364.7,223.7,365.6,223.7,366.6z"/>
	<path class="st30" d="M232.4,376.1v1c0,4.8-2.6,9-6.4,11.4c-2,1.2-4.4,1.9-6.9,1.9c-2.6,0-5-0.7-7.1-2c-0.2-0.7-0.2-1.5-0.2-2.3
		c0-7.3,6.1-13.2,13.5-13.2c2.5,0,4.9,0.6,6.9,1.9C232.3,375,232.4,375.5,232.4,376.1z"/>
</g>
<g id="flash">
	<path id="flashLightLeft" class="st31" d="M250.9,392c0,0.4-0.1,0.9-0.2,1.3c-1.6,5.4-7.5,8.3-12.4,10.1
		c-14.4,5.3-46.7,4.9-50.4-12.1c2.8-15.7,16.4-81.2,19.2-95.4c2.6,5.1,19.5,5.1,22.1-0.1C232.3,310.2,246.6,373,250.9,392L250.9,392
		z"/>
	<path id="flashLightRight" class="st31" d="M460,544.8c-2.3,19.5-58.5,20.7-63,0.6c4.2-18.9,18.5-81.4,21.7-95.9
		c2.7,5,19.4,5,22.1,0.1C443.7,464.1,457.1,529.1,460,544.8z"/>
	<path id="flashScreen" class="st12" d="M227.9,459.2v24.9c0,1.3-0.7,2.4-1.9,3l-37.3,18.2c-0.7,0.3-1.5-0.2-1.5-1v-25.2
		c0-1.8,1-3.4,2.6-4.1l35.6-17.3C226.5,457.1,227.9,457.9,227.9,459.2z"/>
</g>
<g id="kentoSato">
	<path class="satoken" d="M152.3,203.6c1,1.1,1.6,2.4,1.9,3.7c0.2,1.3,0,2.3-0.7,3c-3.8,3.8-5.7,5.8-9.5,9.6c3.7,7.4,5.6,11.1,9.2,18.5
		c0.6,1.3,0.9,2.5,0.6,3.6c-0.2,1.1-0.9,1.7-1.9,1.9c-0.7,0.2-1.5,0-2.4-0.5c-1.5-0.7-2.8-1.9-3.6-3.7c-3.8-7.7-5.8-11.5-9.7-19.2
		c-3.9-1.9-5.8-2.8-9.7-4.6c0,4.9,0,7.3,0,12.1c0,1.2-0.4,2.1-1.3,2.5c-0.9,0.5-1.9,0.4-3.1-0.2s-2.3-1.5-3.1-2.8
		c-0.9-1.3-1.3-2.5-1.3-3.7c0-11,0-22.1,0-33.1c0-1.2,0.4-2,1.3-2.5s1.9-0.4,3.2,0.2s2.3,1.5,3.1,2.8c0.9,1.3,1.3,2.5,1.3,3.7
		c0,4.9,0,7.3,0,12.1c3.9,1.9,5.8,2.8,9.7,4.7c3.9-4,5.8-5.9,9.8-9.9c0.6-0.7,1.6-0.9,2.8-0.6C150.2,201.7,151.3,202.5,152.3,203.6z
		"/>
	<path class="satoken" d="M164.9,250.9c-1.2-0.6-2.3-1.5-3.1-2.8c-0.8-1.3-1.3-2.5-1.3-3.7c0.1-10.9,0.2-22,0.3-32.9
		c0-1.2,0.5-2,1.3-2.5c0.9-0.5,1.9-0.4,3.2,0.2c9.2,4.4,18.4,8.8,27.7,13.2c1.2,0.6,2.3,1.5,3.2,2.8c0.8,1.3,1.3,2.5,1.2,3.7
		c0,1.2-0.5,2-1.3,2.5c-0.9,0.4-1.9,0.3-3.2-0.2c-7.7-3.7-15.5-7.5-23.2-11.1c0,3.1-0.1,4.6-0.1,7.7c7.1,3.4,10.6,5.1,17.7,8.4
		c1.2,0.6,2.3,1.5,3.2,2.8c0.9,1.3,1.3,2.5,1.2,3.7c0,1.2-0.5,2-1.3,2.5c-0.9,0.4-1.9,0.3-3.2-0.2c-7.1-3.4-10.6-5.1-17.7-8.4
		c0,3.1-0.1,4.6-0.1,7.7c7.7,3.7,15.5,7.4,23.2,11.1c1.2,0.6,2.3,1.5,3.2,2.8c0.9,1.3,1.3,2.5,1.2,3.7c0,1.2-0.5,2.1-1.3,2.5
		c-0.9,0.4-1.9,0.3-3.2-0.2C183.3,259.6,174.2,255.3,164.9,250.9z"/>
	<path class="satoken" d="M207,229.3c0.9,0.1,1.8,0.5,2.7,1.1c0.9,0.6,1.6,1.5,2.3,2.5c6.5,11,13.1,22.1,19.5,33.2
		c0.1-8.4,0.2-12.5,0.2-20.8c0-1.2,0.5-2,1.3-2.5c0.9-0.5,1.9-0.4,3.2,0.2c1.2,0.6,2.3,1.5,3.2,2.8c0.8,1.3,1.3,2.5,1.3,3.7
		c-0.2,10.9-0.2,22-0.4,32.9c0,0.9-0.3,1.6-0.8,2.1c-0.6,0.5-1.2,0.7-2.1,0.6c-0.5-0.1-1-0.2-1.5-0.5c-1.4-0.6-2.5-1.7-3.4-3.2
		c-6.5-11-13.1-22.1-19.5-33.2c-0.1,8.4-0.2,12.5-0.2,20.8c0,1.2-0.5,2-1.3,2.5c-0.9,0.4-1.9,0.4-3.2-0.2c-1.2-0.6-2.3-1.5-3.2-2.8
		c-0.8-1.3-1.3-2.5-1.2-3.7c0.2-10.9,0.2-22,0.4-32.9c0-0.9,0.3-1.6,0.8-2.1C205.4,229.5,206.1,229.2,207,229.3z"/>
	<path class="satoken" d="M250.5,258.7c-1.2-0.6-2.3-1.5-3.2-2.8c-0.9-1.3-1.3-2.5-1.3-3.7c0-1.2,0.5-2,1.3-2.5c0.9-0.5,1.9-0.4,3.2,0.2
		c9.2,4.5,18.4,8.8,27.7,13.3c1.2,0.6,2.3,1.5,3.2,2.8c0.9,1.3,1.3,2.5,1.3,3.7s-0.5,2-1.3,2.5c-0.9,0.4-1.9,0.3-3.2-0.2
		c-3.7-1.8-5.7-2.7-9.4-4.5c-0.1,9.6-0.2,19.1-0.2,28.6c0,1.2-0.5,2-1.3,2.5c-0.9,0.4-1.9,0.4-3.2-0.2c-1.2-0.6-2.3-1.5-3.2-2.8
		c-0.9-1.3-1.3-2.5-1.3-3.7c0.1-9.6,0.2-19.1,0.3-28.6C256.1,261.4,254.2,260.5,250.5,258.7z"/>
	<path class="satoken" d="M333.9,323.1c1.1,0.5,1.9,0.6,2.8,0.2c0.7-0.4,1.1-1.1,1.1-2.2s-0.4-2.2-1.1-3.2c-0.7-1.1-1.6-1.9-2.8-2.4
		c-4.5-2.1-6.6-3.2-11-5.4c-3.5-1.7-6.5-4.4-9-8c-2.4-3.6-3.7-7.2-3.6-10.8c0-3.5,1.3-5.8,3.8-7.1s5.5-1.1,9,0.6
		c7.7,3.7,11.6,5.6,19.3,9.2c1.2,0.6,2.3,1.5,3.2,2.8c0.9,1.3,1.3,2.5,1.3,3.7s-0.4,2-1.3,2.5c-0.9,0.4-1.9,0.4-3.2-0.2
		c-7.7-3.7-11.6-5.6-19.3-9.3c-1.1-0.5-1.9-0.6-2.8-0.2c-0.7,0.4-1.1,1.1-1.1,2.2c0,1.1,0.4,2.2,1.1,3.3s1.6,1.9,2.8,2.4
		c4.5,2.1,6.6,3.2,11,5.4c3.5,1.7,6.5,4.4,9,8c2.5,3.6,3.7,7.3,3.7,10.8c0,3.5-1.3,5.9-3.7,7.2c-2.5,1.3-5.5,1.1-9-0.6
		c-7.8-3.7-11.6-5.6-19.4-9.3c-1.2-0.6-2.3-1.5-3.2-2.8c-0.9-1.3-1.3-2.5-1.3-3.7c0-1.2,0.4-2,1.3-2.5c0.9-0.4,1.9-0.4,3.2,0.2
		C322.2,317.5,326.1,319.4,333.9,323.1z"/>
	<path class="satoken" d="M391.4,353.2c-5.5-13.7-11-27.4-16.5-41.1c-0.4-1-0.9-1.8-1.6-2.6c-0.7-0.8-1.5-1.4-2.4-1.8
		c-0.9-0.4-1.6-0.6-2.4-0.5c-0.7,0.2-1.2,0.5-1.6,1.1c-5.5,8.4-11.1,16.8-16.6,25.2c-0.6,0.8-0.6,1.9-0.2,3.2
		c0.3,1.4,1.1,2.6,2.2,3.6c1.1,1.1,2.3,1.7,3.6,1.8c1.2,0.2,2-0.2,2.6-1c1.1-1.8,1.8-2.7,2.9-4.5c7.8,3.7,11.7,5.6,19.4,9.3
		c1.1,2.8,1.7,4.3,2.9,7.2c0.3,0.9,0.9,1.8,1.6,2.6c0.6,0.8,1.5,1.4,2.3,1.8c0.6,0.3,1.3,0.5,1.9,0.5c1.1,0,1.8-0.5,2.2-1.5
		S392,354.6,391.4,353.2z M365.6,330.1c2.1-3.2,3.2-4.8,5.3-8c2.1,5.2,3.2,7.8,5.3,13.1C371.9,333.1,369.8,332.1,365.6,330.1z"/>
	<path class="flashT" d="M390.1,325.9c-1.2-0.6-2.3-1.5-3.2-2.8c-0.9-1.3-1.3-2.5-1.3-3.7c0-1.2,0.4-2,1.3-2.5c0.9-0.5,1.9-0.4,3.2,0.2
		c9.2,4.4,18.3,8.8,27.4,13.2c1.2,0.6,2.3,1.5,3.2,2.8c0.9,1.3,1.3,2.5,1.3,3.7c0,1.2-0.4,2-1.3,2.5c-0.9,0.4-1.9,0.4-3.1-0.2
		c-3.7-1.8-5.6-2.7-9.3-4.5c0,9.6,0,19.1,0.1,28.8c0,1.2-0.4,2.1-1.3,2.5c-0.9,0.5-1.9,0.4-3.1-0.2s-2.3-1.5-3.2-2.8
		c-0.9-1.3-1.3-2.5-1.3-3.7c0-9.6,0-19.1-0.1-28.8C395.7,328.6,393.9,327.7,390.1,325.9z"/>
	<path class="satoken" d="M458.4,356.1c-4.1-6-8.9-10.5-14.7-13.2c-5.7-2.8-10.6-3.1-14.7-0.9c-4.1,2.1-6.1,6.1-6.1,11.9
		c0,5.8,2,11.8,6.1,17.8c4.1,6.1,9,10.5,14.7,13.2c5.8,2.8,10.6,3.1,14.7,0.9s6.1-6.2,6.1-11.9C464.5,368.1,462.5,362.1,458.4,356.1
		z M452.3,376.4c-2.4,1.3-5.2,1.1-8.5-0.5c-3.3-1.5-6.2-4.1-8.5-7.6c-2.4-3.5-3.6-7-3.6-10.3s1.1-5.7,3.5-6.9
		c2.4-1.3,5.2-1.1,8.5,0.5c3.3,1.6,6.2,4.1,8.5,7.7c2.4,3.6,3.6,7,3.6,10.3C455.8,373,454.7,375.3,452.3,376.4z"/>
</g>
<g id="logoMark">
	<path class="line" d="M995,333c-1.5-4.8-5.5-9.2-9.8-11.3c16.7-67.9-80.9-93.3-99.6-26.3c-15.6,1-28.6,13.8-29.5,29.7
		c-1.3,18,13.4,34.1,31.8,33.9h18.3c19.8,0.9,15.8,13,22.6,13c6.7,0,2.4-12,22.3-13h25.2C989.6,359.1,999.2,345.5,995,333z"/>
	<path class="line" d="M951.3,364.5c-18.7,0-12.3,13.1-22.5,13.1c-10.2,0-4.2-13.1-22.5-13.1h-0.2c-9.5,0-17.2,7.7-17.2,17.2
		c0,2.8,2.2,5,5,5h69.6c2.8,0,5-2.2,5-5C968.4,372.2,960.7,364.5,951.3,364.5z"/>
</g>
<g id="bonsai">
	<path class="line" d="M1096.6,488.6h-2.7c-2.5,0-4.5-2-4.5-4.5v-48.9c0-2.5,2-4.5,4.5-4.5h2.7c2.5,0,4.5,2,4.5,4.5v48.9
		C1101.1,486.6,1099,488.6,1096.6,488.6z"/>
	<path class="line" d="M932.1,465.5v4.5c0,3.7-3,7-6.8,6.9c-1.7,0-3.3-0.8-4.5-1.9c-1.1-1.1-1.9-2.7-1.9-4.4c0,0,0-21.9,0-22
		c-0.2-7.6-5-14-11.7-16.6c-2-0.8-4.3-1.2-6.6-1.2c-10.1,0-18.3,8.2-18.3,18.3v33.8c0,3.2,2.6,5.8,5.8,5.8l0,0
		c3.2,0,5.8-2.6,5.8-5.8v-33.5c0-3.8,3.1-7,6.8-6.9c1.7,0.1,3.3,0.8,4.4,1.9c1.1,1.1,1.9,2.7,1.9,4.4c0,0,0,21.9,0,22.1
		c0.2,7.6,5,14,11.7,16.6c2.2,0.9,4.6,1.3,7,1.2c10-0.2,17.8-8.8,17.8-18.8v-4.3c0-3.2-2.6-5.8-5.8-5.8l0,0
		C934.8,459.7,932.1,462.3,932.1,465.5z"/>
	<path class="line" d="M807.3,447.2c0-9.8-7.9-17.7-17.7-17.7h-13.7c-13.8,0-25.1,11.2-25.1,25.1v8.9c0,13.8,11.2,25.1,25.1,25.1
		h13.2c9.7,0,17.9-7.6,18.2-17.2c0.1-4.7-1.7-9.1-4.6-12.3C805.6,456,807.3,451.8,807.3,447.2L807.3,447.2z M774.5,441.3h14.9
		c3.1,0,5.9,2.3,6.2,5.4c0.3,3.6-2.5,6.6-5.9,6.6h-27.1l0,0C762.6,446.6,767.9,441.3,774.5,441.3z M789.4,476.9l-14.9,0
		c-6.6,0-12-5.4-12-12l0,0h27.1c3.5,0,6.3,3,5.9,6.6C795.3,474.7,792.5,476.9,789.4,476.9z"/>
	<path class="line" d="M993.5,471.2c0-1.6-0.6-3-1.7-4c-0.9-0.9-2.1-1.5-3.5-1.6c0,0-27.8,0-28.1,0c-7.2-0.4-13.3-5.1-15.5-11.7
		c-0.6-1.8-1-3.7-1-5.7c0-4.8,1.9-9.2,5.1-12.3c3.2-3.2,7.5-5.1,12.3-5.1h38.1c3.2,0,5.8,2.6,5.8,5.8v0c0,3.2-2.6,5.8-5.8,5.8h-38.1
		c-3.2,0-5.7,2.6-5.7,5.7c0,1.6,0.6,3,1.7,4c0.9,0.9,2.1,1.5,3.5,1.6c0,0,27.8,0,28.1,0c7.2,0.4,13.3,5.1,15.6,11.7
		c0.6,1.8,0.9,3.7,0.9,5.7c0,4.8-1.9,9.2-5.1,12.3c-3.2,3.2-7.5,5.1-12.3,5.1l-7.4,0.1c-3.2,0-5.9-2.6-5.9-5.8v0
		c0-3.2,2.6-5.8,5.8-5.8l7.5-0.1C990.9,476.9,993.5,474.4,993.5,471.2z"/>
	<path class="line" d="M1081.1,478.6c-2.8-3.6-9.7,0.5-10.1-3.9c0,0,0-14.7,0-14.7c0.3-25.6-31-39.8-50-23.3
		c-14.6,11.8-13.8,34.1,0.8,45.3v0c5.2,6,33.9,12.4,30.3-2.1v0c-1.7-4.7-6.7-3.7-10.6-3.1c-24.5,0-26.3-33.1-1.9-35.6
		c10.7-0.5,19.5,8,19.6,18.6v16.9c0,6.4,5.2,11.8,11.8,11.8c0,0,5.8,0,5.8,0C1082,488.8,1084.8,482.1,1081.1,478.6z"/>
	<path class="line" d="M863,434.9c-5.2-4.1-11.7-6.5-18.7-6.5s-13.6,2.4-18.7,6.5c-1,0.8-1.9,1.6-2.8,2.4c-5.4,5.4-8.8,12.9-8.9,21.2
		c0.1,9.6,4.6,18.1,11.7,23.6c5.2,4.1,11.7,6.5,18.7,6.5s13.6-2.4,18.7-6.5c1-0.8,1.9-1.6,2.8-2.4c5.4-5.4,8.8-12.9,8.9-21.2
		C874.5,448.9,870,440.4,863,434.9z M844.2,476.9c-5.2,0-9.9-2.1-13.2-5.5c-3.3-3.3-5.4-7.9-5.5-12.9c0.2-10.2,8.5-18.4,18.7-18.4
		c5.2,0,9.9,2.1,13.2,5.5c3.3,3.3,5.4,7.9,5.5,13C862.8,468.7,854.5,476.9,844.2,476.9z"/>
</g>
</svg>
