<?xml version="1.0" encoding="utf-8"?>
<!-- Generator: Adobe Illustrator 24.0.3, SVG Export Plug-In . SVG Version: 6.00 Build 0)  -->
<svg version="1.1" id="mainVisual" xmlns="http://www.w3.org/2000/svg" xmlns:xlink="http://www.w3.org/1999/xlink" x="0px" y="0px"
	 viewBox="0 0 730 1081.3" style="enable-background:new 0 0 730 1081.3;" xml:space="preserve">
<style type="text/css">
	.st0{fill:#235977;}
	.st1{fill:#143951;}
	.st2{fill:#427D8D;}
	.st3{fill:#122F3F;}
	.st4{opacity:0.5;fill:#143951;enable-background:new    ;}
	.st5{opacity:0.1;fill:#EEF2F4;enable-background:new    ;}
	.st6{fill:#204D6A;}
	.st7{fill:#EEF2F4;}
	.st8{fill:url(#SVGID_1_);}
	.st9{fill:#273026;}
	.st10{fill:url(#SVGID_2_);}
	.st11{fill:url(#SVGID_3_);}
	.st12{fill:url(#SVGID_4_);}
	.st13{fill:url(#SVGID_5_);}
	.st14{fill:url(#SVGID_6_);}
	.st15{fill:url(#SVGID_7_);}
	.st16{fill:url(#SVGID_8_);}
	.st17{fill:none;stroke:#235977;stroke-width:6;stroke-miterlimit:10;}
	.st18{fill:none;stroke:#204D6A;stroke-width:6;stroke-miterlimit:10;}
	.st19{fill:#FFAE0D;}
	.st20{fill:#FF9E10;}
	.st21{fill:#ED7900;}
	.st22{fill:none;stroke:#143951;stroke-linecap:round;stroke-linejoin:round;stroke-miterlimit:10;}
	.st23{fill:#256582;}
	.st24{fill:url(#SVGID_9_);}
	.st25{fill:none;stroke:#235977;stroke-miterlimit:10;}
	.st26{fill:url(#SVGID_10_);stroke:#CCCCCC;stroke-width:2;stroke-miterlimit:10;}
	.st27{fill:url(#SVGID_11_);}
	.st28{fill:url(#SVGID_12_);}
	.st29{opacity:0.3;fill:#FBFFE2;enable-background:new    ;}
	.st30{opacity:0.1;fill:#FBFFE2;enable-background:new    ;}
	.st31{opacity:0.2;fill:#427D8D;enable-background:new    ;}
	.st32{opacity:0.2;fill:url(#SVGID_13_);}
	
	
		
@-webkit-keyframes satoken {
  0% {
    fill: #D3DADD;
  }
  40% {
    fill: #EEF2F4;
  }
  60% {
    fill: #EEF2F4;
  }
  100% {
    fill: #D3DADD;
  }
}
	.satoken {
  -webkit-animation: satoken 1s ease-in-out infinite; 
  animation: satoken 1s ease-in-out infinite;
	}
	
@-webkit-keyframes flashT {
  0% {
    fill: #D3DADD;
  }
  40% {
    fill: #EEF2F4;
  }
  60% {
    fill: #EEF2F4;
  }
  65% {
    fill: #235977;
  }
  67% {
    fill: #D3DADD;
  }
  70% {
    fill: #1c4a5e;
  }
  100% {
    fill: #D3DADD;
  }
}
	.flashT {
  -webkit-animation: flashT 1s ease-in-out infinite; 
  animation: flashT 1s ease-in-out infinite;
	}
	
@-webkit-keyframes intoLay {
  0% {
    opacity:0%;
  }
  50% {
    opacity: 100%;
  }
  100% {
    opacity: 0%;
  }
}
	#intoLay {
  -webkit-animation: intoLay 3s ease-in-out infinite; 
  animation: intoLay 3s ease-in-out infinite;
	}
	
@-webkit-keyframes highlightBase {
  0% {
    fill: #427D8D;
  }
  50% {
    fill: #122F3F;
  }
  100% {
    fill: #427D8D;
  }
}
	.hB {
  -webkit-animation: highlightBase 10s ease-in-out; 
  animation: highlightBase 10s ease-in-out;
	}
	
@-webkit-keyframes shadowBase {
  0% {
    fill: #143951;
  }
  35% {
    fill: #122F3F;
  }
  70% {
    fill: #1c4a5e;
  }
  100% {
    fill: #143951;
  }
}
	.sB {
  -webkit-animation: shadowBase 10s ease-in-out infinite; 
  animation: shadowBase 10s ease-in-out infinite;
	}
	
@-webkit-keyframes darkestBase {
  0% {
    fill: #143951;
  }
  50% {
    fill: #122F3F;
  }
  100% {
    fill: #143951;
  }
}
	#darkestBase {
  -webkit-animation: darkestBase 10s ease-in-out infinite; 
  animation: darkestBase 10s ease-in-out infinite;
	}
	
@-webkit-keyframes mainBase {
  0% {
    fill: #235977;
  }
  40% {
    fill: #1f5066;
  }
  60% {
    fill: #1c4a5e;
  }
  100% {
    fill: #235977;
  }
}
	#mainBase {
  -webkit-animation: mainBase 10s ease-in-out infinite; 
  animation: mainBase 10s ease-in-out infinite;
	}
	
@-webkit-keyframes flashLightRight {
  0% {
    fill: #235977;
  }
  53% {
    fill: #458496;
  }
  86% {
    fill: #143951;
  }
  100% {
    fill: #235977;
  }
}
	#flashLightRight {
  -webkit-animation: flashLightRight 2s ease-in-out infinite; 
  animation: flashLightRight 2s ease-in-out infinite;
	}
	
@-webkit-keyframes flashLightLeft {
  0% {
    fill: #235977;
  }
  53% {
    fill: #143951;
  }
  86% {
    fill: #458496;
  }
  100% {
    fill: #235977;
  }
}
	#flashLightLeft {
  -webkit-animation: flashLightLeft 2s ease-in-out infinite; 
  animation: flashLightLeft 2s ease-in-out infinite;
	}
	
@-webkit-keyframes flashScreen {
  0% {
    fill: #143951;
  }
  50% {
    fill: #143951;
  }
}
	#flashScreen {
  -webkit-animation: flashScreen 1s ease-in-out infinite; 
  animation: flashScreen 1s ease-in-out infinite;
	}
	
@-webkit-keyframes flashPanel {
  0% {
    fill: #235977;
  }
  53% {
    fill: #143951;
  }
  100% {
    fill: #235977;
  }
}
	#flashPanel {
  -webkit-animation: flashPanel 3s ease-in-out infinite; 
  animation: flashPanel 3s ease-in-out infinite;
	}
	
@keyframes eyeA {
	100%{
		transform:translate3d(-4px,-1px,0);
	}
	75% {
		transform:translate3d(0,0,0);
	}
	50% {
		transform:translate3d(0,0,0);
	}
}
#eyeA {
	-webkit-animation:eyeA 2s infinite alternate;
	animation:eyeA 2s infinite alternate;
	}
	
@keyframes shadowB {
	0%{
		transform:translate3d(0,0,0);
    	opacity: 50%;
	}
	12% {
		transform:translate3d(15px,6px,0);
    	opacity: 100%;
	}
	25% {
		transform:translate3d(30px,12px,0);
    	opacity: 50%;
	}
	38% {
		transform:translate3d(45px,18px,0);
    	opacity: 100%;
	}
	50% {
		transform:translate3d(60px,25px,0);
    	opacity: 50%;
	}
	62% {
		transform:translate3d(75px,18px,0);
    	opacity: 100%;
	}
	75% {
		transform:translate3d(90px,12px,0);
    	opacity: 50%;
	}
	92% {
		transform:translate3d(105px,6px,0);
    	opacity: 100%;
	}
	100% {
		transform:translate3d(120px,0,0);
    	opacity: 50%;
	}
}
#shadowB {
	-webkit-animation:shadowB 7s infinite alternate;
	animation:shadowB 7s infinite alternate;
	}
	
@keyframes alienB {
	0%{
		transform:translate3d(0,0,0) scale(1,0.98);
	}
	12% {
		transform:translate3d(15px,6px,0);
	}
	25% {
		transform:translate3d(30px,12px,0) scale(1,0.98);
	}
	38% {
		transform:translate3d(45px,18px,0);
	}
	50% {
		transform:translate3d(60px,25px,0) scale(1,0.98);
	}
	62% {
		transform:translate3d(75px,18px,0);
	}
	75% {
		transform:translate3d(90px,12px,0) scale(1,0.98);
	}
	92% {
		transform:translate3d(105px,6px,0);
	}
	100% {
		transform:translate3d(120px,0,0) scale(1,0.98);
	}
}
#alienB {
	-webkit-animation:alienB 7s infinite alternate;
	animation:alienB 7s infinite alternate;
	}
@keyframes eyeB {
	100%{
		transform:translate3d(0,-2px,0);
	}
	75% {
		transform:translate3d(2px,-2px,0);
	}
	50% {
		transform:translate3d(-2px,-2px,0);
	}
}
#eyeB {
	-webkit-animation:eyeB 2s infinite alternate;
	animation:eyeB 2s infinite alternate;
	}

@keyframes eyeC {
	100%{
		transform:translate3d(7px,-2px,0);
	}
	75% {
		transform:translate3d(5px,2px,0);
	}
	50% {
		transform:translate3d(2px,4px,0);
	}
}
#eyeC {
	-webkit-animation:eyeC 2s infinite alternate;
	animation:eyeC 2s infinite alternate;
	}
	
@keyframes leftShoes {
	100%{
		transform:translate3d(0,0,0);
	}
	75% {
		transform:translate3d(0,-3px,0);
	}
	50% {
		transform:translate3d(0,-10px,0);
	}
}
#leftShoes {
	-webkit-animation:leftShoes 2s infinite alternate;
	animation:leftShoes 2s infinite alternate;
	}
	
@keyframes rightShoes {
	100%{
		transform:translate3d(0,-10px,0);
	}
	75% {
		transform:translate3d(0,-3px,0);
	}
	50% {
		transform:translate3d(0,0,0);
	}
}
#rightShoes {
	-webkit-animation:rightShoes 2s infinite alternate;
	animation:rightShoes 2s infinite alternate;
	}
	
@keyframes dack {
	0%{
		transform:translate3d(0,5px,0);
	}
	70%{
		transform:translate3d(0,-54px,0) scale(1,1.08);
	}
	100%{
		transform:translate3d(0,-30px,0);
	}
}
#dack {
	-webkit-animation:dack 2s infinite alternate;
	animation:dack 2s infinite alternate;
	}
	
@keyframes wood {
	0%{
		transform:translate3d(0,0px,0);
	}
	50%{
		transform:translate3d(0,-15px,0) scale(1,1.03);
	}
	100%{
		transform:translate3d(0,0,0);
	}
}
.wood {
	-webkit-animation:wood 2s infinite alternate;
	animation:wood 2s infinite alternate;
	}
	
@keyframes canLid {
	0%{
		transform:translate3d(0,1px,0);
	}
	20%{
		transform:translate3d(0,-1px,0);
	}
	70%{
		transform:translate3d(0,0,0);
	}
	100%{
		transform:translate3d(1px,0,0);
	}
}
#canLid {
	-webkit-animation:canLid 1s infinite alternate;
	animation:canLid 1s infinite alternate;
	}
	
</style>
<path id="mainBase" class="st0" d="M730.2,732L212.5,980.9c-4.4,2.1-9.5,2.1-13.9,0L0,885.4V0h0.5l729,0.2L730.2,732z"/>
<g id="shadowBase">
	<polygon class="st1 sB" points="439.5,530.3 396.8,531.5 396.8,512.8 336.5,541.9 336.5,666.5 396.8,637.5 396.8,552.2 	"/>
	<polygon class="st1 sB" points="730,0.2 292.2,-0.1 0.5,-0.2 0.5,116.8 142.8,186.1 591.3,186.1 591.3,216.1 591.4,673.2 529.4,703.5 
		529.4,828.1 730,732 	"/>
	<polygon class="st1 sB" points="207.9,666.5 268.2,637.5 268.2,512.8 207.9,541.9 	"/>
	<polygon class="st1 sB" points="207.9,349.5 143.7,380.5 143.7,505.2 268.2,444.7 268.2,189.5 207.9,218.5 	"/>
	<polygon class="st1 sB" points="143.5,827.9 204,798.9 204,674.3 143.5,703.2 	"/>
	<polygon class="st1 sB" points="465.1,343.1 525.4,314.1 525.4,189.5 465.1,218.4 	"/>
	<polygon class="st1 sB" points="465.1,666.6 525.4,637.6 525.4,512.8 465.1,541.9 	"/>
	<polygon class="st1 sB" points="400.8,828 461.1,799.1 461.1,674.3 400.8,703.4 	"/>
	<polygon class="st1 sB" points="336.5,343.1 396.8,314.1 396.8,189.5 336.5,218.5 	"/>
	<polygon class="st1 sB" points="332.5,693.9 332.5,674.3 272.2,703.2 272.2,827.9 332.5,798.9 332.5,714.7 375.3,692.7 	"/>
	<polygon class="st1 sB" points="589.7,351.5 529.4,380.4 529.4,505.1 589.7,476.1 	"/>
	<polygon class="st1 sB" points="516.4,377 461.1,352.1 400.8,380.4 400.8,505.1 461.1,476.1 461.1,394.9 	"/>
</g>
<g id="passege">
	<path class="st0" d="M440.1,531.9l-14.7,7.1c-17.3,8.3-37.4,8.3-54.6,0l-14.7-7.1v-3.6h84L440.1,531.9L440.1,531.9z"/>
	<path class="st0" d="M375.9,694.3l-14.7,7.1c-17.3,8.3-37.4,8.3-54.6,0l-14.7-7.1v-3.6h84L375.9,694.3L375.9,694.3z"/>
</g>
<g id="highlightBase">
	<polygon class="st2 hB" points="396.3,186.1 333.9,216.1 268.2,186 205.9,215.9 0.5,119.4 0.5,-0.2 292.2,-0.1 154.4,69.8 
		333.9,156.1 	"/>
	<polygon class="st2 hB" points="653.7,186.1 591.3,156.1 529,186.1 591.3,216.1 	"/>
	<polygon class="st2 hB" points="525,186.1 462.6,156.1 400.3,186.1 462.6,216.1 	"/>
	<polygon class="st2 hB" points="527,377.7 589.4,347.7 527,317.7 464.6,347.7 	"/>
	<polygon class="st2 hB" points="398.3,377.7 460.7,347.7 398.3,317.7 335.9,347.7 	"/>
	<polygon class="st2 hB" points="140.9,377.7 203.3,347.7 140.9,317.7 78.5,347.7 	"/>
	<polygon class="st2 hB" points="464.7,671.4 527.1,701.4 589.4,671.4 527.1,641.4 	"/>
	<polygon class="st2 hB" points="16.4,641.8 140.9,701.4 203.3,671.4 78.8,611.8 	"/>
	<polygon class="st2 hB" points="729.6,410.8 591.4,343.4 591.4,479.8 529,509.8 591.4,539.8 729.6,473.3 	"/>
	<path class="st2 hB" d="M525,509.8l-62.3-30l-62.4,30l10.8,5.2l-7.2,3.5c-3.7,1.8-7.9,1.8-11.6,0l-7-3.4l11-5.3l-126.7-61l-126.7,61
		l62.3,30l64.4-31l64.4,31l23-11.1l13.8,6.7c17.2,8.3,37.3,8.3,54.6,0l14-6.8l23.3,11.2L525,509.8z"/>
	<path class="st2 hB" d="M460.7,671.4l-62.4-30l-62.3,30l11.6,5.6l-7.9,3.9c-3.7,1.8-7.9,1.8-11.6,0l-7.8-3.8l11.7-5.6l-62.4-30
		l-62.3,30l62.3,30l22.3-10.7l14.7,7.1c17.2,8.3,37.3,8.3,54.6,0l14.7-7.1l22.3,10.8L460.7,671.4z"/>
	<polygon class="st2 hB" points="15,498.8 0,506 0,491.3 	"/>
	<polygon class="st2 hB" points="30.2,523.3 0,537.9 0,523 15,515.8 	"/>
	<polygon class="st2 hB" points="45.4,547.8 0,569.7 0,554.8 30.2,540.3 	"/>
	<polygon class="st2 hB" points="60.6,572.4 0,601.5 0,586.6 45.4,564.8 	"/>
	<polygon class="st2 hB" points="75.8,596.8 13.5,626.8 0,620.1 -1.8,619.2 0,618.4 60.6,589.2 	"/>
	<polygon class="st2 hB" points="6.4,388.9 6.4,403.8 0,400.6 0,391.9 	"/>
	<polygon class="st2 hB" points="21.7,379.3 21.6,394.2 6.4,386.7 	"/>
	<polygon class="st2 hB" points="37,369.9 36.9,384.8 21.7,377.2 	"/>
	<polygon class="st2 hB" points="52.2,360.4 52.2,375.3 37,367.7 	"/>
	<polygon class="st2 hB" points="67.5,350.9 67.5,365.8 52.3,358.3 	"/>
</g>
<polygon id="darkestBase" class="st3" points="730.1,700.7 604.3,640.3 604.3,546.8 730,485.8 "/>
<ellipse id="shadowA" class="st1" cx="140.9" cy="349.2" rx="7.8" ry="3.7"/>
<ellipse id="shadowC" class="st1" cx="462.2" cy="507.6" rx="21.1" ry="10.2"/>
<ellipse id="shadowCan" class="st1" cx="397.5" cy="655.6" rx="14.4" ry="7"/>
<ellipse id="shadowDack" class="st1" cx="527.5" cy="672.7" rx="17" ry="8.2"/>
<path id="shadowBonsai" class="st4" d="M528,247.4l9.4,68.3c-3.2-0.2-6.5-0.4-9.8-0.4c-35.3,0-63.7,14-63.7,31.2
	s28.6,31.2,63.7,31.2c35.3,0,63.7-14,63.7-31.2C584.1,294.6,528,247.4,528,247.4z"/>
<ellipse id="shadowCan_1_" class="st1" cx="637.9" cy="462.2" rx="14.5" ry="7"/>
<path id="shadowScoop" class="st1" d="M664.4,453.4l19.4,9.7c4.4,1.9,5.6-2.6,3.4-3.5l-20.1-9.5
	C664.5,448.6,661.2,451.6,664.4,453.4z"/>
<path id="shadowShoesR" class="st1" d="M413.2,335.1c-2.1-0.6-3.6-0.4-6.3-0.1c-2.7,0.4-4.6,4.7-0.4,7.6c0.7,0.5,1.8,1.2,2.1,2.4
	c1,4.4,6.9,8.3,12.8,8.3c4.4,0,8-2.2,8.6-4.6c0.8-3.1-1.6-7.3-4.4-8.1C415.3,337.8,417.4,336.4,413.2,335.1z"/>
<path id="shadowShoesL" class="st1" d="M386.5,335.1c2.1-0.6,3.6-0.4,6.3-0.1c2.7,0.4,4.6,4.7,0.4,7.6c-0.7,0.5-1.8,1.2-2.1,2.4
	c-1,4.4-6.9,8.3-12.8,8.3c-4.4,0-8-2.2-8.6-4.6c-0.8-3.1,1.6-7.3,4.4-8.1C384.5,337.8,382.4,336.4,386.5,335.1z"/>
<ellipse id="reflectLeft" class="st5" cx="269.6" cy="482.6" rx="38.9" ry="18.6"/>
<ellipse id="reflectRight" class="st5" cx="527.5" cy="671.9" rx="38.9" ry="18.6"/>
<g id="ladder01">
	<path class="st6" d="M176.8,523.1c-1.2,0-2,0.8-2,2v4.5c0,1.5-1.5,2.4-2.8,1.7l-10.1-4.9c-0.7-0.4-1.2-1.1-1.2-1.7v-10.2
		c0-1.1-0.9-2-2-2s-2,0.9-2,2v135.2c0,1.1,0.9,2,2,2c0.7,0,1.3-0.3,1.6-0.9c0.2-0.3,0.4-0.7,0.4-1.1v-5c0-1.5,1.5-2.4,2.8-1.7
		l10.1,4.9c0.7,0.4,1.2,1.1,1.2,1.7v10.7c0,1.1,0.9,2,2,2s2-0.9,2-2V525.1C178.8,524,177.9,523.1,176.8,523.1z M163.5,531.6
		l10.1,4.9c0.7,0.3,1.2,1,1.2,1.7v1.5c0,1.5-1.5,2.4-2.8,1.7l-10.1-4.9c-0.7-0.4-1.2-1.1-1.2-1.7v-1.5
		C160.7,531.8,162.2,530.9,163.5,531.6z M171.9,612.5l-10.1-4.9c-0.7-0.4-1.2-1.1-1.2-1.7v-1.5c0-1.5,1.5-2.4,2.8-1.7l10.1,4.9
		c0.7,0.4,1.2,1.1,1.2,1.7v1.5C174.7,612.3,173.2,613.2,171.9,612.5z M174.7,619.3v1.5c0,1.5-1.5,2.4-2.8,1.7l-10.1-4.9
		c-0.7-0.3-1.2-1-1.2-1.7v-1.5c0-1.5,1.5-2.4,2.8-1.7l10.1,4.9C174.2,618,174.7,618.7,174.7,619.3z M171.9,602.2l-10.1-4.9
		c-0.7-0.2-1.2-1-1.2-1.6v-1.6c0-1.5,1.5-2.4,2.8-1.7l10.1,4.9c0.7,0.4,1.2,1.1,1.2,1.7v1.5C174.7,602,173.2,602.9,171.9,602.2z
		 M171.9,592l-10.1-4.9c-0.7-0.2-1.2-0.9-1.2-1.7v-1.5c0-1.5,1.5-2.4,2.8-1.7l10.1,4.9c0.7,0.4,1.2,1.1,1.2,1.7v1.5
		C174.7,591.8,173.2,592.7,171.9,592z M171.9,582l-10.1-4.9c-0.7-0.3-1.2-0.9-1.2-1.7v-1.5c0-1.5,1.5-2.4,2.8-1.7l10.1,4.9
		c0.7,0.4,1.2,1.1,1.2,1.7v1.5C174.7,581.8,173.2,582.7,171.9,582z M171.9,571.8l-10.1-4.9c-0.7-0.1-1.2-0.9-1.2-1.7v-1.5
		c0-1.5,1.5-2.4,2.8-1.7l10.1,4.9c0.7,0.4,1.2,1.1,1.2,1.7v1.5C174.7,571.6,173.2,572.5,171.9,571.8z M171.9,561.7l-10.1-4.9
		c-0.7-0.3-1.2-0.9-1.2-1.7v-1.5c0-1.5,1.5-2.4,2.8-1.7l10.1,4.9c0.7,0.4,1.2,1.1,1.2,1.7v1.5C174.7,561.5,173.2,562.4,171.9,561.7z
		 M171.9,551.7l-10.1-4.9c-0.7-0.3-1.2-1-1.2-1.8v-1.4c0-1.5,1.5-2.4,2.8-1.7l10.1,4.9c0.7,0.4,1.2,1.1,1.2,1.7v1.5
		C174.7,551.5,173.2,552.4,171.9,551.7z M174.7,641c0,1.5-1.5,2.4-2.8,1.7l-10.1-4.9c-0.7-0.3-1.2-0.9-1.2-1.7v-1.5
		c0-1.5,1.5-2.4,2.8-1.7l10.1,4.9c0.7,0.4,1.2,1.1,1.2,1.7V641z M172,632.5l-10.1-4.9c-0.7-0.4-1.2-1.1-1.2-1.7v-1.5
		c-0.1-1.3,1.5-2.2,2.8-1.7l10.1,4.9c0.7,0.4,1.2,1.1,1.2,1.7v1.5C174.8,632.3,173.3,633.2,172,632.5z"/>
</g>
<g id="ladder03">
	<path class="st6" d="M425.4,687.6c-1.1,0-2,0.9-2,2v135.2c0,1.1,0.9,2,2,2s2-0.9,2-2v-10.7c0-0.8,0.4-1.5,1.2-1.7l10.1-4.9
		c1.2-0.5,2.8,0.4,2.8,1.7v5c0,1.1,0.9,2,2,2s2-0.9,2-2V679c0-1.1-0.9-2-2-2s-2,0.9-2,2v10.2c0,0.8-0.4,1.5-1.2,1.7l-10.1,4.9
		c-1.2,0.5-2.8-0.4-2.8-1.7v-4.5C427.4,688.5,426.6,687.6,425.4,687.6L425.4,687.6z M441.3,789v1.5c0,0.8-0.4,1.5-1.2,1.7l-10.1,4.9
		c-1.2,0.5-2.8-0.4-2.8-1.7v-1.5c0-0.8,0.4-1.5,1.2-1.7l10.1-4.9C439.8,786.6,441.3,787.6,441.3,789z M440.2,782.1l-10.1,4.9
		c-1.2,0.5-2.8-0.4-2.8-1.7v-1.5c0-0.8,0.4-1.5,1.2-1.7l10.1-4.9c1.2-0.5,2.8,0.4,2.8,1.7v1.5C441.3,781.1,440.9,781.9,440.2,782.1z
		 M440.2,772l-10.1,4.9c-1.2,0.5-2.8-0.4-2.8-1.7v-1.5c0-0.8,0.4-1.5,1.2-1.7l10.1-4.9c1.2-0.5,2.8,0.4,2.8,1.7v1.5
		C441.3,771,440.9,771.6,440.2,772z M440.2,762l-10.1,4.9c-1.2,0.5-2.8-0.4-2.8-1.7v-1.5c0-0.8,0.4-1.5,1.2-1.7l10.1-4.9
		c1.2-0.5,2.8,0.4,2.8,1.7v1.5C441.3,760.9,440.9,761.6,440.2,762z M440.2,751.8l-10.1,4.9c-1.2,0.5-2.8-0.4-2.8-1.7v-1.5
		c0-0.8,0.4-1.5,1.2-1.7l10.1-4.9c1.2-0.5,2.8,0.4,2.8,1.7v1.5C441.3,750.8,440.9,751.5,440.2,751.8z M440.2,741.7l-10.1,4.9
		c-1.2,0.5-2.8-0.4-2.8-1.7v-1.5c0-0.8,0.4-1.5,1.2-1.7l10.1-4.9c1.2-0.5,2.8,0.4,2.8,1.7v1.5C441.3,740.6,440.9,741.3,440.2,741.7z
		 M440.2,731.6l-10.1,4.9c-1.2,0.5-2.8-0.4-2.8-1.7v-1.6c0-0.8,0.4-1.5,1.2-1.7l10.1-4.9c1.2-0.5,2.8,0.4,2.8,1.7v1.5
		C441.3,730.5,440.9,731.2,440.2,731.6z M440.2,721.4l-10.1,4.9c-1.2,0.5-2.8-0.4-2.8-1.7v-1.5c0-0.8,0.4-1.5,1.2-1.7l10.1-4.9
		c1.2-0.5,2.8,0.4,2.8,1.7v1.5C441.3,720.5,440.9,721.1,440.2,721.4z M440.2,711.2l-10.1,4.9c-1.2,0.5-2.8-0.4-2.8-1.7v-1.5
		c0-0.8,0.4-1.5,1.2-1.7l10.1-4.9c1.2-0.5,2.8,0.4,2.8,1.7v1.5C441.3,710.3,440.9,710.9,440.2,711.2z M428.4,701l10.1-4.9
		c1.2-0.5,2.8,0.4,2.8,1.7v1.5c0,0.8-0.4,1.5-1.2,1.7l-10.1,4.9c-1.2,0.5-2.8-0.4-2.8-1.7v-1.5C427.4,702,427.8,701.4,428.4,701z
		 M440.2,802.4l-10.1,4.9c-1.2,0.5-2.8-0.4-2.8-1.7v-1.5c0-0.8,0.4-1.5,1.2-1.7l10.1-4.9c1.2-0.5,2.8,0.4,2.8,1.7v1.5
		C441.3,801.3,440.9,802,440.2,802.4z"/>
</g>
<g id="ladder02">
	<path class="st6" d="M555.4,360.7c-1.1,0-2,0.9-2,2v135.2c0,1.1,0.9,2,2,2s2-0.9,2-2v-10.7c0-0.8,0.4-1.5,1.2-1.7l10.1-4.9
		c1.2-0.5,2.8,0.4,2.8,1.7v5c0,1.1,0.9,2,2,2s2-0.9,2-2V352.1c0-1.1-0.9-2-2-2s-2,0.9-2,2v10.2c0,0.8-0.4,1.5-1.2,1.7l-10.1,4.9
		c-1.2,0.5-2.8-0.4-2.8-1.7v-4.5C557.4,361.6,556.4,360.7,555.4,360.7z M571.4,462.1v1.5c0,0.8-0.4,1.5-1.2,1.7l-10.1,4.9
		c-1.2,0.5-2.8-0.4-2.8-1.7V467c0-0.8,0.4-1.5,1.2-1.7l10.1-4.9C569.8,459.7,571.4,460.8,571.4,462.1L571.4,462.1z M570.2,455.4
		l-10.1,4.9c-1.2,0.5-2.8-0.4-2.8-1.7V457c0-0.8,0.4-1.5,1.2-1.7l10.1-4.9c1.2-0.5,2.8,0.4,2.8,1.7v1.5
		C571.4,454.3,570.9,455,570.2,455.4L570.2,455.4z M570.2,445.2l-10.1,4.9c-1.2,0.5-2.8-0.4-2.8-1.7v-1.5c0-0.8,0.4-1.5,1.2-1.7
		l10.1-4.9c1.2-0.5,2.8,0.4,2.8,1.7v1.5C571.4,444.2,570.9,444.9,570.2,445.2z M570.2,435.1l-10.1,4.8c-1.2,0.5-2.8-0.4-2.8-1.7
		v-1.5c0-0.8,0.4-1.5,1.2-1.7l10.1-4.9c1.2-0.5,2.8,0.4,2.8,1.7v1.5C571.4,434,570.9,434.8,570.2,435.1L570.2,435.1z M570.2,425
		l-10.1,4.9c-1.2,0.5-2.8-0.4-2.8-1.7v-1.5c0-0.8,0.4-1.5,1.2-1.7l10.1-4.9c1.2-0.5,2.8,0.4,2.8,1.7v1.5
		C571.4,423.9,570.9,424.6,570.2,425z M570.2,414.8l-10.1,4.9c-1.2,0.5-2.8-0.4-2.8-1.7v-1.5c0-0.8,0.4-1.5,1.2-1.7l10.1-4.9
		c1.2-0.5,2.8,0.4,2.8,1.7v1.5C571.4,413.9,570.9,414.5,570.2,414.8z M570.2,404.6l-10.1,4.9c-1.2,0.5-2.8-0.4-2.8-1.7v-1.5
		c0-0.8,0.4-1.5,1.2-1.7l10.1-4.9c1.2-0.5,2.8,0.4,2.8,1.7v1.5C571.4,403.8,570.9,404.5,570.2,404.6z M570.2,394.5l-10.1,4.9
		c-1.2,0.5-2.8-0.4-2.8-1.7v-1.5c0-0.8,0.4-1.5,1.2-1.7l10.1-4.9c1.2-0.5,2.8,0.4,2.8,1.7v1.5C571.4,393.6,570.9,394.3,570.2,394.5z
		 M570.2,384.4l-10.1,4.9c-1.2,0.5-2.8-0.4-2.8-1.7v-1.5c0-0.8,0.4-1.5,1.2-1.7l10.1-4.9c1.2-0.5,2.8,0.4,2.8,1.7v1.5
		C571.4,383.4,570.9,384,570.2,384.4z M558.4,374.2l10.1-4.9c1.2-0.5,2.8,0.4,2.8,1.7v1.5c0,0.8-0.4,1.5-1.2,1.7l-10.1,4.9
		c-1.2,0.5-2.8-0.4-2.8-1.7v-1.5C557.4,375.2,557.8,374.5,558.4,374.2z M570.2,475.5l-10.1,4.9c-1.2,0.5-2.8-0.4-2.8-1.7v-1.5
		c0-0.8,0.4-1.5,1.2-1.7l10.1-4.9c1.2-0.5,2.8,0.4,2.8,1.7v1.5C571.4,474.6,570.9,475.3,570.2,475.5z"/>
</g>
<g><ellipse id="shadowB" class="st1" cx="339.1" cy="840.3" rx="14.3" ry="6.9"/></g>
<g id="alienB">
	<circle class="st7" cx="339.2" cy="796.8" r="11.9"/>
	<linearGradient id="SVGID_1_" gradientUnits="userSpaceOnUse" x1="339.806" y1="2255.542" x2="339.806" y2="2317.311" gradientTransform="matrix(1 0 0 1 0 -1476)">
		<stop  offset="0" style="stop-color:#ED7900"/>
		<stop  offset="1" style="stop-color:#FFAE0D"/>
	</linearGradient>
	<path class="st8" d="M357.3,828.3c-0.5-2.3-4.4-2.7-4.4,0.4c0,1.5-2.3,1.6-2.4,0.1v-4.1c0.1-3.8,0.4-7.8,1.2-11.5
		c0.5-2.9,1.3-6,2.4-8.8l0.4-1.1c0.1-0.3,0.3-0.5,0.4-0.8c0.9-2.3,1.3-4.8,1.2-7.4c0-0.3-0.3-2.1-0.4-2.9c-1.7-6.8-7.7-12.1-15-12.6
		c-4.8-0.4-9.1,1.3-12.3,4.2c0,0-1.9,2-2.5,2.8c-2,2.8-2.9,6-2.9,9.5c0,2.1,0.4,4.4,1.2,6.2c0,0.1,0.1,0.3,0.1,0.4
		c0.1,0.4,0.3,0.5,0.4,0.9c1.2,2.9,2,6.1,2.5,9.1c0.7,3.8,1.2,7.7,1.2,11.5v4.1c-0.1,1.5-2.5,1.3-2.4-0.1c-0.3-3.6-5.2-2.5-4.4,0.9
		c0,7.6,11.4,7.6,11.5,0v-14.6c0-0.7,0.4-1.2,0.7-1.6c0.5-0.4,1.2-0.7,2-0.5c0.4,0.1,0.7,0.3,0.9,0.4c0.4,0.4,0.8,1.1,0.8,1.7v24.3
		c0,1.2,1.1,2.3,2.3,2.3c1.2,0,2.3-1.1,2.3-2.3v-24.3c0-0.7,0.3-1.2,0.8-1.7c0.3-0.3,0.5-0.4,0.9-0.4h0.1c0.8-0.3,1.5,0,2,0.5
		c0.4,0.4,0.7,1.1,0.7,1.6v14.7c0.1,7.6,11.4,7.6,11.5,0C357.4,829,357.4,828.5,357.3,828.3L357.3,828.3z M348.7,797.6
		c-0.4,2.9-2.1,5.4-4.5,6.9c-0.9,0.5-2,1.1-3.2,1.2c-0.5,0.1-1.2,0.3-2,0.3s-1.5-0.1-2.1-0.3c-1.1-0.3-2-0.5-2.8-1.2
		c-2.8-1.7-4.6-4.8-4.6-8.4c0-4.9,3.6-8.9,8.2-9.5c0.4-0.1,0.9-0.1,1.5-0.1c2.5,0,4.9,1.1,6.6,2.7c2,1.9,3,4.4,3,7
		C348.8,796.4,348.7,797.4,348.7,797.6L348.7,797.6z"/>
	<path class="st1" d="M357.2,796.7c0.9,2.7-0.4,5.6-2.8,6.6c-0.3,0.1-0.4,0.3-0.7,0.3h-0.8c-0.1,0-0.4,0-0.4-0.1
		c-1.2-0.4-1.5-2.1-0.9-3.8c0.5-1.9,2.1-2.8,3.2-2.5c0.5,0,0.5-2,0.5-2.4v-1c-0.1-0.7-0.3-1.5-0.4-2.1c0-0.1-0.1-0.3-0.1-0.4
		c0-0.1-0.1-0.4-0.1-0.4l-0.4-1.1v-0.1c-0.1-0.3-0.1-0.4-0.3-0.5c-0.5-1.2-1.2-2.3-2-3.3c-0.3-0.4-0.8-0.3-0.9,0.1
		c-0.7,1.9-2.8,2.9-5.3,3.2c-1.5,0.1-3.2-0.1-4.9-0.8c-1.2-0.4-2.3-1.1-3-1.7l-0.3-0.3c-0.8-0.5-1.3-1.2-2-2c-1.2-1.9-3.6-2.5-5.4-2
		c-0.8,0.3-1.5,0.5-2,1.2h-0.1l-0.5,0.5c-0.7,0.7-1.2,1.3-1.7,2c-0.7,0.9-1.1,2-1.2,2.9c-0.4,2,0.3,4.4,1.7,6
		c0.4,0.4,0.7,0.9,1.1,1.6c1.2,2.5,0.9,5.2-0.7,6.1c-0.5,0.4-1.3,0.4-2,0.1h-0.1c-0.3-0.1-0.4-0.1-0.5-0.3c-0.1,0-0.1-0.1-0.3-0.1
		c-2.9-1.6-4.9-4.8-4.5-8.4c0.1-2.5,1.3-4.8,3.2-6.2c0.4-0.4,0.5-0.8,0.4-1.2c-0.3-1.2,0.3-2.7,1.2-3.7c1.2-1.5,2.9-2,4.4-1.9
		c0.5,0.1,1.1,0,1.3-0.4c2-2.8,4.6-4.4,7.6-5c2.4-0.5,4.8-0.5,7.2,0c5.6,1.3,10.3,6,10.7,12.5c0,0.5,0.4,1.1,0.8,1.2
		c0.8,0.4,1.3,1.2,1.7,2.1c0.4,1.1,0.3,2-0.3,2.9c-0.3,0.4-0.4,1.1-0.1,1.5C357.2,796.6,357.2,796.6,357.2,796.7L357.2,796.7z"/>
	<path id="eyeB" class="st9" d="M339,791.5c-1.2,0-2.1,0.4-3,0.9c-0.9,0.7-0.4,2,0.7,2h0.1c0.5,0,1.2,0.3,1.6,0.7s0.7,0.9,0.7,1.5
		c0,1.2-1.2,2.4-2.4,2.4s-1.6,1.5-0.7,2c0.8,0.5,2,0.9,2.9,0.9c2.9,0,5.2-2.4,5.2-5.2C344.3,793.8,342.1,791.5,339,791.5L339,791.5z
		 M341.5,795.9c-0.5,0-1.1-0.4-1.1-1.1s0.4-1.1,1.1-1.1s1.1,0.4,1.1,1.1C342.7,795.5,342.2,795.9,341.5,795.9z"/>
	
		<linearGradient id="SVGID_2_" gradientUnits="userSpaceOnUse" x1="339.8" y1="2317.3369" x2="339.8" y2="2308.698" gradientTransform="matrix(1 0 0 1 0 -1476)">
		<stop  offset="0" style="stop-color:#ED7900"/>
		<stop  offset="1" style="stop-color:#FFD40D"/>
	</linearGradient>
	<path class="st10" d="M339.8,841.2c1.2,0,2.3-1.1,2.3-2.3v-4.1c0-1.2-1.1-2.3-2.3-2.3s-2.3,1.1-2.3,2.3v4.1
		C337.6,840.3,338.6,841.2,339.8,841.2z"/>
</g>
<g id="alienA">
	<circle class="st7" cx="462.1" cy="476.1" r="12.6"/>
	<linearGradient id="SVGID_3_" gradientUnits="userSpaceOnUse" x1="462.3" y1="1936.598" x2="462.3" y2="1991.189" gradientTransform="matrix(1 0 0 1 0 -1476)">
		<stop  offset="0" style="stop-color:#ED7900"/>
		<stop  offset="1" style="stop-color:#FFAE0D"/>
	</linearGradient>
	<path id="eyeA" class="st9" d="M462.2,471c-1.2,0-2.1,0.4-3,0.9c-0.9,0.7-0.4,2,0.7,2h0.1c0.5,0,1.2,0.3,1.6,0.7s0.7,0.9,0.7,1.5
		c0,1.2-1.2,2.4-2.4,2.4s-1.6,1.5-0.7,2c0.8,0.5,2,0.9,2.9,0.9c2.9,0,5.2-2.4,5.2-5.2C467.2,473.4,465.1,471,462.2,471L462.2,471z
		 M464.7,475.5c-0.5,0-1.1-0.4-1.1-1.1s0.4-1.1,1.1-1.1s1.1,0.4,1.1,1.1C465.8,475,465.4,475.5,464.7,475.5z"/>
	<path class="st11" d="M477.4,497.9v-22.2c0-8.4-6.8-15.2-15.2-15.2c-4.2,0-8,1.7-10.7,4.4c-2.8,2.8-4.4,6.6-4.4,10.7v22.1
		c-3.6,1.9-6,4.4-6,7c0,5.7,9.5,10.2,21.2,10.2s21.2-4.4,21.2-10.1C483.4,502.1,481.1,499.8,477.4,497.9z M457.5,467.5
		c1.3-0.8,2.9-1.2,4.6-1.2c1.3,0,2.8,0.4,4,0.8c3.4,1.5,5.7,4.9,5.7,8.9c0,5.3-4.4,9.7-9.7,9.7s-9.7-4.4-9.7-9.7
		C452.5,472.4,454.6,469.3,457.5,467.5L457.5,467.5z"/>
	<path class="st1" d="M484.7,474.3v0.8c0,3-2.5,5.7-5.7,5.7c-0.4,0-0.8,0-1.2-0.1c-0.1,0-0.3-0.1-0.4-0.1h-0.1v-4.8
		c0-2.5-0.5-4.8-1.7-6.8c-0.7,0.5-1.5,0.9-2.3,1.1h-0.5c-1.2,0-2.4-0.4-3.3-1.5c-0.4-0.4-0.7-0.7-0.9-1.1c-0.4-0.4-0.8-0.5-1.2-0.5
		c-0.4,0-0.7,0.1-1.1,0.4c-0.1,0.1-0.3,0.1-0.3,0.3c-0.3,0.3-0.4,0.5-0.8,0.8c-1.9,2-5.2,2-6.9,0l-0.7-0.7c0,0,0-0.1-0.1-0.1
		c-0.4-0.4-0.8-0.5-1.2-0.5s-0.9,0.3-1.2,0.5c-0.4,0.4-0.5,0.7-0.9,1.1c-1.1,1.1-2,1.5-2.8,1.6c-1.1,0.3-2-0.1-2.7-0.4
		c-0.9,2-1.3,4-1.3,6.1v4.8h-0.1c-0.1,0-0.3,0.1-0.4,0.1c-0.4,0.1-0.8,0.1-1.2,0.1c-3.2,0-5.7-2.5-5.7-5.7v-1.1
		c0-1.2,1.1-2.1,2.3-2.1s2.3,1.1,2.3,2.1c0,0.4,0.1,0.7,0.4,0.8c0.3,0.3,0.5,0.4,0.9,0.4s0.7-0.1,0.9-0.4c0.3-0.3,0.4-0.4,0.4-0.7
		c0,0-1.2-4.1-0.4-8c1.5-7.6,11-7.3,14.7-7.4c3.8-0.1,5.2-2.9,10.2-2.7c4.5,0.4,6.5,4.5,7,8c0.7,3.3-0.4,10.1-0.4,10.1
		c0,0.3,0.1,0.5,0.4,0.7c0.3,0.3,0.5,0.4,0.9,0.4s0.7-0.1,0.9-0.4c0.3-0.3,0.4-0.4,0.4-0.8c0-1.2,1.1-2.1,2.3-2.1
		C483.7,472.1,484.7,473.1,484.7,474.3L484.7,474.3z"/>
</g>
<g id="alienC">
	<circle class="st7" cx="141.1" cy="309.2" r="12.7"/>
	<linearGradient id="SVGID_4_" gradientUnits="userSpaceOnUse" x1="140.9936" y1="1770.4841" x2="140.9936" y2="1825.3059" gradientTransform="matrix(1 0 0 1 0 -1476)">
		<stop  offset="0" style="stop-color:#ED7900"/>
		<stop  offset="1" style="stop-color:#FFAE0D"/>
	</linearGradient>
	<path id="eyeC" d="M141,304.3c-1.2,0-2.1,0.4-3,0.9c-0.9,0.7-0.4,2,0.7,2h0.1c0.5,0,1.2,0.3,1.6,0.7c0.4,0.4,0.7,0.9,0.7,1.5
		c0,1.2-1.2,2.4-2.4,2.4s-1.6,1.5-0.7,2c0.8,0.5,2,0.9,2.9,0.9c2.9,0,5.2-2.4,5.2-5.2C146.3,306.7,143.9,304.3,141,304.3z
		 M143.5,308.9c-0.5,0-1.1-0.4-1.1-1.1s0.4-1.1,1.1-1.1s1.1,0.4,1.1,1.1C144.6,308.3,144.1,308.9,143.5,308.9z"/>
	<path class="st12" d="M151.6,298.9c-2.9-2.9-7.2-4.6-11.7-4.4c-7.6,0.4-13.8,6.6-14.2,14.2c-0.1,2.4,0.4,4.9,1.1,7
		c0,0.1,0,0.1,0.1,0.2c0.8,1.7,1.9,3.3,3.2,4.5l0.1,0.1c0.5,0.5,0.9,1.1,1.2,1.8c0.6,1.4,0.6,3.1,0.1,4.7v0.3
		c-0.3,0.9-0.4,1.9-0.4,2.8c0,2,0.7,4,1.9,5.6c0.7,1.1,1.2,2.3,1.2,3.6v7.8c0,0.1,0,0.1,0,0.2c0.1,1.1,0.9,2.1,2,2.2
		c1.3,0.1,2.5-0.9,2.5-2.3v-4.9c0-1.2,0.9-2.3,2-2.4c1.3-0.1,2.5,0.9,2.5,2.3v4.9c0,1.2,0.9,2.3,2,2.4c1.2,0.1,2.4-0.8,2.5-2.1
		c0-0.1,0-0.1,0-0.2v-8c0-1.2,0.4-2.5,1.2-3.6c1.2-1.6,1.9-3.6,1.9-5.6c0-0.9-0.1-2-0.4-2.8v-0.3c-0.5-1.5-0.4-3.2,0.1-4.6
		c0.3-0.7,0.7-1.3,1.2-1.9l0.1-0.1c2-2,3.6-4.6,4.1-7.6l0,0l0,0c0.3-1.1,0.4-2,0.4-3C156,305.4,154.3,301.6,151.6,298.9z
		 M150.4,311.1C150.4,311.1,150.4,311.2,150.4,311.1c-0.7,3.8-3.5,6.8-7,7.8l0,0c-1.4,0.4-3,0.5-4.6,0.1c-0.1,0-0.2,0-0.4-0.1
		c-2.2-0.6-4.1-2-5.4-3.6c0,0,0-0.1-0.1-0.1c-0.8-1.1-1.2-2.2-1.5-3.5c-1.2-5.8,2.8-11,8.2-11.5l0,0c1.1-0.1,2.1-0.1,3.3,0.1
		s2.1,0.7,3,1.2c0,0,0.1,0,0.1,0.1c2,1.3,3.6,3.6,4.3,5.9C150.6,308.7,150.7,309.9,150.4,311.1z"/>
	<path class="st1" d="M155.7,312.8c-0.4,0.1-0.8,0.1-1.2,0.1c-1.7,0-3-0.7-4.1-1.7c-2.5-2.4-3.6-6.6-4.4-9.7
		c-0.4-1.5-0.7-2.7-0.9-3.2c-1.1-2-2.7-0.8-3.4-0.4c-0.8,0.5-1.5,1.2-2,2.1c-2.5,3.6-3.6,9.4-4.1,11.5c-0.4,1.7-1.3,2.9-2.7,3.7
		c-1.9,1.2-4.1,1.2-6.1,0.5c-0.3-0.1-0.5-0.3-0.8-0.4c-8.1-3.8-6.8-25.5,13.1-25.5c4.1,0,6,1.9,6,1.9s2.7-0.4,5.2,1.1
		C160.4,297.9,161.4,311.2,155.7,312.8z"/>
</g>
<g id="tools">
	<g>
		<g>
			<path class="st0" d="M704.7,399.5L704.7,399.5c-0.2-0.3-3.1-5.5-7.6-8c-4.7-2.6-5.5,0.2-5.7,2.2c-0.2,1.6,0.4,8.3,0.7,11.2
				c0.1,0.8-0.1,1.7-0.4,2.5l-12.8,31.9c-0.2,0.6-1,0.7-1.4,0.2l-2.5-2.7c-2.2-2.5-6.3-1.4-7,1.8l-2.6,12.4c-0.1,0.4,0.1,0.8,0.5,1
				l18.5,8.8c0,0,5-6,5-6.2c0.2-1.3-0.2-2.6-1.1-3.6l0,0l-4-4.4l-0.1-0.1l-0.3-0.4c-1.4-1.5-1.7-3.6-1-5.5l12.8-31.5
				c0.4-1.1,1.3-2,2.4-2.4c1.3-0.5,3.3-1.3,6-2.3c0.6-0.2,1-0.5,1.2-0.9C706.3,402.1,704.7,399.5,704.7,399.5z M696.4,394.4l5,5.5
				c0.5,0.6,0.3,1.5-0.4,1.8l-4.2,1.7c-0.8,0.4-1.8-0.2-1.9-1.1l-0.7-6.9C694.1,394.1,695.6,393.5,696.4,394.4z"/>
			<path class="st6" d="M672,441.8l2.9,3.1c0.7,0.8,0.9,1.9,0.5,2.9l-2.4,7.6l-6.8-3.3c0,0,6.3,3,6-1l-0.8-9.2
				C671.3,441.8,671.8,441.5,672,441.8z"/>
		</g>
		<path class="st6" d="M705.1,403.7c-0.2,0.3-0.7,0.7-1.2,0.9c-2.6,1-4.6,1.8-6,2.3c-1.1,0.4-2,1.3-2.4,2.4l-12.8,31.5
			c-0.8,1.9-0.4,4,1,5.5l4.5,4.8c0.9,1,1.3,2.4,1.1,3.6c0,0.2-0.1,0.6-0.1,0.6c0,0.1-3.2,5.3-3.2,5.3c-0.6,0.6-1.6,0.3-1.6,0.3
			l-8.3-4l2.2-5.6c0.3-0.8,1.9-0.9,2.5-0.3l3.7,4.1c0.2,0.2,0.1,0.6-0.2,0.7c0,0-5.8,0.8-3.9,2.5l0.2,0.1c1.9,1.1,4.3,0.5,5.4-1.4
			l1.3-2c1-1.6,0.5-3.2-0.7-4.7l-4-4.3c-1.1-1.1-1.9-3.6-1.3-5.1l13.1-32.9c0.5-1.3,1.6-2.3,2.8-2.8l6-2.2c2-0.9,1.6-3.7,1.6-3.7
			S706.3,402.1,705.1,403.7z"/>
	</g>
	<g>
		<path class="st0" d="M659.6,447.8c-2.3,0-4.1,0.9-4.1,1.9v5.3c0,0.3-0.4,0.6-0.7,0.4l-3.9-1.9l-1.3-10.9c0-3-5.1-5.5-11.5-5.5
			c-5.9,0-10.7,2.1-11.4,4.8l-3.9-1.9c-2.2-1-4.6,0.5-4.6,2.9v7.1c0,1.1,0.9,2,2,2s2-0.9,2-2v-5.5c0-0.3,0.4-0.6,0.7-0.4l3.3,1.6
			l-1.9,15.5c0.6,3.4,6.6,6,13.8,6s13.1-2.6,13.8-6l-0.4-3.4l3.5,1.7c2.2,1,4.6-0.5,4.6-2.9l0.1-4.9c1.9,0,3.6-0.6,4-1.5
			c0.1-0.2,0.1-0.3,0.1-0.5C663.7,448.7,661.9,447.8,659.6,447.8z"/>
		<path class="st1" d="M649.2,443.5c0,0.2,0,0.4-0.1,0.6s-0.3,0.5-0.5,0.7c-0.3,0.3-0.6,0.6-1,0.9c-2,1.5-5.6,2.6-9.7,2.6
			c-4.2,0-8-1.1-9.9-2.7c-0.3-0.2-0.5-0.5-0.7-0.7s-0.3-0.4-0.5-0.7c0-0.2-0.1-0.4-0.1-0.6c0-3,5-5.4,11.2-5.4
			C644.2,438.1,649.2,440.5,649.2,443.5z"/>
		<path class="st3" d="M647.7,445.6c-2,1.5-5.6,2.6-9.7,2.6c-4.2,0-8-1.1-9.9-2.7c1.9-1.6,5.6-2.7,9.7-2.7
			C642.1,442.7,645.9,443.9,647.7,445.6z"/>
		<path class="st2" d="M642.5,441.9c-0.7,0-1.4,0.1-2.1,0.3c-0.2,0-0.4,0-0.5-0.1c-2.1-1.9-7,1.1-2.1,1.4c0.3,0,0.5,0.2,0.5,0.5
			c0.1,1.3,2.3,1.7,4.2,1.8C647.8,445.8,648.2,442,642.5,441.9z"/>
	</g>
</g>
<g id="bonsai">
	<ellipse id="shadow" class="st1" cx="523.8" cy="349.7" rx="21.1" ry="10.2"/>
	<g class="bowl">
		<linearGradient id="SVGID_5_" gradientUnits="userSpaceOnUse" x1="524.4501" y1="1830.7345" x2="524.4501" y2="1779.704" gradientTransform="matrix(1 0 0 1 0 -1476)">
			<stop  offset="0" style="stop-color:#143951"/>
			<stop  offset="1" style="stop-color:#204D6A"/>
		</linearGradient>
		<path class="st13" d="M554.4,318.1C554.2,318.1,554.2,318,554.4,318.1c0-8.1-13.5-14.5-30.1-14.5c-16.6,0-29.8,6.3-29.8,14.4v0.2
			l8.9,27c0.7,5.4,9.6,9.6,20.8,9.6s20.1-4.2,20.8-9.6L554.4,318.1z"/>
		<ellipse class="st1" cx="524.5" cy="319.8" rx="24.7" ry="11.8"/>
		<path class="st3" d="M524.6,307.6c-13.7,0-24.7,5.4-24.7,11.8c0,3.2,2.2,5.7,6.1,7.8c0.1-6,3.1-11.2,7.6-14.4
			c-0.7,0.9-1.2,1.9-1.2,2.9c0,3.8,5.3,6.8,11.9,6.8c6.6,0,11.9-3.1,11.9-6.8c0-1.2-0.5-2.3-1.4-3.3c4.7,3.3,7.8,8.6,7.9,14.8
			c3.9-2,6.1-4.7,6.1-7.8C548.9,313.1,537.9,307.6,524.6,307.6z"/>
	</g>
	<g class="wood">
		<g>
			<path class="st0" d="M587.9,299.5h-33.6c-9.1,0.5-14.4,2.6-17.8,5.3c-0.1,0.1-0.3,0.2-0.4,0.3l0,0c-0.3,0.3-0.6,0.6-0.9,0.8
				c-0.1,0-0.1,0.1-0.1,0.1c-0.2,0.2-0.3,0.3-0.5,0.5c-0.3,0.3-0.6,0.7-0.9,1c-0.2,0.2-0.4,0.5-0.6,0.7l0,0l0,0
				c-0.1,0.1-0.1,0.2-0.2,0.3c-0.2,0.3-0.5,0.7-0.7,1s-0.4,0.7-0.6,1c-0.3,0.5-0.6,1-0.8,1.4c-0.2,0.3-0.4,0.6-0.5,0.9
				c-0.1,0.2-0.2,0.3-0.3,0.4c-0.4,0.6-0.7,1.1-1.1,1.5c0,0,0,0-0.1,0.1c-0.4,0.4-0.8,0.8-1.2,1.1c-0.1,0.1-0.2,0.1-0.3,0.2
				c-0.2,0.1-0.4,0.2-0.6,0.3c-0.3,0.1-0.5,0.2-0.8,0.3c-0.1,0-0.2,0.1-0.3,0.1s-0.2,0-0.3,0c-0.2,0-0.5,0.1-0.8,0.1
				c-0.2,0-0.3,0-0.4,0c-0.1,0-0.3,0-0.4,0c-0.1,0-0.2,0-0.3,0s-0.2,0-0.3-0.1c-2.2-0.5-3.4-2.1-4.6-4.1c-0.2-0.3-0.4-0.6-0.6-0.9
				c-0.2-0.3-0.3-0.5-0.5-0.7c-0.3-0.4-0.6-0.9-0.9-1.4c0-0.1-0.1-0.1-0.1-0.2c-0.2-0.3-0.4-0.5-0.6-0.8c-0.1-0.1-0.1-0.2-0.2-0.3
				l0,0c0-0.1-0.1-0.1-0.1-0.1c-0.3-0.5-0.7-0.9-1.1-1.4c-0.2-0.2-0.4-0.4-0.6-0.6c-0.3-0.3-0.5-0.5-0.8-0.8
				c-0.2-0.1-0.3-0.3-0.4-0.4c-0.2-0.1-0.3-0.3-0.5-0.4c0,0,0,0-0.1,0l0,0c-0.1-0.1-0.3-0.2-0.4-0.3c-3.5-2.5-8.7-4.5-17.4-4.9h-24.5
				c-24.5,0.2-44.2-21.3-42.4-45.3c0.1-1.7,0.3-3.4,0.6-5.1c3.4-18.8,19.7-33.3,38.8-34.5l0,0c1.6-5.8,3.7-11.1,6.1-15.9
				c27.3-53.6,101.6-44.2,123.4,2.5c6.2,13.3,8.1,29.7,3.5,48.5c5.8,2.9,11.1,8.7,13.1,15.1C618.5,281.6,605.7,299.8,587.9,299.5z"/>
			<path class="st1" d="M536,305.2c-6.2,5.1-5.8,11.8-11.6,11.8c-6.1,0-5.7-7.3-12.8-12.5c3.6,2.5,8,3.9,12.7,3.9
				C528.6,308.4,532.6,307.2,536,305.2z"/>
		</g>
		<g>
			<linearGradient id="SVGID_6_" gradientUnits="userSpaceOnUse" x1="534.1707" y1="450.7" x2="534.1707" y2="505.7681" gradientTransform="matrix(1 0 0 -1 0 668)">
				<stop  offset="0" style="stop-color:#235977"/>
				<stop  offset="1" style="stop-color:#427D8D"/>
			</linearGradient>
			<path class="st14" d="M585.1,184.8c7.6,8.2,4.6,21.6-6,25.5c-11.9,4.4-26.9,7-43.1,7c-18.2,0-34.7-3.3-47.3-8.7
				c-9.9-4.2-12.9-16.8-5.8-24.9C510.6,152.9,559.3,157,585.1,184.8z"/>
			<linearGradient id="SVGID_7_" gradientUnits="userSpaceOnUse" x1="473.2199" y1="403.6028" x2="481.5412" y2="450.7953" gradientTransform="matrix(1 0 0 -1 0 668)">
				<stop  offset="0" style="stop-color:#235977"/>
				<stop  offset="1" style="stop-color:#427D8D"/>
			</linearGradient>
			<path class="st15" d="M517.5,241.3c3.6,0,5.5,4.2,3.1,6.9c-7.8,8.6-25.8,14.7-46.8,14.7c-11.1,0-21.3-1.7-29.7-4.6
				c-11.5-3.9-15.5-17.7-8-27.3c7.3-9.4,18.4-15.6,30.6-16.5c-0.2,0.8-0.3,1.6-0.3,2.4C466.5,230.4,489.3,241.3,517.5,241.3
				C517.4,241.3,517.5,241.3,517.5,241.3z"/>
			<linearGradient id="SVGID_8_" gradientUnits="userSpaceOnUse" x1="576.4791" y1="384.5328" x2="571.4882" y2="412.8373" gradientTransform="matrix(1 0 0 -1 0 668)">
				<stop  offset="0" style="stop-color:#235977"/>
				<stop  offset="1" style="stop-color:#427D8D"/>
			</linearGradient>
			<path class="st16" d="M609.9,263.2c0,11.4-19.3,20.6-43,20.6c-10.4,0-20-1.8-27.4-4.7c-2-0.8-1.4-3.7,0.7-3.7c0.9,0,1.7,0,2.6,0
				c30.2,0,55.1-11.2,57.4-25.3C606.3,253.7,609.9,258.2,609.9,263.2z"/>
		</g>
	</g>
</g>
<g id="GarbageCan">
	<g id="can">
		<path class="st0" d="M413.4,627c0,0.2-2,21.7-2,27.7c0,3.4-6.2,6.2-13.8,6.2c-7.6,0-13.8-2.8-13.8-6.2l-2.1-27.7
			c0-4.2,7.1-7.6,15.9-7.6C406.3,619.4,413.4,622.8,413.4,627z"/>
		<path class="st1" d="M412.6,627.7L412.6,627.7c0,0.5-0.2,0.9-0.5,1.3c-0.5,0.6-1.2,1.3-1.5,1.6c-2.7,2.1-7.5,3.4-13,3.4
			c-5.7,0-10.7-1.5-13.4-3.7c-0.3-0.2-0.8-0.9-1.2-1.3c-0.3-0.4-0.5-0.8-0.5-1.3l0,0c0-4,6.7-7.2,15.1-7.2
			C405.9,620.5,412.6,623.7,412.6,627.7z"/>
		<path class="st3" d="M410.6,630.6c-2.7,2.1-7.5,3.4-13,3.4c-5.7,0-10.7-1.5-13.4-3.7c2.6-2.2,7.5-3.6,13-3.6
			C403,626.7,408.1,628.3,410.6,630.6z"/>
	</g>
	<g id="canLid">
		<path class="st0" d="M411.7,618.6l0.7,3.8c0.8,4.3-6.3,9.1-15.8,10.8s-17.8-0.4-18.5-4.6l-0.7-3.8c-0.8-4.3,6.3-9.1,15.8-10.8
			S411,614.4,411.7,618.6z"/>
		<path class="st2" d="M411.7,618.6c0.1,0.6,0.1,1.3-0.2,2c-1.3,3.7-7.6,7.4-15.6,8.8c-8,1.4-15.2,0.2-17.7-2.8
			c-0.4-0.5-0.7-1.1-0.9-1.8c-0.8-4.3,6.3-9.1,15.8-10.8C402.7,612.3,411,614.4,411.7,618.6z"/>
		<path class="st0" d="M397.8,618.6l0.1,0.8c0.2,0.9-1.3,1.9-3.4,2.3c-2,0.4-3.8-0.1-4-1l-0.1-0.8c-0.2-0.9,1.3-1.9,3.4-2.3
			S397.7,617.7,397.8,618.6z"/>
		<path class="st2" d="M397.8,618.6c0,0.1,0,0.3,0,0.4c-0.3,0.8-1.6,1.6-3.3,1.9c-1.7,0.3-3.2,0-3.8-0.6c-0.1-0.1-0.2-0.2-0.2-0.4
			c-0.2-0.9,1.3-1.9,3.4-2.3C395.9,617.2,397.7,617.7,397.8,618.6z"/>
	</g>
</g>
<g id="switchPanel">
	<polygon class="st2" points="333.6,908.9 301.1,924.6 278.5,905.9 311.1,890.3 	"/>
	<polygon class="st0" points="301.1,924.6 301.1,959.5 278.6,948.7 278.6,905.9 	"/>
	<polygon class="st1" points="301.1,924.6 301,959.5 333.6,943.8 333.6,908.9 	"/>
	<path class="st0" d="M315.8,900.8c-0.1,0.1-0.3,0.1-0.4,0.1c-0.7,0.1-1.7-0.4-2.7-1.1c-0.9-0.8-1.6-1.7-1.7-2.4c0-0.2,0-0.3,0-0.4
		c0-0.1,0.1-0.1,0.1-0.2l-0.6,0.8l0,0l0,0c-0.1,0.1-0.1,0.2-0.2,0.3c0,0.1,0,0.3,0,0.4c0.1,0.7,0.7,1.6,1.6,2.4
		c0.9,0.8,1.9,1.2,2.6,1.1c0.2,0,0.3,0,0.4-0.1s0.2-0.1,0.3-0.2l0,0l0,0l0.6-0.8C315.9,900.7,315.8,900.8,315.8,900.8z"/>
	<path class="st0" d="M322.4,906.3c-0.1,0.1-0.3,0.1-0.4,0.1c-0.7,0.1-1.7-0.4-2.7-1.1c-0.9-0.8-1.6-1.7-1.7-2.4c0-0.2,0-0.3,0-0.4
		c0-0.1,0.1-0.1,0.1-0.2l-0.6,0.8l0,0l0,0c-0.1,0.1-0.1,0.2-0.2,0.3c0,0.1,0,0.3,0,0.4c0.1,0.7,0.7,1.6,1.6,2.4
		c0.9,0.8,1.9,1.2,2.6,1.1c0.2,0,0.3,0,0.4-0.1s0.2-0.1,0.3-0.2l0,0l0,0l0.6-0.8C322.5,906.2,322.4,906.3,322.4,906.3z"/>
</g>
<g id="hole">
	<path id="hole02" class="st1" d="M261.5,155.6c0,0.5-0.1,1.1-0.2,1.6c-0.3,0.6-0.8,1.3-1.3,1.9c-0.8,0.9-1.7,1.8-2.8,2.6
		c-5.7,4.3-15.8,7.2-27.3,7.2c-11.9,0-22.4-3.1-28-7.7c-0.8-0.7-1.5-1.3-2.1-2.1c-0.5-0.6-0.9-1.2-1.3-1.9c-0.1-0.5-0.2-1.1-0.2-1.6
		c0-8.3,14.1-15.1,31.5-15.1C247.4,140.6,261.5,147.3,261.5,155.6z"/>
	<path id="darkestBase" class="st3" d="M257.3,161.7c-5.7,4.3-15.8,7.2-27.3,7.2c-11.9,0-22.4-3.1-28-7.7c5.4-4.5,15.6-7.6,27.3-7.6
		C241.5,153.6,252,156.9,257.3,161.7z"/>
	<g id="holeLadder">
		<path class="st6" d="M230.2,126c-1.1,0-2,0.9-2,2v10.2c0,0.8-0.4,1.5-1.2,1.7l-1.5,0.7l-8.6,4.2c-1.2,0.5-2.8-0.4-2.8-1.7v-4.5
			c0-1.1-0.8-2-2-2c-1.1,0-2,0.9-2,2v27.1c2.9,1.1,6.2,1.9,9.8,2.5l5.4-2.6c1.2-0.5,2.8,0.4,2.8,1.7v1.5c0,0.1,0,0.1,0,0.2
			c0.6,0,1.2,0,1.9,0c0.8,0,1.5,0,2.3,0v-41C232.2,126.9,231.3,126,230.2,126z M213.9,151.7c0.2-0.7,0.6-1.3,1.2-1.7l10.1-4.9
			c1.2-0.5,2.8,0.4,2.8,1.7v1.5c0,0.8-0.4,1.5-1.2,1.7l-10.1,4.9c-1.2,0.5-2.8-0.4-2.8-1.7V151.7z M228.1,158.5
			c-0.1,0.8-0.5,1.4-1.2,1.7l-10.1,4.9c-1.2,0.5-2.8-0.4-2.8-1.7v-1.5c0-0.8,0.4-1.5,1.2-1.7l10.1-4.9c1.2-0.5,2.8,0.4,2.8,1.7
			V158.5z"/>
	</g>
</g>
<g id="lampLeft">
	<path id="lampLeft" class="st17" d="M234.9,462.8V357.2c0-6.8,5.5-12.4,12.4-12.4h2.5c6.8,0,12.4,5.5,12.4,12.4l0,0"/>
	<ellipse class="st2" cx="268" cy="362.5" rx="13.1" ry="6.3"/>
	<ellipse class="st0" cx="268" cy="361.2" rx="13.1" ry="6.3"/>
	<ellipse class="st2" cx="273.4" cy="361.6" rx="7.7" ry="3.7"/>
</g>
<g id="lampRight">
	<path class="st18" d="M562.2,652.1V546.5c0-6.8-5.5-12.4-12.4-12.4h-2.5c-6.8,0-12.4,5.5-12.4,12.4l0,0"/>
	<ellipse class="st6" cx="529.1" cy="550.4" rx="13.1" ry="6.3"/>
	<ellipse class="st2" cx="534.5" cy="550.9" rx="7.7" ry="3.7"/>
	<path class="st6" d="M562.2,623.4c-4,0-7.2,1.5-7.2,3.4V657c0,1.9,3.2,3.4,7.2,3.4s7.2-1.5,7.2-3.4v-30.2
		C569.3,625,566.1,623.4,562.2,623.4z"/>
</g>
<g id="dack">
	<path class="st19" d="M505.1,663.2c0,0.2,0,0.4,0,0.6c0,0.3,0.1,0.7,0.1,1l0,0c1,6.9,8.2,12.4,17.3,13.5c0.1,0,0.1,0,0.1,0
		c0.1,0.1,0.3,0.1,0.5,0.1c0.1,0,0.1,0,0.2,0c0.8,0.1,1.6,0.1,2.5,0.1c0.1,0,0.2,0,0.3,0l0,0c0.9,0,1.9-0.1,2.8-0.2h0.1
		c5.1-0.6,9.9-2.7,13.3-5.6c0.1-0.1,0.1-0.1,0.2-0.2l0,0l0,0c0.1-0.1,0.2-0.2,0.3-0.3c1.9-0.8,3.4-2.2,4.3-3.8l0,0
		c1-1.7,1.5-3.7,1.5-5.6c0-1.3-0.3-2.4-0.9-3.3c-0.1-0.2-0.3-0.3-0.4-0.5c-0.8-4.2-2.8-9.1-6-11.3c-1.5-1-3.4-1.2-5.6-1.1
		c0.3-1,0.4-2.1,0.4-3.3c0-7.7-6.6-14-14.7-14c-8.1,0-14.7,6.3-14.7,14c0,3.6,1.4,6.9,3.8,9.4c-0.4,0.3-0.7,0.7-1.1,1
		c-0.4,0.4-0.8,0.8-1.2,1.3C506.3,657.3,505.2,660.1,505.1,663.2z"/>
	<path class="st20" d="M508.5,654.8c0.3-0.4,0.8-0.9,1.2-1.3c0.3-0.3,0.7-0.7,1.1-1c2.7,2.8,6.6,4.6,10.9,4.6
		c5.2,0,9.8-2.6,12.4-6.5c-2.3,5.3-7.9,9.1-14.3,9.1c-1.3,0-2.8-0.2-4.3-0.7c-6.4-1.9-5,13.5,11.3,13.1c3.2-0.1,5.2-3.4,4.5-6.4
		c-0.1-0.1-0.1-0.2-0.1-0.3c-0.5-2.5,0.2-5.8,2.8-7.6c-0.7,1-1,2.2-1,3.5c0,3.4,2.4,6.2,5.8,7.4c1.1,0.4,2.3,0.6,3.5,0.6
		c1.9,0,3.6-0.4,5-1.2c0.1-0.1-1.5,3.2-4.7,4.2l0,0c-10.4,10.3-36.5,7.3-37.4-8.7l0,0l0,0c0-0.2,0-0.4,0-0.6
		C505.2,660.1,506.3,657.3,508.5,654.8z"/>
	<path class="st21" d="M513.8,646.3c-4.5,0-7,2.4-7,3.7c0,2.2,5,4.1,9.5,4.4c5.7,0.4,6.8-0.8,6.8-1.9
		C523.1,651.1,518.3,646.3,513.8,646.3z"/>
	<path d="M522.3,640.9c-1.5,0-2.7,1.2-2.8,2.7c0,1.5,1.2,2.7,2.7,2.7c0.5,0,1.1-0.2,1.5-0.5c0.4-0.2,0.2-1-0.4-1
		c-0.6,0-1.2-0.6-1.2-1.2c0-0.3,0.2-0.6,0.4-0.8s0.5-0.4,0.8-0.4h0.1c0.6,0,0.9-0.6,0.4-1C523.4,641.1,522.9,640.9,522.3,640.9
		L522.3,640.9z M520.4,642.6c0-0.4,0.2-0.6,0.6-0.6c0.4,0,0.6,0.2,0.6,0.6c0,0.4-0.3,0.6-0.6,0.6S520.4,642.9,520.4,642.6z"/>
	<path d="M512.1,639.5c-1.4,0-2.6,1.1-2.5,2.4c0,1.4,1.1,2.5,2.5,2.5c0.4,0,1-0.2,1.4-0.4c0.5-0.3,0.3-1-0.3-1
		c-0.5,0-1.1-0.5-1.1-1.1c0-0.3,0.1-0.5,0.3-0.7s0.6-0.3,0.8-0.3l0,0c0.5,0,0.7-0.7,0.3-1C513.1,639.7,512.7,639.5,512.1,639.5
		L512.1,639.5z M510.4,641.2c0-0.3,0.2-0.5,0.5-0.5s0.5,0.2,0.5,0.5s-0.3,0.5-0.5,0.5C510.6,641.7,510.3,641.4,510.4,641.2z"/>
</g>
<g id="shoes">
	<g id="rightShoes">
		<path class="st0" d="M423.7,331.9c0.3-1.8-0.7-4.1-2.3-4.8l0,0c1.6-9.3-14.5-10.6-14.7-1.7c-0.1,3.9-1.6,7-1.6,9
			c0,5.6,1.2,6.5,3.4,7.8c0.7,0.4,1.2,1.3,1.4,2.4c1,4.1,6.5,7.2,10.5,7.2c8.8,0,10.7-4.7,10.7-8.9c0-3.4-2.3-6.3-5.7-7.8
			C424.5,334.9,423.3,333.8,423.7,331.9z"/>
		<path class="st2" d="M419.2,323.3c0,0.3-0.2,0.7-0.5,0.9c-0.3,0.3-0.6,0.5-1.1,0.7c-0.3,0.1-0.4,1.3-0.6,2.3
			c-0.1,0.6-0.3,1.1-0.5,1.1s-0.5-0.4-0.8-0.9c-0.5-0.8-1.1-2-1.5-2c-1.9-0.1-3.6-0.7-4.3-1.6c-0.3-0.3-0.5-0.7-0.5-1.1
			c0.1-1.3,2.3-2.3,5.1-2.1C417.1,320.8,419.2,322,419.2,323.3z"/>
		<path class="st22" d="M420.3,329.1l-5.6,0.6c-0.5,0-0.9,0.5-0.8,1l0,0c0,0.5,0.5,0.9,1,0.8l4.4-0.5c0.5-0.1,0.9,0.3,1,0.8v0.1
			c0.1,0.5-0.3,0.9-0.8,1l-5.5,0.7"/>
		<path class="st2" d="M421,349.5c-4,0-9.6-3.1-10.6-7.2c-0.3-1.1-0.8-2.1-1.4-2.5c-2.2-1.3-3.4-2.2-3.4-7.9c0-0.2,0-0.4,0.1-0.6
			c-0.4,1.3-0.7,2.4-0.7,3.3c0,5.6,1.2,6.5,3.4,7.8c0.7,0.4,1.2,1.3,1.4,2.4c1,4.1,6.5,7.2,10.5,7.2c7.8,0,10.5-3.4,10.7-8.9
			C429.9,346.8,426.9,349.5,421,349.5z"/>
		<path class="st1" d="M418.7,324.3c-0.3,0.3-0.7,0.4-1.1,0.7c-0.3,0.2-0.6,3.4-1.1,3.4c-0.6,0.1-1.7-2.8-2.4-2.9
			c-1.9-0.2-3.6-0.7-4.3-1.6c0.8-0.8,2.6-1.3,4.6-1.2C416.3,322.8,417.9,323.4,418.7,324.3z"/>
		<ellipse class="st23" cx="423.7" cy="339.8" rx="4.6" ry="2.6"/>
	</g>
	<g id="leftShoes">
		<path class="st0" d="M376.1,331.9c-0.3-1.8,0.7-4.1,2.3-4.8l0,0c-1.6-9.3,14.5-10.6,14.7-1.7c0.1,3.9,1.6,7,1.6,9
			c0,5.6-1.2,6.5-3.4,7.8c-0.7,0.4-1.2,1.3-1.4,2.4c-1,4.1-6.5,7.2-10.5,7.2c-8.8,0-10.7-4.7-10.7-8.9c0-3.4,2.3-6.3,5.7-7.8
			C375.3,334.8,376.4,333.8,376.1,331.9z"/>
		<path class="st2" d="M380.6,323.2c0,0.3,0.2,0.7,0.5,0.9c0.3,0.3,0.6,0.5,1.1,0.7c0.3,0.1,0.4,1.3,0.6,2.3
			c0.1,0.6,0.3,1.1,0.5,1.1s0.5-0.4,0.8-0.9c0.5-0.8,1.1-2,1.5-2c1.9-0.1,3.6-0.7,4.3-1.6c0.3-0.3,0.5-0.7,0.5-1.1
			c-0.1-1.3-2.3-2.3-5.1-2.1C382.7,320.7,380.5,321.9,380.6,323.2z"/>
		<path class="st22" d="M379.4,329l5.6,0.6c0.5,0,0.9,0.5,0.8,1l0,0c0,0.5-0.5,0.9-1,0.8l-4.4-0.5c-0.5-0.1-0.9,0.3-1,0.8v0.1
			c-0.1,0.5,0.3,0.9,0.8,1l5.5,0.7"/>
		<path class="st2" d="M378.7,349.4c4,0,9.6-3.1,10.6-7.2c0.3-1.1,0.8-2.1,1.4-2.5c2.2-1.3,3.4-2.2,3.4-7.9c0-0.2,0-0.4-0.1-0.6
			c0.4,1.3,0.7,2.4,0.7,3.3c0,5.6-1.2,6.5-3.4,7.8c-0.7,0.4-1.2,1.3-1.4,2.4c-1,4.1-6.5,7.2-10.5,7.2c-7.8,0-10.5-3.4-10.7-8.9
			C369.9,346.7,372.8,349.4,378.7,349.4z"/>
		<path class="st1" d="M381.1,324.2c0.3,0.3,0.7,0.4,1.1,0.7c0.3,0.2,0.6,3.4,1.1,3.4c0.6,0.1,1.7-2.8,2.4-2.9
			c1.9-0.2,3.6-0.7,4.3-1.6c-0.8-0.8-2.6-1.3-4.6-1.2C383.5,322.7,381.8,323.4,381.1,324.2z"/>
		<ellipse class="st23" cx="382.6" cy="340.1" rx="4" ry="2.3"/>
	</g>
</g>
<g id="deskTop">
	<polygon class="st1" points="323.8,580.2 323.8,619.4 298.5,607.2 298.5,568 	"/>
	<polygon class="st4" points="304.6,556.7 305,578.3 290.9,571.9 290.6,550.2 	"/>
	<g>
		<polygon class="st2" points="297.6,626.3 255.5,646.5 226.4,632.5 268.5,612.3 		"/>
		<polygon class="st1" points="255.5,681.3 255.5,681.3 255.5,646.5 297.6,626.3 297.6,661.1 293.3,663.1 268.5,651.2 268.5,644.8 
			259.8,649.1 259.8,679.2 		"/>
		<polygon class="st0" points="255.5,681.3 255.5,681.3 255.5,681.3 255.5,646.5 255.5,646.5 226.4,632.5 226.4,667.4 		"/>
		<polygon class="st4" points="293.3,663.1 259.8,679.2 259.8,649.1 268.5,644.8 268.5,651.2 		"/>
	</g>
	
		<linearGradient id="SVGID_9_" gradientUnits="userSpaceOnUse" x1="264.9359" y1="35.7423" x2="253.4747" y2="55.5937" gradientTransform="matrix(1 0 0 -1 0 668)">
		<stop  offset="0" style="stop-color:#235977"/>
		<stop  offset="1" style="stop-color:#204D6A"/>
	</linearGradient>
	<path class="st24" d="M272.9,626.3c-2.4-0.9-6.8-2.5-9.6-3.5c-1.5-0.5-2.4-2-2.1-3.6l1.5-9.2l-10.6,3.2l-1.9,11.5
		c-0.2,1.5,0.2,3.1,1.3,4.2l5.1,5.2c0.5,0.5,1.3,0.7,2,0.4l14.4-6.9C273.6,627.3,273.6,626.5,272.9,626.3z"/>
	<path class="st0" d="M282.5,564.4v40.1c0,2.4-1.4,4.5-3.5,5.6l-47.4,22.8c-2.9,1.4-6.4-0.7-6.4-4v-37.4c0-3.5,2-6.7,5.1-8.2
		l46.5-22.4C279.5,559.7,282.5,561.5,282.5,564.4z"/>
	<path class="st0" d="M285.1,627.4l-1.5,0.7c-0.7,0.3-1.5,0.3-2.2,0l-3.4-1.6c-1.5-0.7-1.5-2.9,0-3.6l0.8-0.4c1-0.5,2.2-0.5,3.3,0
		l3,1.5C286.6,624.6,286.6,626.7,285.1,627.4z"/>
	<path class="st25" d="M278.8,623.1c-3.1-1.6-7.7,1.2-9.1,0c-1.3-1.1,1.7-3.1,0.7-4c-0.9-0.7-8.8,2.3-8.8,2.3"/>
	<g>
		<path class="st0" d="M262.2,628.4c0-1.8-3.1-3.3-6.9-3.3c-3.8,0-6.9,1.5-6.9,3.3v12.2c0,0.5,0.2,0.9,0.5,1.3
			c0.1,0.1,0.2,0.3,0.3,0.3c1.2,1,3.5,1.7,6.2,1.7c2.5,0,4.7-0.6,6-1.6c0.1-0.1,0.2-0.2,0.4-0.4c0.3-0.3,0.5-0.8,0.5-1.3
			C262.2,638,262.2,628.5,262.2,628.4z"/>
		<path class="st1" d="M261.9,628.7L261.9,628.7c0,0.2-0.1,0.4-0.2,0.6c-0.2,0.2-0.5,0.6-0.7,0.7c-1.2,0.9-3.3,1.5-5.7,1.5
			c-2.5,0-4.7-0.6-5.8-1.6c-0.1-0.1-0.4-0.4-0.5-0.6c-0.1-0.2-0.2-0.4-0.2-0.6l0,0c0-1.7,2.9-3.1,6.6-3.1
			C259.1,625.6,261.9,627,261.9,628.7z"/>
		<path class="st3" d="M261,630c-1.2,0.9-3.3,1.5-5.7,1.5c-2.5,0-4.7-0.6-5.8-1.6c1.1-0.9,3.3-1.6,5.7-1.6
			C257.7,628.3,259.9,629,261,630z"/>
		<path class="st2" d="M257.9,627.8c-0.4,0-0.8,0.1-1.2,0.1c-0.1,0-0.2,0-0.3-0.1c-1.2-1.1-4.1,0.6-1.3,0.8c0.2,0,0.3,0.1,0.3,0.3
			c0,0.7,1.3,1,2.5,1C261,630.1,261.3,627.8,257.9,627.8z"/>
		<path class="st0" d="M264.9,635v3.9c0,1.4-1.5,2.3-2.7,1.7l-1.5-0.8c-0.8-0.4-0.8-1.5,0-1.9l0,0c0.3-0.1,0.6-0.1,0.9,0l0.5,0.3
			c0.2,0.1,0.4,0,0.4-0.2v-2.2l0,0c0-0.3-0.2-0.5-0.4-0.6l-1.4-0.7c-0.8-0.4-0.8-1.6,0-2l0,0c0.3-0.1,0.7-0.1,1,0l2.3,1.1
			C264.6,633.8,264.9,634.4,264.9,635z"/>
	</g>
</g>
<g id="kBoy">
	<path class="st1" d="M299,478.2c-0.3,0-1-0.2-1.1-0.3c-1.5-2.7-4.5-5-8.7-6.8c-1.4-0.6-3-1.2-4.7-1.7c-4.5-1.3-9.8-2-15.4-2
		c-6,0-11.5,0.8-16.2,2.3c-1.4,0.4-2.7,0.9-3.8,1.4c-5.7,2.4-9.5,6.1-9.5,10.3c0,1.2,0.3,2.3,0.8,3.4c0.6,1.1,1.4,2.2,2.5,3.2
		c3.9,3.6,10.9,6.3,19.3,7.3c-0.2,0.3-0.2,0.6-0.2,0.9c0,2,3.4,3.7,7.6,3.7s7.6-1.7,7.6-3.7c0-0.3-0.1-0.7-0.3-1
		c7.1-0.9,13.2-3,17.2-5.9c0.6-0.4,1.1-0.8,1.6-1.3c0.8-0.8,1.5-1.6,2-2.4c0.4,0,0.8,0.1,1.3,0.1c4.2,0,7.6-1.7,7.6-3.7
		S303.2,478.2,299,478.2z"/>
	<path class="st3" d="M253.1,476.3c1-0.3,2.1-0.6,3.2-0.9c3.9-1,8.4-1.5,13.1-1.5c4.4,0,8.5,0.5,12.3,1.3l0,0c1.3,0.3,2.7,0.6,3.9,1
		c2.7,0.8,5.1,1.9,7.1,3.1c2.2,1.3,3.8,2.8,4.9,4.4c0.2,0.3,0.4,0.7,0.6,1c-0.1,0.1-0.1,0.3-0.2,0.4c-0.5,1-1.3,1.9-2.2,2.8
		c-0.5,0.5-1,0.9-1.6,1.3c-5.3,3.9-14.4,6.4-24.8,6.4c-11.5,0-21.5-3.1-26.4-7.7c-1.1-1-1.9-2.1-2.5-3.2
		C242.3,481.2,246.8,478.2,253.1,476.3z"/>
	<path class="st7" d="M294.2,483.2c-0.4-0.7-0.9-1.3-1.5-1.9c-0.3-0.4-0.7-0.7-1.1-1c-1.7-1.2-3.8-2-6-2v-3.5c0.5-0.8,1-1.7,1.3-2.6
		c0.1,0,0.2,0,0.3,0c0.8,0,1.5-0.6,2.1-1.6c0.8-1.4,1.3-3.5,1.3-6c0-4.2-1.5-7.5-3.4-7.5c-0.1,0-0.2,0-0.3,0
		c-2.9-6.9-9.7-11.7-17.6-11.7s-14.7,4.8-17.6,11.7c-0.1,0-0.2,0-0.3,0c-1.9,0-3.4,3.4-3.4,7.5c0,2.4,0.5,4.6,1.3,6
		c0.6,1,1.3,1.6,2.1,1.6c0.1,0,0.2,0,0.3,0c0.4,0.9,0.8,1.8,1.4,2.6v3.5c-5.4,0.1-9.8,4.2-10.2,9.5c4.9,4.6,14.9,7.7,26.4,7.7
		c10.4,0,19.5-2.5,24.8-6.4l0,0c0.6-0.4,1.1-0.8,1.6-1.3c0.9-0.9,1.7-1.8,2.2-2.8C298.1,485.1,294.3,483.2,294.2,483.2z"/>
	
		<radialGradient id="SVGID_10_" cx="262.5386" cy="203.05" r="16.4058" gradientTransform="matrix(-1 0 0 -1 531.8 668)" gradientUnits="userSpaceOnUse">
		<stop  offset="0" style="stop-color:#FBB03B"/>
		<stop  offset="1" style="stop-color:#F7931E"/>
	</radialGradient>
	<path class="st26" d="M253.1,462c0.2-1.1,0.5-2.1,0.9-3.1c2.5-6.1,8.4-10.4,15.3-10.4c0.5,0,1.1,0,1.7,0.1s1.2,0.2,1.8,0.3
		c1.1,0.2,2.1,0.6,3.1,1c0.7,0.3,1.3,0.6,1.9,1c4.4,2.7,7.5,7.4,7.9,12.9c0,0.4,0,0.8,0,1.2c0,5.9-3.2,11.1-7.9,14
		c-2.5,1.5-5.4,2.4-8.5,2.4c-9.1,0-16.4-7.3-16.4-16.4C252.9,463.9,253,463,253.1,462z"/>
	
		<linearGradient id="SVGID_11_" gradientUnits="userSpaceOnUse" x1="254.5555" y1="911.6" x2="269.7555" y2="911.6" gradientTransform="matrix(-1 0 0 1 531.8 -416)">
		<stop  offset="0" style="stop-color:#FFFFFF"/>
		<stop  offset="1" style="stop-color:#EEF2F4"/>
	</linearGradient>
	<ellipse class="st27" cx="269.6" cy="495.6" rx="7.6" ry="3.7"/>
	
		<linearGradient id="SVGID_12_" gradientUnits="userSpaceOnUse" x1="225.1554" y1="897.5" x2="240.4554" y2="897.5" gradientTransform="matrix(-1 0 0 1 531.8 -416)">
		<stop  offset="0" style="stop-color:#FFFFFF"/>
		<stop  offset="1" style="stop-color:#EEF2F4"/>
	</linearGradient>
	<path class="st28" d="M291.6,480.5c0.3-0.4,0.6-0.8,1.1-1.1c1.2-0.9,3.1-1.5,5.3-1.6c0.3,0,0.7,0,1,0c4.2,0,7.6,1.7,7.6,3.7
		s-3.4,3.7-7.6,3.7c-0.1,0-0.3,0-0.4,0c-0.3,0-0.5,0-0.7,0c-1.1,0-2.1-0.2-3-0.5c-0.6-0.2-1.1-0.5-1.6-0.7c-1.3-0.7-2-1.5-2-2.5
		C291.3,481.1,291.4,480.8,291.6,480.5z"/>
	<path class="st29" d="M275,452.1c0,2.6-2.5,4.7-5.6,4.7s-5.6-2.1-5.6-4.7c0-1.2,0.5-2.3,1.4-3.1l0,0c1.3-0.3,2.7-0.5,4.1-0.5
		c0.5,0,1.1,0,1.7,0.1s1.2,0.2,1.8,0.3c0.2,0,0.4,0.1,0.6,0.1C274.4,449.8,275,450.9,275,452.1z"/>
	<path class="st30" d="M285.7,463.8v1.2c0,5.9-3.2,11.1-7.9,14c-2.5,1.5-5.4,2.4-8.5,2.4c-3.2,0-6.2-0.9-8.7-2.5
		c-0.2-0.9-0.3-1.9-0.3-2.8c0-9,7.5-16.3,16.6-16.3c3.1,0,6,0.8,8.5,2.3C285.6,462.5,285.7,463.1,285.7,463.8z"/>
</g>
<g id="flash">
	<path id="flashLightLeft" class="st31" d="M308.5,483.4c0,0.5-0.1,1.1-0.3,1.6c-2,6.7-9.2,10.2-15.3,12.5
		c-17.7,6.5-57.6,6.1-62.1-14.9c3.5-19.4,20.2-100.1,23.7-117.6c3.2,6.3,24.1,6.3,27.2-0.1C285.6,382.5,303.2,460,308.5,483.4
		L308.5,483.4z"/>
	<path id="flashLightRight" class="st31" d="M566.4,671.9c-2.8,24.1-72.1,25.5-77.7,0.7c5.2-23.3,22.8-100.4,26.8-118.2
		c3.3,6.2,23.9,6.2,27.3,0.1C546.3,572.3,562.8,652.5,566.4,671.9z"/>
	<polygon id="flashPanel" class="st3" points="320,911.6 301.5,920.6 284.8,906.9 303.4,897.9 	"/>
	<path id="flashScreen" class="st3" d="M280.1,566.3V597c0,1.6-0.9,3-2.3,3.7l-46,22.4c-0.9,0.4-1.9-0.2-1.9-1.2v-31.1
		c0-2.2,1.2-4.2,3.2-5.1l43.9-21.3C278.4,563.7,280.1,564.7,280.1,566.3z"/>
</g>
<g id="scrollDown">
	<path class="st7" d="M239.7,826.1c0-2.6,0.6-5,1.6-6.8c1.3-2.4,3.1-4.3,5.1-5.6c0.3,1.4,0.5,2.1,0.8,3.4c-1.5,1-2.6,2.3-3.5,3.8
		c-0.6,1.1-0.9,2.3-0.9,3.6c0,1.2,0.3,2.2,0.8,2.8c0.5,0.7,1.4,0.6,2.4,0.2c0.7-0.3,1.5-1,2.2-2.2s1.4-2.9,2-5.2
		c0.6-2.1,1.3-4.4,2.4-6.3c1-1.8,2.4-3.1,3.8-3.9c1.8-0.9,3.4-0.8,4.6,0.3c1.1,1.1,1.7,2.8,1.7,5.2c0,2-0.5,4.1-1.5,6.2
		c-1,2.1-2.3,3.6-4,4.7c-0.5-1.2-0.7-1.9-1.2-3.1c1.1-0.7,2.1-1.8,2.8-3.2c0.5-1,0.7-2.1,0.7-3.2c0-1.3-0.3-2.2-0.7-2.7
		c-0.4-0.5-1.1-0.6-2.2-0.1c-1.3,0.6-2.3,2.1-3,4.6c-0.4,1.1-0.5,1.7-0.9,2.9c-0.9,2.8-1.8,4.9-2.8,6.5c-1,1.7-2.3,2.9-4.1,3.7
		c-1.9,0.9-3.5,0.8-4.6-0.3C240.3,830.3,239.7,828.4,239.7,826.1z"/>
	<path class="st7" d="M258.1,848.4c-0.5-1.2-0.7-1.9-1.2-3.1c1.8-1.3,2.9-3.3,2.8-5.6c0-1.6-0.7-2.7-1.7-3.2c-1.2-0.5-3.4,0-6.7,1.5
		c-3.1,1.4-5.4,3.1-6.8,4.9c-1.2,1.6-1.9,3.6-1.7,5.6c0.2,1.6,1.3,2.4,3,2.1c-0.4,1.7-0.6,2.6-1,4.3c-1.6,0.2-2.7-0.2-3.5-0.9
		c-1-0.9-1.6-2.5-1.6-4.8c0.1-3.3,1.2-6.3,3.1-8.7c2.3-2.9,5.1-5,8.3-6.5c3.7-1.7,6.6-2.3,8.5-1.6c2,0.8,3.1,2.9,3.1,5.8
		C262.8,842.2,261.2,845.8,258.1,848.4z"/>
	<path class="st7" d="M262.6,852.1c-7.5,3.5-15,7.1-22.5,10.6c0,1.7,0,2.5,0,4.2c3.7-1.8,5.6-2.6,9.3-4.4c0,1.4,0,2.1,0,3.5
		c-3.2,3.8-6.4,7.5-9.7,11.2c0.7,1.1,1,1.6,1.7,2.7c3.5-4.1,5.2-6.2,8.7-10.3c0.3,1.6,1,2.7,2,3.1c1,0.4,2.4,0.3,3.9-0.4
		c2.2-1,3.8-2.6,4.9-4.7c1.2-2.3,1.7-4.7,1.7-7.3C262.6,857.1,262.6,855.4,262.6,852.1z M258.8,865.5c-0.4,1.2-1.3,2.1-2.6,2.7
		c-1.4,0.7-2.4,0.6-2.9,0c-0.5-0.7-0.8-2-0.8-3.8c0-1.3,0-2,0-3.3c2.8-1.3,4.1-2,6.9-3.3c0,1.3,0,1.9,0,3.2
		C259.5,862.9,259.3,864.3,258.8,865.5z"/>
	<path class="st7" d="M258.9,877.7c-2.1-0.4-4.8,0.1-7.4,1.2c-2.9,1.3-5.4,3.3-7.6,5.8c-2.5,2.8-3.9,6.1-3.9,9.6
		c0,3.4,1.5,5.3,3.9,5.9c1.8,0.4,4.4,0.2,7.6-1.3c2.8-1.3,5.3-3.3,7.4-5.7c2.6-2.9,4.2-6.3,4.1-9.6
		C262.9,880.4,261.3,878.2,258.9,877.7z M256.7,891.4c-1.7,1.5-3.7,2.7-5.3,3.4c-1.7,0.7-3.6,1.4-5.1,1.4c-1.8,0.1-3.2-1.3-3.2-3.3
		c0-2.2,1.1-4.6,3.1-6.3c2.4-1.9,4.4-3,5.1-3.3c1.7-0.8,3.5-1.5,5.3-1.6c1.9-0.1,3.1,1.1,3.3,3.3C260,887.1,258.9,889.4,256.7,891.4
		z"/>
	<path class="st7" d="M243.4,911.5c0,4.7,0,9.4,0,14c-1.3,0.6-1.9,0.9-3.2,1.5c0-6.1,0-12.2-0.1-18.2c7.5-3.5,15-7,22.5-10.5
		c0,1.7,0,2.5,0,4.2C256.3,905.5,249.9,908.5,243.4,911.5z"/>
	<path class="st7" d="M243.5,935.2c0,4.7,0,9.4,0,14c-1.3,0.6-1.9,0.9-3.2,1.5c0-6.1,0-12.2-0.1-18.2c7.5-3.5,15-7,22.5-10.4
		c0,1.7,0,2.5,0,4.2C256.4,929.2,250,932.2,243.5,935.2z"/>
	<path class="st7" d="M236.1,865.8c-7.5,3.5-15,7-22.5,10.5c0,1.3,0,1.9,0,3.2c0,4.3,0.9,7.6,2.6,9.2c1.7,1.6,4.8,1.6,8.7-0.1
		c3.7-1.6,6.8-4.4,8.6-8c1.8-3.5,2.5-7.7,2.5-12.2C236.1,867.4,236.1,866.8,236.1,865.8z M231.2,878.9c-1.4,2.4-3.4,4.4-6.2,5.5
		c-2.6,1.1-4.9,1.3-6.2,0.5s-2-2.9-2-5.8c5.4-2.5,10.8-5,16.2-7.6C233,874.5,232.3,877,231.2,878.9z"/>
	<path class="st7" d="M232.3,890c-2.1-0.4-4.8,0.1-7.4,1.2c-2.9,1.3-5.4,3.3-7.6,5.8c-2.5,2.8-3.9,6.1-3.9,9.6c0,3.4,1.5,5.2,4,5.8
		c1.8,0.4,4.4,0.1,7.6-1.4c2.8-1.3,5.3-3.4,7.4-5.7c2.6-2.9,4.2-6.2,4.1-9.6C236.3,892.7,234.7,890.5,232.3,890z M230.1,903.6
		c-1.7,1.5-3.7,2.7-5.3,3.4c-1.7,0.7-3.6,1.4-5.1,1.5c-1.8,0.1-3.2-1.3-3.2-3.3c0-2.2,1.1-4.6,3.1-6.3c2.4-1.9,4.4-3,5.1-3.3
		c1.7-0.8,3.5-1.5,5.3-1.6c1.9-0.1,3.1,1.1,3.2,3.3C233.4,899.2,232.3,901.6,230.1,903.6z"/>
	<path class="st7" d="M213.7,926.5c0-2.6,0-3.9,0-6.5c7.5-3.9,15-7.8,22.5-11.7c0,1.6,0,2.3,0,3.9c-5.9,3-11.9,6-17.8,9
		c-1.2,0.7-1.8,1-3,1.7c5.5-1.2,11.1-2.3,16.6-3.5c0,1.3,0,2,0,3.3c-5.5,4.1-11,8.2-16.4,12.3c1.1-0.4,1.7-0.6,2.8-1
		c5.9-2.6,11.9-5.1,17.8-7.7c0,1.5,0,2.3,0,3.8c-7.5,3.1-14.9,6.2-22.4,9.2c0-2.6,0-3.9,0-6.4c4.3-3.1,8.5-6.2,12.8-9.2
		C221.4,924.9,218.8,925.4,213.7,926.5z"/>
	<path class="st7" d="M236.3,947.9c0,1.5,0,2.3,0,3.8c-7.5,3.6-14.9,7.2-22.4,10.9c0-1.8,0-2.7,0-4.5c5.8-6.2,11.5-12.7,17.8-18.4
		c-5.9,2.8-11.9,5.7-17.8,8.5c0-1.5,0-2.3,0-3.8c7.5-3.6,15-7.2,22.4-10.8c0,1.9,0,2.9,0,4.8c-5.7,6-11.2,12.3-17.4,17.9
		C224.7,953.5,230.5,950.7,236.3,947.9z"/>
</g>
<g id="kentoSato">
	<path class="st7 satoken" d="M186.9,251.1c1.2,1.4,2,2.9,2.3,4.6c0.3,1.6,0,2.8-0.9,3.7c-4.7,4.7-7,7.1-11.7,11.8
		c4.6,9.1,6.9,13.7,11.4,22.8c0.8,1.6,1.1,3.1,0.8,4.5c-0.3,1.3-1.1,2.1-2.3,2.4c-0.9,0.2-1.9,0-3-0.6c-1.9-0.9-3.4-2.4-4.5-4.6
		c-4.7-9.5-7.1-14.2-11.9-23.7c-4.8-2.3-7.2-3.5-12-5.7c0,6,0,9,0,14.9c0,1.5-0.5,2.6-1.6,3.1c-1.1,0.6-2.3,0.5-3.8-0.2
		s-2.8-1.9-3.8-3.4c-1.1-1.6-1.6-3.1-1.6-4.6c0-13.6,0-27.2,0-40.8c0-1.5,0.5-2.5,1.6-3.1s2.4-0.5,3.9,0.2s2.8,1.9,3.8,3.5
		c1.1,1.6,1.6,3.1,1.6,4.6c0,6,0,9,0,14.9c4.8,2.3,7.2,3.5,12,5.8c4.8-4.9,7.2-7.3,12.1-12.2c0.8-0.9,2-1.1,3.5-0.7
		C184.3,248.8,185.7,249.7,186.9,251.1z"/>
	<path class="st7 satoken" d="M202.5,309.4c-1.5-0.7-2.8-1.9-3.8-3.4c-1-1.6-1.6-3.1-1.6-4.6c0.1-13.5,0.2-27.1,0.4-40.6
		c0-1.5,0.6-2.5,1.6-3.1c1.1-0.6,2.4-0.5,3.9,0.2c11.4,5.4,22.7,10.9,34.1,16.3c1.5,0.7,2.8,1.9,3.9,3.5c1,1.6,1.6,3.1,1.5,4.6
		c0,1.5-0.6,2.5-1.6,3.1c-1.1,0.5-2.4,0.4-3.9-0.3c-9.5-4.6-19.1-9.2-28.6-13.7c0,3.8-0.1,5.7-0.1,9.5c8.7,4.2,13.1,6.3,21.8,10.4
		c1.5,0.7,2.8,1.9,3.9,3.4c1.1,1.6,1.6,3.1,1.5,4.6c0,1.5-0.6,2.5-1.6,3.1c-1.1,0.5-2.4,0.4-3.9-0.3c-8.7-4.2-13.1-6.3-21.8-10.4
		c0,3.8-0.1,5.7-0.1,9.5c9.5,4.6,19.1,9.1,28.6,13.7c1.5,0.7,2.8,1.9,3.9,3.4c1.1,1.6,1.6,3.1,1.5,4.6c0,1.5-0.6,2.6-1.6,3.1
		c-1.1,0.5-2.4,0.4-3.9-0.3C225.2,320.2,213.9,314.8,202.5,309.4z"/>
	<path class="st7 satoken" d="M254.4,282.8c1.1,0.1,2.2,0.6,3.3,1.4c1.1,0.8,2,1.9,2.8,3.1c8,13.6,16.1,27.2,24.1,40.9
		c0.1-10.3,0.2-15.4,0.3-25.7c0-1.5,0.6-2.5,1.6-3.1c1.1-0.6,2.4-0.5,3.9,0.2s2.8,1.9,3.9,3.5c1,1.6,1.6,3.1,1.6,4.6
		c-0.2,13.5-0.3,27.1-0.5,40.6c0,1.1-0.4,2-1,2.6c-0.7,0.6-1.5,0.9-2.6,0.7c-0.6-0.1-1.2-0.3-1.9-0.6c-1.7-0.8-3.1-2.1-4.2-4
		c-8-13.6-16.1-27.2-24.1-40.9c-0.1,10.3-0.2,15.4-0.3,25.6c0,1.5-0.6,2.5-1.6,3.1c-1.1,0.5-2.4,0.5-3.9-0.3
		c-1.5-0.7-2.8-1.9-3.9-3.4c-1-1.6-1.6-3.1-1.5-4.6c0.2-13.5,0.3-27.1,0.5-40.6c0-1.1,0.4-2,1-2.6
		C252.4,283,253.3,282.7,254.4,282.8z"/>
	<path class="st7 satoken" d="M308,319.1c-1.5-0.7-2.8-1.9-3.9-3.4c-1.1-1.6-1.6-3.1-1.6-4.6s0.6-2.5,1.6-3.1c1.1-0.6,2.4-0.5,3.9,0.2
		c11.4,5.5,22.7,10.9,34.1,16.4c1.5,0.7,2.8,1.9,3.9,3.5s1.6,3.1,1.6,4.6s-0.6,2.5-1.6,3.1c-1.1,0.5-2.4,0.4-3.9-0.3
		c-4.6-2.2-7-3.3-11.6-5.6c-0.1,11.8-0.2,23.5-0.3,35.3c0,1.5-0.6,2.5-1.6,3.1c-1.1,0.5-2.4,0.5-3.9-0.3c-1.5-0.7-2.8-1.9-3.9-3.5
		s-1.6-3.1-1.6-4.6c0.1-11.8,0.2-23.5,0.4-35.3C314.9,322.4,312.6,321.3,308,319.1z"/>
	<path class="st7 satoken" d="M410.8,398.5c1.3,0.6,2.4,0.7,3.4,0.2c0.9-0.5,1.4-1.4,1.4-2.7c0-1.3-0.5-2.7-1.4-4c-0.9-1.4-2-2.4-3.4-3
		c-5.5-2.6-8.2-3.9-13.6-6.6c-4.3-2.1-8-5.4-11.1-9.9c-3-4.5-4.6-8.9-4.5-13.3c0-4.3,1.6-7.2,4.7-8.8c3.1-1.6,6.8-1.3,11.1,0.7
		c9.5,4.6,14.3,6.9,23.8,11.4c1.5,0.7,2.8,1.9,3.9,3.5s1.6,3.1,1.6,4.6s-0.5,2.5-1.6,3.1c-1.1,0.5-2.4,0.5-3.9-0.3
		c-9.5-4.6-14.3-6.9-23.8-11.5c-1.3-0.6-2.4-0.7-3.4-0.2c-0.9,0.5-1.4,1.4-1.4,2.7c0,1.3,0.5,2.7,1.4,4.1s2,2.4,3.4,3
		c5.5,2.6,8.2,3.9,13.6,6.6c4.3,2.1,8,5.4,11.1,9.9s4.6,9,4.6,13.3s-1.6,7.3-4.6,8.9c-3.1,1.6-6.8,1.3-11.1-0.7
		c-9.6-4.6-14.3-6.9-23.9-11.5c-1.5-0.7-2.8-1.9-3.9-3.5s-1.6-3.1-1.6-4.6s0.5-2.5,1.6-3.1c1.1-0.5,2.4-0.5,3.9,0.3
		C396.4,391.6,401.2,393.9,410.8,398.5z"/>
	<path class="st7 satoken" d="M481.8,435.6c-6.8-16.9-13.6-33.8-20.4-50.7c-0.5-1.2-1.1-2.2-2-3.2s-1.9-1.7-2.9-2.2c-1.1-0.5-2-0.7-2.9-0.6
		c-0.9,0.2-1.5,0.6-2,1.3c-6.8,10.4-13.7,20.7-20.5,31.1c-0.7,1-0.8,2.3-0.3,4c0.4,1.7,1.3,3.2,2.7,4.5s2.8,2.1,4.4,2.2
		c1.5,0.2,2.5-0.2,3.2-1.2c1.4-2.2,2.2-3.3,3.6-5.5c9.6,4.6,14.4,6.9,23.9,11.5c1.4,3.5,2.1,5.3,3.6,8.9c0.4,1.1,1.1,2.2,2,3.2
		c0.8,1,1.8,1.7,2.8,2.2c0.8,0.4,1.6,0.6,2.4,0.6c1.3,0,2.2-0.6,2.7-1.8C482.6,438.7,482.5,437.3,481.8,435.6z M449.9,407.1
		c2.6-4,3.9-5.9,6.5-9.9c2.6,6.4,3.9,9.6,6.5,16.1C457.7,410.8,455.1,409.6,449.9,407.1z"/>
	<path class="st7 flashT" d="M480.2,401.9c-1.5-0.7-2.8-1.9-3.9-3.4c-1.1-1.6-1.6-3.1-1.6-4.6s0.5-2.5,1.6-3.1s2.3-0.5,3.9,0.2
		c11.3,5.4,22.6,10.9,33.8,16.3c1.5,0.7,2.8,1.9,3.9,3.5c1.1,1.6,1.6,3.1,1.6,4.6s-0.5,2.5-1.6,3.1c-1.1,0.5-2.4,0.5-3.8-0.3
		c-4.6-2.2-6.9-3.3-11.5-5.5c0,11.8,0,23.6,0.1,35.5c0,1.5-0.5,2.6-1.6,3.1c-1.1,0.6-2.3,0.5-3.8-0.2s-2.8-1.9-3.9-3.4
		c-1.1-1.6-1.6-3.1-1.6-4.6c0-11.8,0-23.6-0.1-35.5C487.1,405.2,484.8,404.1,480.2,401.9z"/>
	<path class="st7 satoken" d="M564.4,439.1c-5-7.4-11-12.9-18.1-16.3c-7-3.4-13.1-3.8-18.1-1.1c-5,2.6-7.5,7.5-7.5,14.7
		c0,7.1,2.5,14.5,7.5,21.9c5,7.5,11.1,12.9,18.1,16.3c7.1,3.4,13.1,3.8,18.1,1.1s7.5-7.6,7.5-14.7S569.4,446.6,564.4,439.1z
		 M556.9,464.2c-2.9,1.6-6.4,1.4-10.5-0.6c-4.1-1.9-7.6-5.1-10.5-9.4s-4.4-8.6-4.4-12.7s1.4-7,4.3-8.5c2.9-1.6,6.4-1.4,10.5,0.6
		s7.6,5.1,10.5,9.5s4.4,8.6,4.4,12.7C561.2,460,559.8,462.8,556.9,464.2z"/>
</g>
<linearGradient id="SVGID_13_" gradientUnits="userSpaceOnUse" x1="566.6695" y1="585.0215" x2="721.824" y2="740.176">
	<stop  offset="0" style="stop-color:#427D8D"/>
	<stop  offset="1" style="stop-color:#143951"/>
</linearGradient>
<g id="intoLay"><polygon class="st32" points="730,486.7 604.3,547.4 604.3,681.2 542.3,711.6 542.3,822.3 730,732 "/></g>
</svg>
