<?xml version="1.0" encoding="UTF-8"?><svg id="_レイヤー_2" xmlns="http://www.w3.org/2000/svg" viewBox="0 0 1904.78 183.03"><g id="_レイヤー_1-2"><g><path d="M1902.4,141.59c-1.5-3.48-3.64-6.65-6.31-9.34-11.71-11.78-30.75-11.84-42.54-.13-8.66,8.56-11.21,21.55-6.43,32.75,3.06,7.15,8.79,12.83,15.97,15.83h0c11.24,4.68,24.19,2.17,32.87-6.36,8.66-8.56,11.21-21.55,6.43-32.75Zm-16.52,23.62c-6.38,6.14-16.53,5.95-22.67-.43-6.14-6.38-5.95-16.53,.43-22.67,2.96-2.92,6.96-4.53,11.12-4.48,4.36,0,8.53,1.77,11.55,4.91,6.14,6.38,5.95,16.53-.43,22.67Z"/><path d="M1547.29,21.8c-3.1-2.53-14.89-9.62-20.43-12.92-1.53-.91-3.49-.26-4.19,1.37-1.14,2.67-8.78,15.18-11.54,18.3h0c-12.85,15.17-27.06,29.12-42.47,41.68-8.93,7.45-18.26,14.4-27.96,20.81-8.42,5.47-24.71,14.48-32.37,18.67-1.84,1.01-1.91,3.63-.12,4.73,4.7,2.89,12.12,7.6,14.59,10.07,1.23,1.43,3.02,2.27,4.91,2.29,1.23,.02,2.43-.3,3.49-.93,9.33-5.06,18.35-10.69,26.99-16.85,6.71-4.71,13.49-9.85,19.88-14.88,4.11-3.23,6.64,.32,6.64,3.2v35.86c0,7.94-.2,15.56-.42,23.62-.15,5.58-.3,11.36-.38,17.33-.19,1.14,.09,2.31,.78,3.24,.82,.73,1.9,1.1,2.99,1.01h0c3.2,.19,6.57,.3,10.03,.3s6.83-.1,10.03-.3c1.14,.09,2.27-.29,3.12-1.06,.75-.95,1.06-2.19,.85-3.38-.37-14.8-.6-26.91-.6-41.55v-53.24c0-9.75,4.83-17.13,8.42-21.02,5.22-5.66,10.05-10.84,14.74-16.48,5.52-5.93,8.6-8.76,11.79-10.82,1.88-1.11,3.1-3.07,3.26-5.24,.01-1.52-.74-2.95-2-3.8Z"/><g><path d="M1795.11,45.06c-.1-.83-.82-1.45-1.66-1.41-.88,.12-1.65,.64-2.11,1.39-7.04,9.01-14.65,17.56-22.78,25.61-7.89,7.78-16.89,15.67-30.1,26.38-20.19,16.19-33.07,24.51-57.43,37.09-7.75,3.95-19.47,7.7-24.98,9.36-1.54,.46-2.18,2.27-1.3,3.61,3.29,4.99,10.42,15.6,14.99,20.78h0c1.43,1.66,2.86,2.53,4.15,2.53,1.38,0,2.74-.73,4.31-2.29,1.78-1.78,4.51-3.83,13.2-9.04,13.24-7.36,24.41-14.02,34.15-20.38,9.16-5.98,17.54-11.99,26.36-18.9,8.84-6.8,17.8-14.36,25.92-21.86,7.13-6.51,13.89-13.41,20.23-20.69,2.23-2.63,3.44-4.47,3.44-6.65-.07-1.45-.44-2.87-1.08-4.18-2.67-6.87-4.46-14.05-5.31-21.37Z"/><path d="M1690.17,78.5h.01s0,0,0,0c1.14,1.14,2.13,1.89,3.31,1.89,1.21,0,2.01-.79,3.11-1.89l.02-.02c2.75-2.95,9.38-10.97,12.46-15.07,.83-.87,1.33-2.01,1.41-3.21,0-1.18-.77-2.18-2.09-3.51l-.02-.02c-6.23-5.81-12.78-11.25-19.64-16.3-5.96-4.52-12.22-8.61-18.75-12.25-.91-.65-1.98-1.04-3.09-1.13-1.42,.07-2.73,.79-3.55,1.94-3.61,3.8-8.1,8.88-11.18,12.4-1.9,2.17-1.45,5.51,.94,7.11,5.09,3.41,13.24,8.95,17.66,12.49,6.84,5.43,13.32,11.3,19.4,17.56Z"/></g><g><path d="M1343.09,61.91c-.02-.96-.23-1.91-.62-2.78-.56-.93-1.6-1.46-2.69-1.35-.17,0-.36,0-.55,.02-8.75,.38-19.74,.6-30.14,.6,0,0-2.96,.42-4.46-.62s-1.54-3.55-1.54-3.55v-13.82c0-8.86,.23-13.7,1.54-17.25,.52-1.25,.81-2.59,.86-3.95,.05-1.01-.34-1.99-1.06-2.7-.94-.78-2.08-1.29-3.29-1.47-5.13-1.49-17.1-2.75-23.54-3.42l-1.35-.14,.27,1.33c1.38,6.9,1.98,16.05,1.78,27.18l-.14,14.05c-.24,1.16-.81,2.23-1.64,3.09-1.01,.77-2.2,1.28-3.45,1.49h-31.23c-1.19,.05-2.38-.23-3.41-.82-.77-.75-1.25-1.75-1.33-2.82v-9.96c0-13.66,0-15.41,1.33-18.84h0c.08-.21,.15-.41,.23-.61,.57-1.25,.92-2.59,1.04-3.96,.03-.92-.32-1.82-.97-2.48-.78-.71-1.76-1.16-2.8-1.29-4.27-1.21-13.63-2.17-24.53-3.22l-1.3-.12,.22,1.29c1.98,11.51,2.39,16.42,2.39,29.23v8.99s.25,2.64-1,3.79-4,.82-4,.82c-14.47,0-27.85-.37-36.73-1l-1.12-.08,.05,1.13c.07,1.36,.13,2.69,.19,3.97,.29,6.4,.55,11.94,1.22,15.51,.02,1.13,.3,2.25,.81,3.26,.53,.92,1.52,1.46,2.58,1.41h.07c6.31-.41,22.27-1,32.94-1,1.43,.29,2.72,1.04,3.7,2.12,.82,1.35,1.27,2.9,1.3,4.48,0,13.56-.48,23.74-1,32.73-.15,.9,.08,1.83,.63,2.56,.85,1,2.32,1.19,3.89,1.31,2.67,.2,5.7,.3,8.75,.3s6.02-.1,8.6-.3h.01c1.07-.02,2.13-.3,3.07-.81,.97-.69,1.46-1.88,1.24-3.06-.6-10.57-.6-21.53-.6-33.13,.07-1.47,.57-2.89,1.43-4.08,1.08-1.05,3.01-2.12,5.23-2.12,0,0,28.74-.08,29.34,.04,2.92,.56,4.83,3.39,4.26,6.3-1.21,19.83-4.47,31.9-11.32,43.14-2.46,3.98-5.34,7.68-8.61,11.03-3.41,3.47-7.18,6.55-11.26,9.2-4.67,3.02-9.58,5.64-14.69,7.83-3.79,1.63-11.03,4.17-16.04,5.88-2.05,.7-2.34,3.48-.48,4.58,4.24,2.51,10.22,6.37,13.81,10.09h.01s0,0,0,0c1.54,1.54,2.83,2.49,4.51,2.49,1.36,0,3.02-.6,5.99-1.88,5.12-2.08,10.1-4.47,14.93-7.16,4.55-2.53,8.9-5.4,13.02-8.58,3.94-3.05,7.61-6.43,10.96-10.11,3.29-3.63,6.22-7.57,8.76-11.76,5-8.19,8.73-17.1,11.04-26.42,2.32-9.75,3.73-19.7,4.2-29.71,.11-1.81,.53-4.65,7.51-4.99,5.34,0,11.49,.06,16.91,.11,4.51,.04,8.77,.09,11.86,.09,.28,.02,.54,.03,.78,.03,1.09,.12,2.16-.31,2.87-1.14,.53-.91,.81-1.95,.79-3.01,.4-5.31,.41-10.65,0-15.96h0Z"/><path d="M1346.2,39.6c-4.16-9.31-9.97-18.45-15.56-24.45-.58-.82-1.51-1.33-2.51-1.38-.48,.01-.96,.12-1.41,.31l-12.07,5.59,.9,1.01c3.32,3.71,6.29,7.71,8.9,11.96,2.69,4.42,5.08,9.03,7.14,13.78l.02,.04c.27,.58,.66,1.1,1.14,1.53,.49,.41,1.1,.63,1.74,.62,.65-.02,1.29-.19,1.86-.5l8.2-4.2c2-1,2.51-2.32,1.67-4.29h0Z"/><path d="M1349.43,6.54c-.55-.84-1.45-1.37-2.44-1.46-.54,.02-1.06,.16-1.53,.42l-11.62,5.14,.9,1.02c6.69,7.66,12.1,16.35,16.03,25.73l.03,.05h0c.43,1.11,1.48,1.86,2.66,1.92,.64-.02,1.26-.17,1.83-.45l8.02-4.01c.89-.34,1.61-1.05,1.96-1.94,.29-.93,.19-1.93-.28-2.78-3.84-8.69-9.1-16.68-15.56-23.65Z"/></g><g><path d="M1100.05,67.54c-.22-.51-.61-.93-1.11-1.19-.51-.25-1.08-.37-1.65-.34h-.07c-12.38,.84-24.03,1.2-38.93,1.2h-89.8c-11.7,0-22.76,0-33.91-1l-1.09-.1v1.09c.02,6.47,.56,12.94,1.61,19.33,.03,1.1,.28,2.18,.74,3.17,.47,.96,1.46,1.55,2.53,1.52,.14,0,.27,0,.41-.02l1.11-.07c9.88-.58,19.21-1.13,28.81-1.13h28.62c5.32,0,8.08,4.92,7.93,6.8-.33,5.26-1.05,10.5-2.16,15.66-1.52,6.69-4.04,13.11-7.47,19.06h0c-3.98,7.29-9.22,13.81-15.48,19.26-4.32,3.8-15.62,10.82-21.75,14.54-1.75,1.06-1.64,3.63,.19,4.54,4.94,2.46,12.69,6.53,15.22,9.06h0c1.26,1.4,3.03,2.23,4.91,2.3,2.22,0,4.54-1.29,6.52-2.55,3.46-2.08,6.77-4.42,9.89-7,3.43-2.82,6.67-5.84,9.72-9.07,6.33-6.6,11.7-14.04,15.96-22.13,3.8-7.28,6.64-15.03,8.46-23.04,1.51-6.95,2.5-13.99,2.97-21.09,.17-2.23,1.84-6.34,8.16-6.34h18.11c11.4,0,24.17,.27,37.96,.8h.04c1.82,0,3.98-.76,4-4.36,.2-2.66,.2-12.81,0-15.48,.09-1.16-.06-2.33-.44-3.43Z"/><path d="M958.49,29.84c.23,3.84,.45,7.48,.8,10.27,0,1.14,.37,2.26,1.05,3.17,.44,.48,1.27,1.13,3.34,1.13h.03c2.4-.08,4.65-.17,6.81-.25,8.01-.3,14.34-.55,21.55-.55h36.8c11.21,0,23.13,.21,33.56,.6h.04c1.16,.12,2.29-.38,2.97-1.32,.51-1.07,.73-2.26,.63-3.44,.4-4.89,.4-9.8,0-14.68,.09-1.14-.11-2.28-.58-3.32-.59-.98-1.68-1.54-2.82-1.44h-.06c-10.99,.66-24.42,.8-33.74,.8h-36.81c-10.84,0-21.06-.31-33.14-1l-1.15-.07,.1,1.15c.25,3.04,.43,6.05,.61,8.95Z"/><path d="M1109.77,43.13c-4.93-9.26-11.36-18.02-17.19-23.45-.62-.71-1.49-1.15-2.43-1.22-.55,.01-1.1,.17-1.56,.47l-12.56,7.05,.96,.93c3.55,3.47,6.77,7.26,9.63,11.31,3.02,4.3,5.75,8.79,8.18,13.44l.02,.03h0c.48,1.11,1.56,1.85,2.77,1.91,.64-.02,1.26-.2,1.8-.54l9.02-5.41h.02c1.85-1.17,2.3-2.64,1.36-4.51v-.02Z"/><path d="M1128.78,31.14c-4.49-8.42-10.3-16.07-17.19-22.66-.58-.74-1.43-1.21-2.37-1.31-.6,.02-1.17,.22-1.65,.57l-11.91,6.84,.92,.92c3.63,3.63,6.95,7.56,9.92,11.75,2.87,4.07,5.45,8.35,7.7,12.8h0c.44,1.17,1.55,1.96,2.8,2,.69-.02,1.37-.22,1.97-.58l8.46-5.43h.01c2.84-1.9,1.71-4.15,1.34-4.89h0Z"/></g></g><g><path d="M852.19,99.43c-2.38-5.91-6-11.25-10.62-15.63-9.67-9.17-23.39-14.02-39.68-14.02-4.53-.02-9.05,.37-13.51,1.15-4.14,.74-8.2,1.89-12.11,3.43-3.78,1.51-7.39,3.41-10.77,5.67-3.42,2.29-6.6,4.92-9.5,7.83-10.32,10.32-16,23.4-16,36.85-.04,5.22,.69,10.42,2.17,15.43,1.22,4.15,3.17,8.05,5.75,11.53,2.19,2.97,4.99,5.43,8.2,7.24,2.9,1.63,6.16,2.5,9.49,2.52,5.02,.1,9.94-1.39,14.05-4.26,3.85-2.69,7.27-6.69,10.44-12.23,4.62-8.47,8.22-17.47,10.71-26.79,2.42-8.68,4.34-17.49,5.75-26.38,.14-.88,.27-1.76,.4-2.64,.04-3.07,3.04-3.5,3.97-3.37,.65,.08,1.3,.18,1.94,.3,6.2,1.18,11.86,4.35,16.11,9.07,2.65,2.92,4.73,6.31,6.14,10,1.44,3.72,2.18,7.67,2.18,11.66,0,11.95-3.87,21.03-11.83,27.79-3.93,3.23-8.34,5.83-13.07,7.71-5.29,2.14-10.75,3.84-16.31,5.09l-2.38,.56,2.09,1.27c5.36,3.25,8.07,6.38,9.41,8.45,.55,.93,1.25,1.75,2.08,2.44,.76,.58,1.69,.89,2.64,.88h0c.8-.02,1.6-.16,2.36-.4h.01c6.56-1.9,12.87-4.56,18.81-7.94,5.14-2.93,9.75-6.7,13.65-11.15,3.67-4.27,6.48-9.2,8.29-14.52,1.9-5.79,2.84-11.85,2.78-17.94,.06-6.7-1.18-13.35-3.66-19.58Zm-63.88-6.47c-1.13,6.67-2.78,13.24-4.73,19.72-2.18,7.59-5.09,14.95-8.69,21.98-3.72,6.6-6.51,7.96-9.55,7.96-1.85,0-3.9-1.73-5.46-4.62-.99-1.88-1.71-3.89-2.14-5.97-.58-2.72-.87-5.5-.85-8.28,0-8.34,3.86-17.47,10.58-25.04,2.94-3.23,6.43-5.91,10.3-7.94h0c3.86-2.32,11.34-2.48,10.54,2.19Z"/><path d="M387.41,142.98c-.24-1.44-.85-3.36-3.33-3.36-.48,0-.96,.06-1.44,.15-8.85,1.56-17.77,2.67-26.72,3.34-10.53,.83-22,1.25-34.1,1.25-4.86,.06-9.71-.25-14.51-.95-3.32-.43-6.54-1.41-9.54-2.9-2.15-1.07-3.94-2.75-5.14-4.83-1.14-2.19-1.69-4.65-1.61-7.12,0-4.71,1.66-9.21,5.07-13.75,3.77-5.01,9.68-10.11,18.07-15.61,11.99-7.82,26.44-15.01,46.83-23.31,7.9-3.21,13.93-5.09,18.98-5.94,1.37-.13,2.65-.74,3.63-1.71,.81-.9,1.25-2.07,1.22-3.28-.06-1.69-.6-3.33-1.55-4.72-4.17-6.87-9.11-13.23-14.73-18.97l-.79-.82-.71,.89c-2.74,3.43-6.91,6.68-13.51,10.55-4.29,2.3-7.95,4.25-11.49,6.14-4.3,2.29-8.42,4.49-12.66,6.77-1.2,.64-4.04-2.27-4.41-3.92-2.02-9-3.45-17.31-4.75-27.43-.1-1.18-.22-2.39-.33-3.56-.33-3.35-.66-6.81-.66-9.73,.06-1.34,.29-2.67,.67-3.96,.42-1.45,.67-2.94,.73-4.44,.02-1.05-.44-2.05-1.24-2.73-.91-.72-1.98-1.21-3.12-1.44h0c-5.53-1.25-11.17-1.98-16.85-2.18-6.31-.26-7.79-.24-8.39,1.13-.81,1.86-.52,4.93,1.08,12.33,.78,3.62,1.48,7.19,1.93,10.63,1.87,14.44,4.75,28.74,8.61,42.78,.57,2.04,.06,6.72-1.76,7.64-4.7,3.12-8.53,5.92-11.9,8.66-4.46,3.55-8.52,7.57-12.12,11.99-3.29,4.05-5.9,8.61-7.73,13.51-1.83,5.03-2.75,10.34-2.71,15.69-.13,6.03,1.18,12,3.83,17.42,2.63,5.05,6.55,9.31,11.35,12.36,5.66,3.51,11.9,5.96,18.43,7.25h0c8.29,1.67,16.74,2.47,25.19,2.36,13.78,0,23.82-.18,32.55-.6,9.53-.45,18.16-1.21,27.16-2.4,1.39,0,2.72-.57,3.69-1.57,.65-.82,.94-1.87,.8-2.91-.34-6.26-1.01-12.51-2.01-18.7Z"/><g><path d="M643.38,142.73c-5.44-3.89-11.17-7.35-17.15-10.35-4.64-2.33-9.49-4.45-14.75-6.61-1.41-.58-4.11-4.69-4.24-5.86-1.11-9.61-1.66-19.28-1.64-28.96v-.06c-.27-2.63-.02-5.29,.75-7.82,1.1-3.3,1.25-4.12,1.25-4.52,0-1.54-.62-3.5-3.55-4.17-4.84-1.42-13.95-2.75-19.24-3.45-2.03-.27-3.74,1.48-3.44,3.5,.53,3.52,1.2,8.51,1.23,11.35,.16,7.41,.47,18.12,1.36,29.26,.12,1.51-2.25,3.59-3.24,3.49-3.69-.38-7.4-.58-11.11-.58-11.26,0-20.8,2.87-27.6,8.29-3.26,2.56-5.89,5.84-7.7,9.57-1.82,3.86-2.74,8.07-2.7,12.33-.13,8.43,3.79,16.4,10.54,21.44,3.58,2.69,7.63,4.69,11.95,5.9,4.98,1.41,10.13,2.11,15.31,2.06,11.9,0,21.24-2.46,27.75-7.3,3.34-2.46,6.01-5.72,7.75-9.48,1.16-2.53,1.94-5.22,2.32-7.98,.2-1.41,3.5-1.86,4.84-1.04,6.45,3.85,12.56,8.24,18.26,13.13,.66,.82,1.63,1.35,2.68,1.47,1.15-.09,2.16-.81,2.64-1.86,3.49-5.19,6.58-10.64,9.25-16.3,.57-.9,.78-1.99,.59-3.04-.41-1.02-1.15-1.88-2.11-2.42Zm-62.66,9.91c-2.92,2.43-7.11,3.72-12.11,3.72-5.49,0-9.62-.76-12.28-2.27-2.37-1.2-3.83-3.67-3.72-6.33-.02-1.59,.4-3.14,1.23-4.5,.87-1.36,2.05-2.49,3.44-3.3,1.66-.98,3.47-1.68,5.35-2.09h0c2.22-.49,4.49-.73,6.77-.71,4.06,.03,8.1,.6,12.01,1.71,1.43,.39,3.59,3.69,3.59,4.29,.1,3.65-1.48,7.15-4.29,9.48Z"/><path d="M553.19,57.92c10.09-1.47,18.35-2.74,27.39-4.58,.83-.04,1.63-.33,2.3-.84,.7-.66,1.04-1.6,.94-2.55v-.04c-.19-5.49-.8-10.95-1.82-16.35-.14-.76-.51-2.76-2.46-2.76-.61,.03-1.22,.16-1.79,.38-5.31,1.22-12.58,2.75-19.33,3.71-1.49,.21-3.26-1.42-3.07-2.08,.66-2.33,1.22-4.34,1.76-6.32,.66-2.4,1.28-4.66,1.87-6.67,1.12-3.73,1.88-5.52,3-7.03,1.3-1.12,2.04-2.74,2.04-4.46,0-1.92-1.55-3.47-3.96-3.97-6.27-1.82-15.03-3.04-23.5-4.22l-1.14-.16V1.16c.17,5.37-.23,10.74-1.18,16.02-1.13,5.81-2.3,11.61-4.02,18.07-.36,1.37-4.55,3.86-5.87,3.95-6.74,.46-11.68,.56-17.33,.56s-10.28-.2-18.53-.8l-1.14-.08,.07,1.14c.5,8.24,1.16,13.85,2.02,17.14,.06,1.08,.41,2.12,1.02,3.02,.71,.73,1.73,1.09,2.74,.98,5,.2,6.64,.2,11.02,.2,4.67,0,9.47,0,14.57-.17,1.49-.05,2.94,2.5,2.53,3.54-8.37,21.33-18.25,40.85-32.53,64.46-.72,.83-1.13,1.88-1.18,2.97,.07,1.21,.72,2.31,1.74,2.95,4.32,3.85,8.99,7.29,13.94,10.3h0c.86,.62,1.86,1.02,2.91,1.15,1.51,0,2.37-1.29,3.06-2.5,7.45-12.77,14.18-25.95,20.15-39.47,5.35-11.95,10.86-25.39,17.13-41.76,.59-1.53,5.42-4.72,6.64-4.9Z"/><path d="M663.03,54.46h0c-6.31-4.1-12.87-7.81-19.63-11.11-6.35-3.19-12.98-5.8-19.8-7.8-.66-.29-1.38-.46-2.1-.49-1.63,0-2.56,1.15-3.25,2.29-2.2,3.3-4.22,6.72-6.04,10.25-.96,1.76-1.96,3.59-2.99,5.41l-.6,1.06,1.16,.38c7.55,2.55,14.85,5.8,21.81,9.7,5.99,3.29,12.13,7.09,19.32,11.96h0c.65,.6,1.49,.95,2.38,.98,1.15-.1,2.17-.81,2.64-1.86,3.16-4.76,5.98-9.72,8.44-14.87,.55-.86,.87-1.85,.91-2.86,0-1.42-1.16-2.31-2.24-3.03Z"/></g><g><path d="M153.49,92.29c-4.01-3.66-8.7-6.49-13.82-8.32-5.6-2-11.51-3.02-17.45-3.02-.38,0-.76,0-1.14,0-7.46,.09-14.89,.97-22.16,2.61-7.32,1.61-14.5,3.79-21.48,6.52-1.33,.52-3.36-.53-3.35-1.17,.06-3.7,.09-7.11,.13-10.44,.03-3.71,.08-7.52,.13-10.97,.32-1.3,1.12-2.43,2.24-3.17,10.05-2.08,14.04-3.31,25.72-7.02,.96-.21,1.83-.69,2.52-1.39,.59-.8,.86-1.78,.78-2.77,0-5.27-.4-10.53-1.21-15.73,0-.39-.06-.77-.64-1.59s-1.62-1.4-2.67-1.32c-.47,.04-.94,.13-1.39,.29h-.01c-6.3,2.2-13.05,4.44-20.04,6.14-.88,.21-2.64,.4-3.24,0-.64-.49-.97-1.29-.84-2.09,.18-4.5,.4-8.3,.84-12.17,.46-2.62,1.37-5.13,2.68-7.45,.75-1.1,1.21-2.36,1.33-3.69-.01-1.18-.53-2.3-1.42-3.08-.95-.83-2.09-1.4-3.32-1.68-4.81-1.42-19.08-3.26-19.2-3.26-3.06-.03-5.42,2.74-5.04,5.77,.47,3.66,.66,7.35,.58,11.05,0,4.58-.06,8.8-.11,12.89-.03,2.44,.01,3.56,0,5.49-.16,2.71-2.91,3.79-4.07,3.89-6.77,.61-13.7,1.14-20.42,1.14-5.17,.07-10.33-.26-15.45-.99-.93-.14-1.22,.3-1.15,1.1,.96,8.45,1.68,14.15,2.2,17.43,.05,1.42,.62,2.77,1.58,3.81,.92,.86,2.22,1.24,4.21,1.24,10.53,0,19.27-.51,26.82-1.07,.81-.06,5.78-.95,5.78,5.81v22.26c0,4.12-3.08,5.79-4.28,6.48-12.05,6.93-20.22,11.61-27.81,15.84-5.71,3.1-11.81,5.42-18.14,6.9l-1.19,.27,.51,1.11c1.48,3.26,6.53,14.24,9.26,18.71,1.41,2.34,3.32,3.68,5.25,3.68,1.52-.02,2.98-.62,4.08-1.67,1.5-1.33,9.31-1.39,10.84-.24,4.11,3.08,7.79,6.1,11.1,9.1,4.17,3.68,7.98,7.77,11.36,12.19,.19,.28,.37,.54,.54,.8,.56,.9,1.21,1.75,1.95,2.51,.73,.73,1.72,1.14,2.75,1.13,.14,0,.28,0,.43-.02,5.06-.35,10.07-1.16,14.98-2.43,1.55-.28,2.84-1.36,3.37-2.85,.36-1.28,.5-2.61,.4-3.93,0-.26,0-.53,0-.79,0-3.57-.58-11.68-1.14-19.52-.17-2.32-.32-4.51-.46-6.53-.34-7.49-.7-12.4-.7-18.89,0-5.15,3.87-6.32,6.16-7.54,6.09-3.26,12.73-5.38,19.36-7.32,6.24-1.8,12.69-2.74,19.18-2.79,3.06-.04,6.11,.39,9.04,1.28,2.42,.74,4.65,2,6.54,3.68,1.79,1.65,3.16,3.69,4.02,5.96,.97,2.65,1.45,5.46,1.4,8.28,.05,3.02-.53,6.02-1.71,8.8-1.03,2.34-2.58,4.41-4.53,6.06-4.08,3.21-9.16,4.89-14.35,4.74-3.86,.04-7.72-.16-11.56-.59-3.72-.44-7.39-1.2-10.98-2.28-.91-.28-3.02-1.38-3.56-.68s.28,1.54,.28,1.54c4.27,5.9,5.47,12.83,5.81,16.46-.07,1.56,.34,3.11,1.18,4.43,.97,1.3,2.39,2.19,3.98,2.5h.01c5.46,1.2,11.04,1.81,16.63,1.83,6.28,.08,12.52-.87,18.49-2.8,5.2-1.7,9.98-4.48,14.01-8.17,3.9-3.65,6.93-8.14,8.84-13.12,2.1-5.59,3.14-11.53,3.05-17.51,.05-5.74-1.05-11.43-3.25-16.74-2.07-4.91-5.16-9.31-9.07-12.92Zm-114.12,45.83c-1.63-.75-1.83-2.98-.36-4.01,3.42-2.39,8.63-6.02,11.3-7.84,.92-.62,2.32,.51,2.36,1.23,.09,1.57,.57,10.49,.74,13.35,.1,1.75-1.7,2.98-3.3,2.24l-10.75-4.97Z"/><path d="M187.32,65.19c-2.67-2.72-5.51-5.26-8.52-7.61-3.14-2.45-6.45-4.69-9.89-6.7-7.69-4.43-15.89-7.9-24.42-10.35h0c-.32-.1-.66-.15-.99-.15-1.52,0-2.38,1.17-3.52,2.97-3.47,5-6.57,10.26-9.26,15.72l-.49,1.02,1.07,.36c7.7,2.5,15.12,5.79,22.14,9.82,6.71,3.85,12.78,8.72,17.98,14.45h0c.67,.75,1.65,1.14,2.66,1.06,1.09,.08,2.16-.31,2.94-1.08,1.04-1.38,2.34-3.03,3.72-4.78,2.53-3.2,5.4-6.83,7.11-9.47l.03-.05,.02-.05c.08-.16,.16-.31,.24-.46,.38-.6,.61-1.28,.67-1.99-.12-1.06-.66-2.04-1.49-2.71Z"/></g></g></g></svg>