<svg xmlns="http://www.w3.org/2000/svg" width="77.255" height="28.961" viewBox="0 0 77.255 28.961">
  <g id="グループ_55" data-name="グループ 55" transform="translate(-5649.092 796.147)">
    <g id="グループ_47" data-name="グループ 47" transform="translate(5706.954 -796.147)">
      <g id="グループ_35" data-name="グループ 35" transform="translate(17.431 26.547) rotate(13)">
        <path id="楕円形_10_-_アウトライン" data-name="楕円形 10 - アウトライン" d="M1.006.133a.873.873,0,1,0,.873.873A.874.874,0,0,0,1.006.133m0-.133A1.006,1.006,0,1,1,0,1.006,1.006,1.006,0,0,1,1.006,0Z" transform="translate(0 0)" fill="#fc0d0a"/>
        <path id="パス_33" data-name="パス 33" d="M.719.149A.343.343,0,0,1,1.057.5c0,.285-.2.391-.456.451a.32.32,0,0,1,.106.1c.02.03.033.036.065.027a.551.551,0,0,0,.465-.55A.519.519,0,0,0,.661,0,.661.661,0,0,0,.171.193.556.556,0,0,0,0,.586C0,.832.134.974.267.974A.287.287,0,0,0,.524.8,1.89,1.89,0,0,0,.713.149ZM.537.159A1.725,1.725,0,0,1,.377.7C.337.771.3.791.264.791S.162.714.162.575A.435.435,0,0,1,.279.3.455.455,0,0,1,.537.159Z" transform="translate(0.388 0.468)" fill="#fc0d0a"/>
      </g>
      <path id="中マド_3" data-name="中マド 3" d="M16.214,28.761H.965L0,27.8V.965L.965,0H16.214l.965.965V27.8l-.965.965h0ZM8.437,24.255h0A10.705,10.705,0,0,0,9.407,26.1a5.8,5.8,0,0,0,1.108,1.276,2.339,2.339,0,0,0,1.432.6l.179,0a3.845,3.845,0,0,0,2.182-.5,3.136,3.136,0,0,0,1.133-1.608,4.689,4.689,0,0,0,.251-2.36,2.078,2.078,0,0,0-.964-1.611,1.226,1.226,0,0,0-.562-.121,4.2,4.2,0,0,0-1.083.205l-.016,0a4.062,4.062,0,0,1-1.04.2.971.971,0,0,1-.738-.289.473.473,0,0,1-.164-.367c.022-.27.353-.514.736-.8.552-.408,1.177-.871,1.188-1.591a3.779,3.779,0,0,0-.755-2.232,5.136,5.136,0,0,0,1.317-.394,2.516,2.516,0,0,0,1.2-.964,3.644,3.644,0,0,0,.512-1.895,3.48,3.48,0,0,0-.287-1.759,1.467,1.467,0,0,0-.972-.713,1.339,1.339,0,0,0-.357-.048,2.324,2.324,0,0,0-.718.146l-.018.006a2.159,2.159,0,0,1-.663.14,1.069,1.069,0,0,1-.423-.087,1.731,1.731,0,0,1-1.034-1.175.292.292,0,0,1,.114-.291.243.243,0,0,1,.138-.04,1.257,1.257,0,0,1,.477.174c.076.038.153.076.24.116a2.9,2.9,0,0,0,1.254.291c.074,0,.151,0,.227-.009a1.918,1.918,0,0,0,1.528-.957,3.89,3.89,0,0,0,.5-2.013,5.285,5.285,0,0,0-.282-1.961,1.8,1.8,0,0,0-1.168-1.112.986.986,0,0,0-.3-.046,2.712,2.712,0,0,0-1.414.641l-.146.106a2.21,2.21,0,0,1-1.013.535.355.355,0,0,1-.251-.1.286.286,0,0,1-.114-.226c.011-.185.266-.368.562-.579.437-.313.981-.7.984-1.279A1.958,1.958,0,0,0,11.592,2a2.83,2.83,0,0,0-1.127-.664,5.958,5.958,0,0,0-1.871-.262l-.225,0a4.832,4.832,0,0,0-2.953.847,1.9,1.9,0,0,0-.759,1.494c.01.459.518.858.966,1.21.336.264.626.492.617.683A.249.249,0,0,1,6.1,5.5a.43.43,0,0,1-.239.068,2.331,2.331,0,0,1-1.078-.55l-.1-.068a2.6,2.6,0,0,0-1.339-.618.863.863,0,0,0-.22.028A2.116,2.116,0,0,0,1.864,5.538a4,4,0,0,0-.392,2.1,3.086,3.086,0,0,0,2,2.764,1.166,1.166,0,0,0,.294.036,2.926,2.926,0,0,0,1.105-.3l.144-.063a2.188,2.188,0,0,1,.722-.239.276.276,0,0,1,.146.036.394.394,0,0,1,.163.391,1.4,1.4,0,0,1-.875,1.075,1.148,1.148,0,0,1-.451.086,3.125,3.125,0,0,1-.8-.147h0a3.157,3.157,0,0,0-.809-.147,1.228,1.228,0,0,0-.361.051,1.73,1.73,0,0,0-.939,1.2,4.271,4.271,0,0,0-.132,2.073A2.858,2.858,0,0,0,3.834,16.8a4.677,4.677,0,0,0,.8.083,3.447,3.447,0,0,0,1.854-.6A6.142,6.142,0,0,0,8.37,14.048,10.221,10.221,0,0,0,9.708,15.8a6.007,6.007,0,0,0-2.429.752A2.562,2.562,0,0,0,5.918,18.3a4.471,4.471,0,0,0,.11,1.777,1.651,1.651,0,0,1-.158,1.54,1.034,1.034,0,0,1-.9.373,5.707,5.707,0,0,1-.928-.11l-.019,0a6.029,6.029,0,0,0-.979-.113,1.621,1.621,0,0,0-.684.129c-1.146.524-1.193,2.763-.9,3.766a3.11,3.11,0,0,0,.888,1.515,3.763,3.763,0,0,0,2.465.8h.069a2.486,2.486,0,0,0,1.551-.581,5.088,5.088,0,0,0,1.11-1.278,9.039,9.039,0,0,0,.889-1.858Z" transform="translate(0 0)" fill="#fc0d0a"/>
    </g>
    <g id="グループ_50" data-name="グループ 50" transform="translate(5649.092 -795.027)">
      <path id="パス_23" data-name="パス 23" d="M-.741-17.266H2.122a2.923,2.923,0,0,0,1.6-.417,2.936,2.936,0,0,0,1.03-.983,4.491,4.491,0,0,0,.237-.434,2.118,2.118,0,0,0,.139-.486,12.255,12.255,0,0,0,.1-1.9,17.153,17.153,0,0,0-.064-1.8,2.539,2.539,0,0,0-.388-1A2.834,2.834,0,0,0,2.209-25.7H-.741ZM.537-24.492H2.065a1.694,1.694,0,0,1,1.5.712,1.45,1.45,0,0,1,.33.769q.052.474.052,1.574A14.709,14.709,0,0,1,3.9-19.9a1.4,1.4,0,0,1-.272.688,1.735,1.735,0,0,1-1.562.735H.537Zm8.7,7.156h5.386v-1.209H10.517v-2.476h3.506v-1.134H10.517v-2.407h4.107V-25.77H9.239Zm10.05-2.048-.839.96a4.784,4.784,0,0,0,3.222,1.157q2.9-.035,2.962-2.453a2.392,2.392,0,0,0-.561-1.574,2.628,2.628,0,0,0-1.753-.85q-.6-.075-.949-.133a1.626,1.626,0,0,1-.908-.417.93.93,0,0,1-.283-.659,1.1,1.1,0,0,1,.422-.914,1.593,1.593,0,0,1,.983-.3,3.866,3.866,0,0,1,2.088.648l.712-1.053a4.739,4.739,0,0,0-2.736-.874,2.869,2.869,0,0,0-2.019.683,2.308,2.308,0,0,0-.735,1.782,2.237,2.237,0,0,0,.584,1.562,2.758,2.758,0,0,0,1.655.8q.607.087,1.117.156,1.111.191,1.1,1.134-.023,1.151-1.666,1.174A3.7,3.7,0,0,1,19.289-19.384Zm9.392,2.048h1.278V-25.77H28.681ZM37.5-20.772h1.718v.44a1.767,1.767,0,0,1-.5,1.278,1.63,1.63,0,0,1-1.232.509,1.5,1.5,0,0,1-.775-.191,1.5,1.5,0,0,1-.532-.422,1.4,1.4,0,0,1-.33-.712,9.844,9.844,0,0,1-.093-1.683,10.072,10.072,0,0,1,.093-1.7,1.4,1.4,0,0,1,.33-.7,1.613,1.613,0,0,1,.532-.434,1.767,1.767,0,0,1,.775-.179,1.671,1.671,0,0,1,1.041.353,1.856,1.856,0,0,1,.567.868H40.45a3.182,3.182,0,0,0-.972-1.776,2.857,2.857,0,0,0-1.99-.723,2.9,2.9,0,0,0-1.66.474,2.913,2.913,0,0,0-.983,1.041,2.329,2.329,0,0,0-.283.8,14.079,14.079,0,0,0-.087,1.967A14.107,14.107,0,0,0,34.56-19.6a2.376,2.376,0,0,0,.116.451q.075.174.168.364a2.825,2.825,0,0,0,.983,1.03,2.964,2.964,0,0,0,1.66.486,2.983,2.983,0,0,0,2.14-.874,2.986,2.986,0,0,0,.868-2.123v-1.718h-3Zm6.828,3.436h1.278v-5.993h.023l3.812,5.993H50.65V-25.77H49.371v5.993h-.023L45.53-25.77h-1.2Z" transform="translate(0.805 34.802)"/>
      <path id="パス_24" data-name="パス 24" d="M1.579-10.113H4.721v-.705h-2.4v-4.215H1.579Zm6.1-1.762.712-2.15H8.4l.712,2.15Zm2.032,1.762h.786L8.7-15.033H8.081l-1.789,4.92h.79l.378-1.1H9.326Zm2.695,0h2.072a1.314,1.314,0,0,0,.969-.388,1.345,1.345,0,0,0,.4-1.009,1.381,1.381,0,0,0-.192-.712.99.99,0,0,0-.607-.422v-.013a1.6,1.6,0,0,0,.358-.226.948.948,0,0,0,.223-.25,1.136,1.136,0,0,0,.145-.58,1.278,1.278,0,0,0-.368-.955,1.518,1.518,0,0,0-1.09-.364H12.4ZM14.3-12.3a.8.8,0,0,1,.607.219.754.754,0,0,1,.192.52.746.746,0,0,1-.192.513.786.786,0,0,1-.607.226H13.148V-12.3Zm-.071-2.072a.84.84,0,0,1,.6.2.7.7,0,0,1,.2.5.668.668,0,0,1-.2.493.772.772,0,0,1-.6.213H13.148v-1.407Zm3.606,1.8a8.229,8.229,0,0,0,.051,1.141,1.386,1.386,0,0,0,.067.263q.044.1.1.213a1.648,1.648,0,0,0,.574.6,1.729,1.729,0,0,0,.969.283,1.758,1.758,0,0,0,.979-.283,1.6,1.6,0,0,0,.56-.6,1.138,1.138,0,0,0,.172-.476,9.483,9.483,0,0,0,.044-1.141A9.464,9.464,0,0,0,21.3-13.72a1.13,1.13,0,0,0-.172-.469,1.654,1.654,0,0,0-.56-.607,1.72,1.72,0,0,0-.979-.277,1.691,1.691,0,0,0-.969.277,1.7,1.7,0,0,0-.574.607,1.359,1.359,0,0,0-.165.469A8.213,8.213,0,0,0,17.83-12.573Zm.749,0a5.875,5.875,0,0,1,.054-.989.814.814,0,0,1,.192-.408.941.941,0,0,1,.31-.253,1.031,1.031,0,0,1,.452-.1,1.085,1.085,0,0,1,.462.1.888.888,0,0,1,.3.253.86.86,0,0,1,.2.408,6.261,6.261,0,0,1,.051.989,6.119,6.119,0,0,1-.051.982.865.865,0,0,1-.2.415.824.824,0,0,1-.3.246.919.919,0,0,1-.462.111.875.875,0,0,1-.452-.111.873.873,0,0,1-.31-.246.819.819,0,0,1-.192-.415A5.742,5.742,0,0,1,18.58-12.573Zm5.762-1.8H25.51a.855.855,0,0,1,.547.152.654.654,0,0,1,.246.557.759.759,0,0,1-.206.54.814.814,0,0,1-.628.243H24.342ZM23.6-10.113h.746v-2.1h.952l1.016,2.1H27.2L26.056-12.3a1.369,1.369,0,0,0,.952-1.363,1.308,1.308,0,0,0-.489-1.049,1.511,1.511,0,0,0-1-.324H23.6Zm6.8-1.762.712-2.15h.013l.712,2.15Zm2.032,1.762h.786l-1.789-4.92H30.8l-1.789,4.92h.79l.378-1.1h1.866Zm3.016,0h.749v-4.255h1.346v-.665H34.094v.665H35.44Zm3.711-2.46a8.23,8.23,0,0,0,.051,1.141,1.386,1.386,0,0,0,.067.263q.044.1.1.213a1.648,1.648,0,0,0,.574.6,1.729,1.729,0,0,0,.969.283,1.758,1.758,0,0,0,.979-.283,1.6,1.6,0,0,0,.56-.6,1.138,1.138,0,0,0,.172-.476,9.483,9.483,0,0,0,.044-1.141,9.464,9.464,0,0,0-.044-1.147,1.13,1.13,0,0,0-.172-.469,1.654,1.654,0,0,0-.56-.607,1.72,1.72,0,0,0-.979-.277,1.691,1.691,0,0,0-.969.277,1.7,1.7,0,0,0-.574.607,1.359,1.359,0,0,0-.165.469A8.214,8.214,0,0,0,39.151-12.573Zm.749,0a5.875,5.875,0,0,1,.054-.989.814.814,0,0,1,.192-.408.941.941,0,0,1,.31-.253,1.031,1.031,0,0,1,.452-.1,1.085,1.085,0,0,1,.462.1.888.888,0,0,1,.3.253.86.86,0,0,1,.2.408,6.261,6.261,0,0,1,.051.989,6.119,6.119,0,0,1-.051.982.865.865,0,0,1-.2.415.824.824,0,0,1-.3.246.919.919,0,0,1-.462.111.875.875,0,0,1-.452-.111.873.873,0,0,1-.31-.246.819.819,0,0,1-.192-.415A5.742,5.742,0,0,1,39.9-12.573Zm5.433-1.8H46.5a.855.855,0,0,1,.547.152.654.654,0,0,1,.246.557.759.759,0,0,1-.206.54.814.814,0,0,1-.628.243H45.333Zm-.746,4.255h.746v-2.1h.952l1.016,2.1h.888L47.048-12.3A1.369,1.369,0,0,0,48-13.659a1.308,1.308,0,0,0-.489-1.049,1.511,1.511,0,0,0-1-.324h-1.92Zm6.248,0h.7v-2.025l1.481-2.9h-.79l-1.043,2.183-1.043-2.183h-.79l1.481,2.9Z" transform="translate(-1.41 36.794)"/>
      <path id="パス_22" data-name="パス 22" d="M1.219-14.726a8.229,8.229,0,0,0,.051,1.141,1.386,1.386,0,0,0,.067.263q.044.1.1.213a1.648,1.648,0,0,0,.574.6,1.729,1.729,0,0,0,.969.283,1.758,1.758,0,0,0,.979-.283,1.6,1.6,0,0,0,.56-.6,1.138,1.138,0,0,0,.172-.476,9.483,9.483,0,0,0,.044-1.141,9.464,9.464,0,0,0-.044-1.147,1.13,1.13,0,0,0-.172-.469,1.654,1.654,0,0,0-.56-.607,1.72,1.72,0,0,0-.979-.277,1.691,1.691,0,0,0-.969.277,1.7,1.7,0,0,0-.574.607,1.359,1.359,0,0,0-.165.469A8.213,8.213,0,0,0,1.219-14.726Zm.749,0a5.875,5.875,0,0,1,.054-.989.814.814,0,0,1,.192-.408.941.941,0,0,1,.31-.253,1.031,1.031,0,0,1,.452-.1,1.085,1.085,0,0,1,.462.1.888.888,0,0,1,.3.253.86.86,0,0,1,.2.408,6.261,6.261,0,0,1,.051.989,6.119,6.119,0,0,1-.051.982.865.865,0,0,1-.2.415.824.824,0,0,1-.3.246.919.919,0,0,1-.462.111.875.875,0,0,1-.452-.111.873.873,0,0,1-.31-.246.819.819,0,0,1-.192-.415A5.742,5.742,0,0,1,1.968-14.726ZM7.5-12.266h.749v-4.255H9.6v-.665H6.156v.665H7.5Zm3.849-2.46a8.229,8.229,0,0,0,.051,1.141,1.386,1.386,0,0,0,.067.263q.044.1.1.213a1.648,1.648,0,0,0,.574.6,1.729,1.729,0,0,0,.969.283,1.758,1.758,0,0,0,.979-.283,1.6,1.6,0,0,0,.56-.6,1.138,1.138,0,0,0,.172-.476,9.483,9.483,0,0,0,.044-1.141,9.464,9.464,0,0,0-.044-1.147,1.13,1.13,0,0,0-.172-.469,1.654,1.654,0,0,0-.56-.607,1.72,1.72,0,0,0-.979-.277,1.691,1.691,0,0,0-.969.277,1.7,1.7,0,0,0-.574.607,1.359,1.359,0,0,0-.165.469A8.212,8.212,0,0,0,11.351-14.726Zm.749,0a5.875,5.875,0,0,1,.054-.989.814.814,0,0,1,.192-.408.941.941,0,0,1,.31-.253,1.031,1.031,0,0,1,.452-.1,1.085,1.085,0,0,1,.462.1.888.888,0,0,1,.3.253.86.86,0,0,1,.2.408,6.261,6.261,0,0,1,.051.989,6.119,6.119,0,0,1-.051.982.865.865,0,0,1-.2.415.824.824,0,0,1-.3.246.919.919,0,0,1-.462.111.875.875,0,0,1-.452-.111.873.873,0,0,1-.31-.246.819.819,0,0,1-.192-.415A5.742,5.742,0,0,1,12.1-14.726Zm5.155,2.46H18v-3.5h.013l2.224,3.5h.705v-4.92H20.2v3.5h-.014l-2.227-3.5h-.7Zm7.119-1.762.712-2.15H25.1l.712,2.15Zm2.032,1.762h.786L25.4-17.186h-.624l-1.789,4.92h.79l.378-1.1h1.866Zm2.833,0h.746v-3.5H30l2.224,3.5h.705v-4.92h-.746v3.5h-.013l-2.227-3.5h-.7Z" transform="translate(-1.219 17.227)"/>
      <path id="パス_32" data-name="パス 32" d="M32.007-14.726a8.229,8.229,0,0,0,.051,1.141,1.386,1.386,0,0,0,.067.263q.044.1.1.213a1.648,1.648,0,0,0,.574.6,1.729,1.729,0,0,0,.969.283,1.758,1.758,0,0,0,.979-.283,1.6,1.6,0,0,0,.56-.6,1.138,1.138,0,0,0,.172-.476,9.483,9.483,0,0,0,.044-1.141,9.464,9.464,0,0,0-.044-1.147,1.13,1.13,0,0,0-.172-.469,1.654,1.654,0,0,0-.56-.607,1.72,1.72,0,0,0-.979-.277,1.691,1.691,0,0,0-.969.277,1.7,1.7,0,0,0-.574.607,1.359,1.359,0,0,0-.165.469A8.212,8.212,0,0,0,32.007-14.726Zm.749,0a5.875,5.875,0,0,1,.054-.989A.814.814,0,0,1,33-16.123a.941.941,0,0,1,.31-.253,1.031,1.031,0,0,1,.452-.1,1.085,1.085,0,0,1,.462.1.888.888,0,0,1,.3.253.861.861,0,0,1,.2.408,6.262,6.262,0,0,1,.051.989,6.12,6.12,0,0,1-.051.982.865.865,0,0,1-.2.415.824.824,0,0,1-.3.246.919.919,0,0,1-.462.111.875.875,0,0,1-.452-.111.873.873,0,0,1-.31-.246.819.819,0,0,1-.192-.415A5.742,5.742,0,0,1,32.756-14.726Z" transform="translate(1.821 17.227)"/>
    </g>
  </g>
</svg>
