<svg xmlns="http://www.w3.org/2000/svg" width="51.571" height="49.706" viewBox="0 0 51.571 49.706">
  <path id="パス_28" data-name="パス 28" d="M31.568-25.221a77.59,77.59,0,0,0,11.184-9.063c1.961-.371,2.332-.583,2.332-1.378,0-.749-.282-1.028-7.376-4.058-.137-.059-.5-.31-.806-.211s-.317.118-.421.607a36.206,36.206,0,0,1-1.255,4.457,42.85,42.85,0,0,1-4.081,9.275A.289.289,0,0,0,31.568-25.221ZM7.929-38.154c2.279,1.855,3.339,4.664,3.763,9.063.212,2.279,1.537,3.339,3.339,3.339A4.179,4.179,0,0,0,19.113-30.2c0-3.975-3.657-7.632-10.866-8.48C7.929-38.737,7.664-38.366,7.929-38.154ZM29.342-12.5c-.267-.4-.076-1.779-.1-3.461s-.258-2.53.1-3.1,1.639-.433,1.639-.433l21.648.212c.424,0,.9-.3.791-.642s.024-.174-.791-1.052c-.958-1.033-2.736-2.61-4.1-3.869-2.7-2.491-3.233-2.667-3.763-2.667-.477,0-.636.106-4.452,4.77,0,0-10.207,1.056-11.025.061s0-16.961,0-16.961c1.431-.8,1.961-1.166,1.961-1.749,0-.692-.552-1.2-7.89-1.895-.2-.019-.917-.172-1.222.127s-.049.423,0,1.07c.167,2.145,1.06,18.026.208,19.037s-9.593.371-9.593.371c-1.855,0-7.367-.443-10.866-.708v4.19l18.655-.225s1.49-.07,1.751.364.054,1.66.053,3.342.16,2.155-.208,2.824-1.568.7-1.568.7L9.36-12.5c-1.855,0-3.975-.106-7.473-.371V-8.84l18.387-.247s1.449-.135,1.864.247.112,2.2.112,2.2S21.922,3.6,21.922,4.46c0,1.7.477,1.908,3.021,1.908,3.445,0,4.664-.689,4.664-2.226,0-.75-.544-7.177-.629-11.022-.021-.9-.093-1.664.364-1.96a4.12,4.12,0,0,1,1.67-.259l21.171.259c.424,0,1.133-.065,1.236-.469s.041-.31-.775-1.164c-1.033-1.083-2.791-2.947-4.116-4.2-2.968-2.809-3.286-2.915-3.763-2.915S44.077-17.43,40-12.5l-8.916.231S29.609-12.1,29.342-12.5Z" transform="translate(-1.887 43.338)"/>
</svg>
