<svg xmlns="http://www.w3.org/2000/svg" width="45.528" height="49.769" viewBox="0 0 45.528 49.769">
  <path id="パス_16" data-name="パス 16" d="M31.879-10.267c2.3-.275,5.159,4.791,7.333,8.021.311.311.559.5.807.5a1.079,1.079,0,0,0,.683-.373C41.883-3.3,43-4.73,44.119-6.1a1.336,1.336,0,0,0,.373-.807c0-.248-.186-.5-.5-.87-2.36-2.857-6.709-5.732-6.584-7.614s5.59-7.045,8.758-9.84a19.723,19.723,0,0,1,5.217-3.665c.745-.248,1.18-.745,1.18-1.18a.759.759,0,0,0-.248-.559,31.306,31.306,0,0,0-5.506-4.894c-.039-.03-.346-.31-.643-.186s-.251.194-.545.684A32.468,32.468,0,0,1,40.7-29.078c-3.043,3.043-6.676,8.018-9.7,8.824s-8.31-3.856-12.1-3.856c-5.155,0-8.323,2.857-8.509,9.627A101.032,101.032,0,0,1,8.28,4.835,14.147,14.147,0,0,1,7.349,8a2.531,2.531,0,0,0-.311,1.118,1.848,1.848,0,0,0,.311.932A13.613,13.613,0,0,0,11.2,13.717a1.848,1.848,0,0,0,.932.311,1.345,1.345,0,0,0,1.18-.683c.621-.87,1.3-1.925,2.112-3.168C19.771,3.842,29.577-9.992,31.879-10.267Zm-4.717-4.215c-.28,1.871-9.006,10.932-12.8,16.46C15.423-3.3,15.547-8.767,15.8-13.8c.186-3.6,1.3-4.907,3.354-4.907C21.448-18.7,27.442-16.352,27.162-14.481Z" transform="translate(-7.038 35.741)"/>
</svg>
