<svg xmlns="http://www.w3.org/2000/svg" width="131.16" height="140.815" viewBox="0 0 131.16 140.815">
  <g id="グループ_56" data-name="グループ 56" transform="translate(-4993.577 1024.667)">
    <text id="佐" transform="translate(5109.173 -937.584) rotate(125)" font-size="22" font-family="YuGo-Bold, YuGothic" font-weight="700" letter-spacing="0.2em"><tspan x="0" y="0">佐</tspan></text>
    <text id="藤" transform="matrix(-0.799, 0.602, -0.602, -0.799, 5096.75, -919.093)" font-size="22" font-family="YuGo-Bold, YuGothic" font-weight="700" letter-spacing="0.2em"><tspan x="0" y="0">藤</tspan></text>
    <text id="っ" transform="matrix(-0.974, 0.225, -0.225, -0.974, 5079.934, -904.738)" font-size="17" font-family="YuGo-Bold, YuGothic" font-weight="700" letter-spacing="0.2em"><tspan x="0" y="0">っ</tspan></text>
    <text id="て" transform="translate(5065.584 -900.221) rotate(-169)" font-size="18" font-family="YuGo-Bold, YuGothic" font-weight="700" letter-spacing="0.2em"><tspan x="0" y="0">て</tspan></text>
    <text id="誰" transform="translate(5046.856 -900.629) rotate(-152)" font-size="22" font-family="YuGo-Bold, YuGothic" font-weight="700" letter-spacing="0.2em"><tspan x="0" y="0">誰</tspan></text>
    <text id="_" data-name="?" transform="matrix(-0.656, -0.755, 0.755, -0.656, 5027.7, -911.774)" font-size="18" font-family="YuGo-Bold, YuGothic" font-weight="700" letter-spacing="0.2em"><tspan x="0" y="0">?</tspan></text>
    <text id="詳" transform="translate(5007.571 -971.399) rotate(-61)" font-size="18" font-family="YuGo-Bold, YuGothic" font-weight="700" letter-spacing="0.2em"><tspan x="0" y="0">詳</tspan></text>
    <text id="し" transform="translate(5016.297 -985.554) rotate(-45)" font-size="18" font-family="YuGo-Bold, YuGothic" font-weight="700" letter-spacing="0.2em"><tspan x="0" y="0">し</tspan></text>
    <text id="く" transform="translate(5027.4 -995.934) rotate(-30)" font-size="18" font-family="YuGo-Bold, YuGothic" font-weight="700" letter-spacing="0.2em"><tspan x="0" y="0">く</tspan></text>
    <text id="は" transform="matrix(0.996, -0.087, 0.087, 0.996, 5041.613, -1004.252)" font-size="17" font-family="YuGo-Bold, YuGothic" font-weight="700" letter-spacing="0.2em"><tspan x="0" y="0">は</tspan></text>
    <text id="こ" transform="translate(5056.839 -1006.232) rotate(14)" font-size="22" font-family="YuGo-Bold, YuGothic" font-weight="700" letter-spacing="0.2em"><tspan x="0" y="0">こ</tspan></text>
    <text id="ち" transform="matrix(0.766, 0.643, -0.643, 0.766, 5075.841, -1004.421)" font-size="22" font-family="YuGo-Bold, YuGothic" font-weight="700" letter-spacing="0.2em"><tspan x="0" y="0">ち</tspan></text>
    <text id="ら" transform="matrix(0.574, 0.819, -0.819, 0.574, 5092.477, -993.557)" font-size="22" font-family="YuGo-Bold, YuGothic" font-weight="700" letter-spacing="0.2em"><tspan x="0" y="0">ら</tspan></text>
  </g>
</svg>
