<svg xmlns="http://www.w3.org/2000/svg" width="225" height="374" viewBox="0 0 225 374">
  <g id="グループ_54" data-name="グループ 54" transform="translate(-5388 703)">
    <g id="長方形_13" data-name="長方形 13" transform="translate(5388 -703)" fill="#f5f8fa" stroke="#f1ffb9" stroke-width="1">
      <rect width="225" height="374" rx="10" stroke="none"/>
      <rect x="0.5" y="0.5" width="224" height="373" rx="9.5" fill="none"/>
    </g>
    <g id="グループ_15" data-name="グループ 15" transform="translate(5423.744 -403.519)">
      <g id="グループ_13" data-name="グループ 13" transform="translate(0 0)">
        <text id="_090_4664_9277" data-name="090 4664 9277" transform="translate(17.256 6.519)" font-size="8" font-family="YuGo-Medium, YuGothic" font-weight="500" letter-spacing="0.1em"><tspan x="0" y="0">090 4664 9277</tspan></text>
        <text id="_" data-name="" transform="translate(0.256 7.519)" font-size="8" font-family="simple-line-icons" letter-spacing="0.1em"><tspan x="0" y="0"></tspan></text>
      </g>
      <g id="グループ_12" data-name="グループ 12" transform="translate(0 15.466)">
        <text id="kent75864_gmail.com" data-name="kent75864@gmail.com" transform="translate(17.256 8.053)" font-size="8" font-family="YuGo-Medium, YuGothic" font-weight="500" letter-spacing="0.1em"><tspan x="0" y="0">kent75864@gmail.com</tspan></text>
        <text id="_2" data-name="" transform="translate(0.256 8.053)" font-size="8" font-family="simple-line-icons" letter-spacing="0.1em"><tspan x="0" y="0"></tspan></text>
      </g>
      <g id="グループ_14" data-name="グループ 14" transform="translate(0 30.932)">
        <text id="_kent75864" data-name="@kent75864" transform="translate(17.256 8.586)" font-size="8" font-family="YuGo-Medium, YuGothic" font-weight="500" letter-spacing="0.1em"><tspan x="0" y="0">@kent75864</tspan></text>
        <text id="_3" data-name="" transform="translate(0.256 7.586)" font-size="8" font-family="simple-line-icons" letter-spacing="0.1em"><tspan x="0" y="0"></tspan></text>
      </g>
    </g>
    <g id="グループ_16" data-name="グループ 16" transform="translate(5423.744 -544.12)">
      <text id="佐藤_健人" data-name="佐藤 健人" transform="translate(0.256 26.12)" font-size="30" font-family="YuGo-Bold, YuGothic" font-weight="700" letter-spacing="0.2em"><tspan x="0" y="0">佐藤 健人</tspan></text>
      <text id="CREATIVE_DIRECTOR" data-name="CREATIVE DIRECTOR" transform="translate(0.256 54.12)" font-size="14" font-family="DINAlternate-Bold, DIN Alternate" font-weight="700" letter-spacing="0.14em"><tspan x="0" y="0">CREATIVE DIRECTOR</tspan></text>
    </g>
    <g id="グループ_53" data-name="グループ 53" transform="translate(5471.814 -669.253)">
      <g id="グループ_47" data-name="グループ 47" transform="translate(81.355 0)">
        <g id="グループ_35" data-name="グループ 35" transform="translate(24.509 37.325) rotate(13)">
          <path id="楕円形_10_-_アウトライン" data-name="楕円形 10 - アウトライン" d="M1.415.188A1.228,1.228,0,1,0,2.643,1.415,1.229,1.229,0,0,0,1.415.188m0-.188A1.415,1.415,0,1,1,0,1.415,1.415,1.415,0,0,1,1.415,0Z" transform="translate(0 0)" fill="#fc0d0a"/>
          <path id="パス_33" data-name="パス 33" d="M1.01.21A.482.482,0,0,1,1.486.7c0,.4-.282.55-.641.635a.45.45,0,0,1,.149.134c.028.042.047.051.091.038A.775.775,0,0,0,1.739.737.73.73,0,0,0,.93,0,.929.929,0,0,0,.24.272.782.782,0,0,0,0,.824c0,.346.189.546.376.546a.4.4,0,0,0,.361-.244A2.658,2.658,0,0,0,1,.21ZM.756.223a2.425,2.425,0,0,1-.225.76c-.057.1-.1.129-.159.129S.227,1,.227.809A.611.611,0,0,1,.393.416.639.639,0,0,1,.756.223Z" transform="translate(0.546 0.658)" fill="#fc0d0a"/>
        </g>
        <path id="中マド_3" data-name="中マド 3" d="M22.8,40.438H1.357L0,39.081V1.357L1.357,0H22.8l1.357,1.357V39.081L22.8,40.438h0ZM11.862,34.1h0A15.052,15.052,0,0,0,13.226,36.7a8.157,8.157,0,0,0,1.559,1.794,3.288,3.288,0,0,0,2.013.839l.252,0a5.406,5.406,0,0,0,3.068-.7,4.41,4.41,0,0,0,1.593-2.261,6.592,6.592,0,0,0,.352-3.318,2.922,2.922,0,0,0-1.356-2.266,1.724,1.724,0,0,0-.79-.171,5.9,5.9,0,0,0-1.523.289l-.022.006a5.712,5.712,0,0,1-1.463.282,1.365,1.365,0,0,1-1.038-.406.665.665,0,0,1-.23-.516c.032-.379.5-.723,1.034-1.122.776-.574,1.655-1.225,1.67-2.237a5.313,5.313,0,0,0-1.062-3.138,7.221,7.221,0,0,0,1.851-.554,3.537,3.537,0,0,0,1.686-1.356,5.123,5.123,0,0,0,.719-2.664,4.893,4.893,0,0,0-.4-2.473,2.063,2.063,0,0,0-1.366-1,1.883,1.883,0,0,0-.5-.068,3.267,3.267,0,0,0-1.01.205l-.025.008a3.036,3.036,0,0,1-.933.2,1.5,1.5,0,0,1-.6-.122,2.434,2.434,0,0,1-1.453-1.652.411.411,0,0,1,.16-.409.341.341,0,0,1,.194-.056,1.768,1.768,0,0,1,.67.245c.106.053.216.107.337.163a4.076,4.076,0,0,0,1.763.409c.1,0,.212,0,.318-.012a2.7,2.7,0,0,0,2.149-1.346,5.469,5.469,0,0,0,.7-2.83,7.431,7.431,0,0,0-.4-2.757A2.53,2.53,0,0,0,19.5,6.132a1.387,1.387,0,0,0-.423-.065,3.814,3.814,0,0,0-1.988.9l-.206.149a3.107,3.107,0,0,1-1.424.753.5.5,0,0,1-.352-.136.4.4,0,0,1-.161-.318c.016-.26.374-.517.79-.814.615-.44,1.38-.987,1.384-1.8A2.752,2.752,0,0,0,16.3,2.81a3.978,3.978,0,0,0-1.585-.933,8.376,8.376,0,0,0-2.631-.369c-.1,0-.21,0-.316,0A6.794,6.794,0,0,0,7.615,2.7,2.673,2.673,0,0,0,6.548,4.8c.014.645.728,1.206,1.358,1.7.473.371.881.691.868.961a.349.349,0,0,1-.193.27.6.6,0,0,1-.336.1,3.277,3.277,0,0,1-1.516-.773l-.134-.1a3.652,3.652,0,0,0-1.883-.868,1.214,1.214,0,0,0-.31.039A2.975,2.975,0,0,0,2.62,7.786a5.631,5.631,0,0,0-.551,2.957,4.339,4.339,0,0,0,2.819,3.886,1.639,1.639,0,0,0,.413.051,4.114,4.114,0,0,0,1.554-.425l.2-.088a3.077,3.077,0,0,1,1.015-.336.388.388,0,0,1,.206.05.554.554,0,0,1,.229.55,1.965,1.965,0,0,1-1.231,1.512,1.614,1.614,0,0,1-.634.121,4.393,4.393,0,0,1-1.125-.206h0a4.439,4.439,0,0,0-1.138-.207,1.726,1.726,0,0,0-.508.072,2.432,2.432,0,0,0-1.321,1.692,6,6,0,0,0-.185,2.915A4.019,4.019,0,0,0,5.39,23.622a6.575,6.575,0,0,0,1.126.117,4.846,4.846,0,0,0,2.607-.85,8.635,8.635,0,0,0,2.644-3.137,14.37,14.37,0,0,0,1.882,2.461,8.446,8.446,0,0,0-3.416,1.058A3.6,3.6,0,0,0,8.321,25.73a6.287,6.287,0,0,0,.155,2.5,2.321,2.321,0,0,1-.223,2.166,1.454,1.454,0,0,1-1.263.524,8.024,8.024,0,0,1-1.305-.154l-.027,0A8.477,8.477,0,0,0,4.281,30.6a2.28,2.28,0,0,0-.961.181c-1.611.737-1.677,3.884-1.259,5.294a4.373,4.373,0,0,0,1.248,2.13,5.291,5.291,0,0,0,3.465,1.123h.1a3.5,3.5,0,0,0,2.18-.817,7.154,7.154,0,0,0,1.56-1.8,12.709,12.709,0,0,0,1.25-2.613Z" transform="translate(0 0)" fill="#fc0d0a"/>
      </g>
      <g id="グループ_50" data-name="グループ 50" transform="translate(0 1.574)">
        <path id="パス_23" data-name="パス 23" d="M-.741-13.786H3.285a4.11,4.11,0,0,0,2.253-.586,4.128,4.128,0,0,0,1.448-1.383,6.315,6.315,0,0,0,.333-.61,2.979,2.979,0,0,0,.2-.683,17.231,17.231,0,0,0,.138-2.668,24.117,24.117,0,0,0-.089-2.53,3.57,3.57,0,0,0-.545-1.4,3.985,3.985,0,0,0-3.611-2H-.741Zm1.8-10.159H3.2a2.382,2.382,0,0,1,2.115,1,2.039,2.039,0,0,1,.464,1.082q.073.667.073,2.212a20.681,20.681,0,0,1-.073,2.164,1.971,1.971,0,0,1-.382.968,2.44,2.44,0,0,1-2.2,1.033H1.056ZM13.29-13.883h7.573v-1.7H15.088v-3.481h4.929v-1.594H15.088v-3.384h5.775v-1.7H13.29Zm14.131-2.879-1.179,1.35a6.726,6.726,0,0,0,4.531,1.627q4.075-.049,4.165-3.449a3.363,3.363,0,0,0-.789-2.212,3.7,3.7,0,0,0-2.465-1.2q-.846-.106-1.334-.187a2.285,2.285,0,0,1-1.277-.586,1.308,1.308,0,0,1-.4-.927,1.541,1.541,0,0,1,.594-1.285,2.24,2.24,0,0,1,1.383-.415,5.436,5.436,0,0,1,2.936.911l1-1.48A6.663,6.663,0,0,0,30.74-25.84a4.034,4.034,0,0,0-2.839.96,3.245,3.245,0,0,0-1.033,2.505,3.146,3.146,0,0,0,.822,2.2,3.878,3.878,0,0,0,2.326,1.131q.854.122,1.57.22,1.562.268,1.545,1.594-.033,1.619-2.343,1.651A5.208,5.208,0,0,1,27.421-16.762Zm13.205,2.879h1.8V-25.742h-1.8Zm12.4-4.831h2.416v.618a2.485,2.485,0,0,1-.7,1.8,2.292,2.292,0,0,1-1.733.716,2.11,2.11,0,0,1-1.09-.268,2.1,2.1,0,0,1-.748-.594,1.975,1.975,0,0,1-.464-1,13.84,13.84,0,0,1-.13-2.367,14.161,14.161,0,0,1,.13-2.383,1.962,1.962,0,0,1,.464-.984,2.268,2.268,0,0,1,.748-.61,2.485,2.485,0,0,1,1.09-.252,2.349,2.349,0,0,1,1.464.5,2.609,2.609,0,0,1,.8,1.22h1.9a4.474,4.474,0,0,0-1.366-2.5,4.017,4.017,0,0,0-2.8-1.017,4.077,4.077,0,0,0-2.334.667,4.1,4.1,0,0,0-1.383,1.464,3.275,3.275,0,0,0-.4,1.131,19.8,19.8,0,0,0-.122,2.766,19.835,19.835,0,0,0,.122,2.749,3.341,3.341,0,0,0,.163.634q.106.244.236.512a3.972,3.972,0,0,0,1.383,1.448,4.167,4.167,0,0,0,2.334.683,4.193,4.193,0,0,0,3.01-1.228A4.2,4.2,0,0,0,57.239-18v-2.416H53.025Zm9.6,4.831h1.8V-22.31h.033l5.36,8.427h1.7V-25.742h-1.8v8.427h-.033l-5.368-8.427H62.625Z" transform="translate(0.83 38.441)"/>
        <path id="パス_24" data-name="パス 24" d="M1.579-8.1H6V-9.09H2.628v-5.926H1.579Zm8.572-2.477,1-3.022h.019l1,3.022ZM13.007-8.1h1.106L11.6-15.016H10.72L8.206-8.1h1.11l.531-1.547h2.624Zm3.789,0H19.71a1.848,1.848,0,0,0,1.362-.546,1.891,1.891,0,0,0,.56-1.419,1.941,1.941,0,0,0-.27-1,1.393,1.393,0,0,0-.854-.593v-.019a2.251,2.251,0,0,0,.5-.318,1.333,1.333,0,0,0,.313-.351,1.6,1.6,0,0,0,.2-.816A1.8,1.8,0,0,0,21.01-14.5a2.135,2.135,0,0,0-1.533-.512H16.8Zm2.662-3.07a1.125,1.125,0,0,1,.854.308,1.061,1.061,0,0,1,.27.731,1.048,1.048,0,0,1-.27.721,1.1,1.1,0,0,1-.854.318H17.845v-2.078Zm-.1-2.913a1.182,1.182,0,0,1,.845.28.988.988,0,0,1,.275.707.939.939,0,0,1-.275.693,1.085,1.085,0,0,1-.845.3H17.845v-1.979Zm5.07,2.524a11.57,11.57,0,0,0,.071,1.6,1.949,1.949,0,0,0,.095.37q.062.142.138.3a2.317,2.317,0,0,0,.807.845,2.431,2.431,0,0,0,1.362.4,2.471,2.471,0,0,0,1.376-.4,2.256,2.256,0,0,0,.788-.845,1.6,1.6,0,0,0,.242-.669,13.333,13.333,0,0,0,.062-1.6,13.307,13.307,0,0,0-.062-1.613,1.588,1.588,0,0,0-.242-.66,2.325,2.325,0,0,0-.788-.854,2.418,2.418,0,0,0-1.376-.389,2.378,2.378,0,0,0-1.362.389,2.389,2.389,0,0,0-.807.854,1.91,1.91,0,0,0-.232.66A11.547,11.547,0,0,0,24.429-11.557Zm1.053,0a8.261,8.261,0,0,1,.076-1.39,1.145,1.145,0,0,1,.27-.574,1.323,1.323,0,0,1,.437-.356,1.45,1.45,0,0,1,.636-.147,1.526,1.526,0,0,1,.65.147,1.249,1.249,0,0,1,.418.356,1.21,1.21,0,0,1,.28.574,8.8,8.8,0,0,1,.071,1.39,8.6,8.6,0,0,1-.071,1.381,1.216,1.216,0,0,1-.28.584,1.158,1.158,0,0,1-.418.346,1.293,1.293,0,0,1-.65.157,1.231,1.231,0,0,1-.636-.157,1.227,1.227,0,0,1-.437-.346,1.152,1.152,0,0,1-.27-.584A8.074,8.074,0,0,1,25.482-11.557Zm8.1-2.524h1.642a1.2,1.2,0,0,1,.769.214.919.919,0,0,1,.346.783,1.068,1.068,0,0,1-.289.759,1.144,1.144,0,0,1-.883.342H33.584ZM32.536-8.1h1.049v-2.956h1.338L36.35-8.1H37.6l-1.6-3.07a1.925,1.925,0,0,0,1.338-1.917,1.84,1.84,0,0,0-.688-1.476,2.125,2.125,0,0,0-1.409-.455h-2.7Zm9.556-2.477,1-3.022h.019l1,3.022ZM44.948-8.1h1.106l-2.515-6.918h-.878L40.147-8.1h1.11l.531-1.547h2.624Zm4.24,0h1.053v-5.983h1.893v-.935H47.3v.935h1.893Zm5.217-3.459a11.572,11.572,0,0,0,.071,1.6,1.948,1.948,0,0,0,.095.37q.062.142.138.3a2.317,2.317,0,0,0,.807.845,2.431,2.431,0,0,0,1.362.4,2.471,2.471,0,0,0,1.376-.4,2.256,2.256,0,0,0,.788-.845,1.6,1.6,0,0,0,.242-.669,13.334,13.334,0,0,0,.062-1.6,13.308,13.308,0,0,0-.062-1.613,1.588,1.588,0,0,0-.242-.66,2.325,2.325,0,0,0-.788-.854,2.418,2.418,0,0,0-1.376-.389,2.378,2.378,0,0,0-1.362.389,2.389,2.389,0,0,0-.807.854,1.91,1.91,0,0,0-.232.66A11.549,11.549,0,0,0,54.406-11.557Zm1.053,0a8.261,8.261,0,0,1,.076-1.39,1.145,1.145,0,0,1,.27-.574,1.323,1.323,0,0,1,.437-.356,1.45,1.45,0,0,1,.636-.147,1.526,1.526,0,0,1,.65.147,1.249,1.249,0,0,1,.418.356,1.21,1.21,0,0,1,.28.574,8.8,8.8,0,0,1,.071,1.39,8.6,8.6,0,0,1-.071,1.381,1.216,1.216,0,0,1-.28.584,1.159,1.159,0,0,1-.418.346,1.293,1.293,0,0,1-.65.157,1.231,1.231,0,0,1-.636-.157,1.227,1.227,0,0,1-.437-.346,1.152,1.152,0,0,1-.27-.584A8.074,8.074,0,0,1,55.459-11.557ZM63.1-14.082H64.74a1.2,1.2,0,0,1,.769.214.919.919,0,0,1,.346.783,1.068,1.068,0,0,1-.289.759,1.144,1.144,0,0,1-.883.342H63.1ZM62.05-8.1H63.1v-2.956h1.338L65.865-8.1h1.248l-1.6-3.07a1.925,1.925,0,0,0,1.338-1.917,1.84,1.84,0,0,0-.688-1.476,2.125,2.125,0,0,0-1.409-.455h-2.7Zm8.785,0h.987v-2.847l2.083-4.071h-1.11l-1.466,3.07-1.466-3.07h-1.11l2.083,4.071Z" transform="translate(-1.342 45.613)"/>
        <path id="パス_22" data-name="パス 22" d="M1.219-13.711a11.57,11.57,0,0,0,.071,1.6,1.949,1.949,0,0,0,.095.37q.062.142.138.3a2.317,2.317,0,0,0,.807.845,2.431,2.431,0,0,0,1.362.4,2.471,2.471,0,0,0,1.376-.4,2.256,2.256,0,0,0,.788-.845,1.6,1.6,0,0,0,.242-.669,13.334,13.334,0,0,0,.062-1.6A13.307,13.307,0,0,0,6.1-15.324a1.588,1.588,0,0,0-.242-.66,2.325,2.325,0,0,0-.788-.854,2.418,2.418,0,0,0-1.376-.389,2.378,2.378,0,0,0-1.362.389,2.389,2.389,0,0,0-.807.854,1.91,1.91,0,0,0-.232.66A11.547,11.547,0,0,0,1.219-13.711Zm1.053,0a8.26,8.26,0,0,1,.076-1.39,1.145,1.145,0,0,1,.27-.574,1.323,1.323,0,0,1,.437-.356,1.45,1.45,0,0,1,.636-.147,1.526,1.526,0,0,1,.65.147,1.249,1.249,0,0,1,.418.356,1.21,1.21,0,0,1,.28.574,8.8,8.8,0,0,1,.071,1.39,8.6,8.6,0,0,1-.071,1.381,1.216,1.216,0,0,1-.28.584,1.158,1.158,0,0,1-.418.346,1.293,1.293,0,0,1-.65.157,1.231,1.231,0,0,1-.636-.157,1.227,1.227,0,0,1-.437-.346,1.152,1.152,0,0,1-.27-.584A8.073,8.073,0,0,1,2.272-13.711Zm7.782,3.459h1.053v-5.983H13v-.935H8.16v.935h1.893Zm5.412-3.459a11.57,11.57,0,0,0,.071,1.6,1.948,1.948,0,0,0,.095.37q.062.142.138.3a2.317,2.317,0,0,0,.807.845,2.431,2.431,0,0,0,1.362.4,2.471,2.471,0,0,0,1.376-.4,2.256,2.256,0,0,0,.788-.845,1.6,1.6,0,0,0,.242-.669,13.333,13.333,0,0,0,.062-1.6,13.307,13.307,0,0,0-.062-1.613,1.588,1.588,0,0,0-.242-.66,2.325,2.325,0,0,0-.788-.854,2.418,2.418,0,0,0-1.376-.389,2.378,2.378,0,0,0-1.362.389,2.389,2.389,0,0,0-.807.854,1.91,1.91,0,0,0-.232.66A11.547,11.547,0,0,0,15.465-13.711Zm1.053,0a8.261,8.261,0,0,1,.076-1.39,1.145,1.145,0,0,1,.27-.574,1.323,1.323,0,0,1,.437-.356,1.45,1.45,0,0,1,.636-.147,1.526,1.526,0,0,1,.65.147,1.249,1.249,0,0,1,.418.356,1.21,1.21,0,0,1,.28.574,8.8,8.8,0,0,1,.071,1.39,8.6,8.6,0,0,1-.071,1.381,1.216,1.216,0,0,1-.28.584,1.158,1.158,0,0,1-.418.346,1.293,1.293,0,0,1-.65.157A1.231,1.231,0,0,1,17.3-11.4a1.227,1.227,0,0,1-.437-.346,1.152,1.152,0,0,1-.27-.584A8.074,8.074,0,0,1,16.519-13.711Zm7.248,3.459h1.049v-4.916h.019l3.127,4.916h.992V-17.17H27.9v4.916h-.019L24.753-17.17h-.987Zm10.009-2.477,1-3.022H34.8l1,3.022Zm2.856,2.477h1.106L35.223-17.17h-.878L31.83-10.252h1.11l.531-1.547H36.1Zm3.983,0h1.049v-4.916h.019l3.127,4.916H45.8V-17.17H44.753v4.916h-.019L41.6-17.17h-.987Z" transform="translate(-1.219 17.227)"/>
        <path id="パス_32" data-name="パス 32" d="M32.007-13.711a11.569,11.569,0,0,0,.071,1.6,1.949,1.949,0,0,0,.095.37q.062.142.138.3a2.317,2.317,0,0,0,.807.845,2.431,2.431,0,0,0,1.362.4,2.471,2.471,0,0,0,1.376-.4,2.256,2.256,0,0,0,.788-.845,1.6,1.6,0,0,0,.242-.669,13.334,13.334,0,0,0,.062-1.6,13.307,13.307,0,0,0-.062-1.613,1.588,1.588,0,0,0-.242-.66,2.326,2.326,0,0,0-.788-.854,2.418,2.418,0,0,0-1.376-.389,2.378,2.378,0,0,0-1.362.389,2.389,2.389,0,0,0-.807.854,1.91,1.91,0,0,0-.232.66A11.546,11.546,0,0,0,32.007-13.711Zm1.053,0a8.261,8.261,0,0,1,.076-1.39,1.145,1.145,0,0,1,.27-.574,1.323,1.323,0,0,1,.437-.356,1.45,1.45,0,0,1,.636-.147,1.526,1.526,0,0,1,.65.147,1.249,1.249,0,0,1,.418.356,1.21,1.21,0,0,1,.28.574,8.8,8.8,0,0,1,.071,1.39,8.6,8.6,0,0,1-.071,1.381,1.216,1.216,0,0,1-.28.584,1.158,1.158,0,0,1-.418.346,1.293,1.293,0,0,1-.65.157,1.231,1.231,0,0,1-.636-.157,1.227,1.227,0,0,1-.437-.346,1.152,1.152,0,0,1-.27-.584A8.074,8.074,0,0,1,33.06-13.711Z" transform="translate(15.556 17.227)"/>
      </g>
    </g>
  </g>
</svg>
