<svg xmlns="http://www.w3.org/2000/svg" width="160" height="266" viewBox="0 0 160 266">
  <g id="グループ_59" data-name="グループ 59" transform="translate(-6153 703)">
    <g id="長方形_13" data-name="長方形 13" transform="translate(6153 -703)" fill="#fc0d0a" stroke="#ff5553" stroke-width="1">
      <rect width="160" height="266" rx="10" stroke="none"/>
      <rect x="0.5" y="0.5" width="159" height="265" rx="9.5" fill="none"/>
    </g>
    <g id="グループ_47" data-name="グループ 47" transform="translate(6153 -705.765)">
      <g id="グループ_35" data-name="グループ 35" transform="translate(140.552 245.086) rotate(13)">
        <path id="楕円形_10_-_アウトライン" data-name="楕円形 10 - アウトライン" d="M9.455,1.253a8.2,8.2,0,1,0,8.2,8.2,8.211,8.211,0,0,0-8.2-8.2M9.455,0A9.455,9.455,0,1,1,0,9.455,9.455,9.455,0,0,1,9.455,0Z" transform="translate(0 0)" fill="#f5f8fa"/>
        <path id="パス_33" data-name="パス 33" d="M6.751,1.4a3.221,3.221,0,0,1,3.177,3.29c0,2.68-1.886,3.673-4.283,4.241a3.008,3.008,0,0,1,.993.893c.184.284.312.34.61.255,2.879-.865,4.368-2.524,4.368-5.162,0-2.822-2-4.921-5.4-4.921A6.206,6.206,0,0,0,1.6,1.815,5.225,5.225,0,0,0,0,5.5C0,7.814,1.262,9.148,2.51,9.148A2.694,2.694,0,0,0,4.921,7.517,17.758,17.758,0,0,0,6.694,1.4Zm-1.7.085a16.2,16.2,0,0,1-1.5,5.077c-.383.681-.695.865-1.064.865-.44,0-.964-.723-.964-2.028A4.084,4.084,0,0,1,2.624,2.78,4.271,4.271,0,0,1,5.049,1.489Z" transform="translate(3.648 4.395)" fill="#f5f8fa"/>
      </g>
      <path id="中マド_3" data-name="中マド 3" d="M99.918,252.693c-19.671-.364-32.974-34.919-32.974-34.919s-11.382,35.607-33.992,34.919S4.321,240.621,1.459,230.965s-2.22-30.51,8.41-35.373c4.45-2.037,10.117-1.093,15.623-.15,6.963,1.192,13.668,2.383,17.337-2.444,6.569-8.648-1.947-15.792.454-31.164,2.173-13.91,20.055-22.07,35.6-23.5a94.28,94.28,0,0,1-12.576-16.445S59.3,136.383,48.647,142.847s-17.045,6.281-24.946,4.9S6.014,138.936,3.473,125.74,5.962,97.261,13.537,94.964c3.633-1.1,7.323-.1,10.993.9,3.982,1.085,7.94,2.171,11.773.571,7.365-3.076,10.319-11.58,6.692-13.773-1.812-1.1-5.356.7-9.5,2.5s-8.913,3.6-13.144,2.5C11.89,85.453,2.687,75.891,1.514,61.7S7.311,33.479,17.1,30.9c4.712-1.244,9.859,2.148,14.651,5.54,5.165,3.655,9.916,7.312,13.268,5.164,6.459-4.14-13.4-10.819-13.58-19.583S39.011.684,66.312.026s35.813,11.441,35.755,21.991S82.863,36.333,88.618,41.6c2.981,2.728,7.774-1.194,13.242-5.115,5.09-3.65,10.765-7.3,16.11-5.589,11.088,3.55,13.62,14.673,13.62,28.865s-6.1,26.929-19.02,27.9a27.093,27.093,0,0,1-13.9-2.649c-3.831-1.759-6.263-3.518-8.027-2.353-3.322,2.193,1.363,10.7,8.643,13.773,3.808,1.608,7.019.527,10.374-.553,3.061-.986,6.242-1.972,10.107-.917,8.1,2.21,12.291,7.9,11.827,23.215s-7,23.2-16.067,26.859c-4.209,1.7-8.191,3.212-12.368,3.7a35.671,35.671,0,0,1,7.094,20.967c-.2,13.609-24.322,17.816-16.531,25.885,4.213,4.362,10.463,2.574,16.859.787,5.433-1.519,10.971-3.037,15.457-.787,9.766,4.9,12.155,23.03,6.706,37.306-5.291,13.861-12.708,19.811-31.143,19.811Q100.772,252.709,99.918,252.693Z" transform="translate(12.036 9.852)" fill="#f5f8fa"/>
    </g>
  </g>
</svg>
