<?xml version="1.0" encoding="UTF-8"?><svg id="_レイヤー_2" xmlns="http://www.w3.org/2000/svg" viewBox="0 0 657.96 90.18"><defs><style>.cls-1{stroke:#4f4f4f;stroke-miterlimit:10;}.cls-2{fill:#8c8c8c;}</style></defs><g id="_レイヤー_1-2"><g><g><polygon class="cls-2" points="115 14.53 92.32 14.53 92.32 3.05 150.22 3.05 150.22 14.53 127.53 14.53 127.53 88.48 115 88.48 115 14.53"/><path class="cls-2" d="M128.53,89.48h-14.53V15.53h-22.68V2.05h59.9V15.53h-22.69V89.48Zm-12.53-2h10.53V13.53h22.69V4.05h-55.9V13.53h22.68V87.48Z"/></g><path class="cls-2" d="M242.27,42.18v-1.54c-.02-1.33-.04-2.6-.06-3.8l-.02-1.02c-.13-4.71-.35-8.02-.65-10.14-.54-3.44-1.55-6.29-3.01-8.49-2-4.06-5.27-7.71-9.71-10.85-4.53-3.23-10.26-4.91-17.04-5-6.68,.08-12.35,1.76-16.84,4.97-4.53,3.14-7.88,6.8-9.94,10.81-1.32,2.18-2.27,4.96-2.91,8.51-.36,2.11-.6,5.42-.74,10.1-.02,.71-.04,1.45-.05,2.21-.04,1.33-.05,2.75-.06,4.24,0,.91,0,1.85,0,2.82,0,1.22,0,2.4,0,3.52,.01,1.48,.03,2.87,.06,4.18l.05,2.18c.12,5.02,.36,8.57,.74,10.86,.33,1.97,.72,3.53,1.2,4.79,.47,1.12,1.01,2.34,1.67,3.76,2.08,4.08,5.44,7.72,9.96,10.79,4.5,3.22,10.16,4.94,16.89,5.11,6.75-.16,12.47-1.88,16.99-5.1,4.44-3.07,7.7-6.69,9.71-10.75,1.46-2.18,2.48-5.08,3.02-8.62,.32-2.28,.54-5.85,.65-10.93,0-.32,0-.65,.02-.99,.02-1.17,.04-2.43,.05-3.76v-1.51c.02-1.12,.02-2.3,.02-3.52,0-.97,0-1.91,0-2.82Zm-18.54,26.55c-1.15,1.62-2.72,2.96-4.69,4-2.04,1.2-4.49,1.8-7.28,1.8s-5.14-.6-7.17-1.83c-2-1.01-3.65-2.35-4.93-4.05-1.5-1.69-2.51-3.96-3.01-6.77-.52-2.52-.81-7.19-.88-13.86-.01-.97-.01-1.97-.01-3.02,0-.77,0-1.53,.01-2.26,.07-6.68,.37-11.39,.88-14,.49-2.7,1.5-4.93,3.05-6.69,1.24-1.65,2.89-3.03,4.91-4.12,1.96-1.05,4.37-1.63,7.12-1.7,2.84,.08,5.32,.65,7.33,1.69,1.94,1.09,3.51,2.47,4.67,4.11l.07,.08c1.51,1.7,2.56,3.94,3.12,6.63,.48,2.58,.76,7.29,.83,14,0,.73,0,1.48,0,2.26,0,1.05,0,2.05,0,3.02-.07,6.7-.35,11.36-.83,13.86-.56,2.79-1.61,5.06-3.12,6.76l-.07,.08Z"/><path class="cls-2" d="M657.95,42.18v-1.54c-.02-1.33-.04-2.6-.06-3.8l-.02-1.02c-.13-4.71-.35-8.02-.65-10.14-.54-3.44-1.55-6.29-3.01-8.49-2-4.06-5.27-7.71-9.71-10.85-4.53-3.23-10.26-4.91-17.04-5-6.68,.08-12.35,1.76-16.84,4.97-4.53,3.14-7.88,6.8-9.94,10.81-1.32,2.18-2.27,4.96-2.91,8.51-.36,2.11-.6,5.42-.74,10.1-.02,.71-.04,1.45-.05,2.21-.04,1.33-.05,2.75-.06,4.24,0,.91,0,1.85,0,2.82,0,1.22,0,2.4,0,3.52,.01,1.48,.03,2.87,.06,4.18l.05,2.18c.12,5.02,.36,8.57,.74,10.86,.33,1.97,.72,3.53,1.2,4.79,.47,1.12,1.01,2.34,1.67,3.76,2.08,4.08,5.44,7.72,9.96,10.79,4.5,3.22,10.16,4.94,16.89,5.11,6.75-.16,12.47-1.88,16.99-5.1,4.44-3.07,7.7-6.69,9.71-10.75,1.46-2.18,2.48-5.08,3.02-8.62,.32-2.28,.54-5.85,.65-10.93,0-.32,0-.65,.02-.99,.02-1.17,.04-2.43,.05-3.76v-1.51c.02-1.12,.02-2.3,.02-3.52,0-.97,0-1.91,0-2.82Zm-18.54,26.55c-1.15,1.62-2.72,2.96-4.69,4-2.04,1.2-4.49,1.8-7.28,1.8s-5.14-.6-7.17-1.83c-2-1.01-3.65-2.35-4.93-4.05-1.5-1.69-2.51-3.96-3.01-6.77-.52-2.52-.81-7.19-.88-13.86-.01-.97-.01-1.97-.01-3.02,0-.77,0-1.53,.01-2.26,.07-6.68,.37-11.39,.88-14,.49-2.7,1.5-4.93,3.05-6.69,1.24-1.65,2.89-3.03,4.91-4.12,1.96-1.05,4.37-1.63,7.12-1.7,2.84,.08,5.32,.65,7.33,1.69,1.94,1.09,3.51,2.47,4.67,4.11l.07,.08c1.51,1.7,2.56,3.94,3.12,6.63,.48,2.58,.76,7.29,.83,14,0,.73,0,1.48,0,2.26,0,1.05,0,2.05,0,3.02-.07,6.7-.35,11.36-.83,13.86-.56,2.79-1.61,5.06-3.12,6.76l-.07,.08Z"/><path class="cls-2" d="M61.04,42.18v-1.54c-.02-1.33-.04-2.6-.06-3.8l-.02-1.02c-.13-4.71-.35-8.02-.65-10.14-.54-3.44-1.55-6.29-3.01-8.49-2-4.06-5.27-7.71-9.71-10.85-4.53-3.23-10.26-4.91-17.04-5-6.68,.08-12.35,1.76-16.84,4.97-4.53,3.14-7.88,6.8-9.94,10.81-1.32,2.18-2.27,4.96-2.91,8.51-.36,2.11-.6,5.42-.74,10.1-.02,.71-.04,1.45-.05,2.21-.04,1.33-.05,2.75-.06,4.24,0,.91,0,1.85,0,2.82,0,1.22,0,2.4,0,3.52,.01,1.48,.03,2.87,.06,4.18l.05,2.18c.12,5.02,.36,8.57,.74,10.86,.33,1.97,.72,3.53,1.2,4.79,.47,1.12,1.01,2.34,1.67,3.76,2.08,4.08,5.44,7.72,9.96,10.79,4.5,3.22,10.16,4.94,16.89,5.11,6.75-.16,12.47-1.88,16.99-5.1,4.44-3.07,7.7-6.69,9.71-10.75,1.46-2.18,2.48-5.08,3.02-8.62,.32-2.28,.54-5.85,.65-10.93,0-.32,0-.65,.02-.99,.02-1.17,.04-2.43,.05-3.76v-1.51c.02-1.12,.02-2.3,.02-3.52,0-.97,0-1.91,0-2.82Zm-18.54,26.55c-1.15,1.62-2.72,2.96-4.69,4-2.04,1.2-4.49,1.8-7.28,1.8s-5.14-.6-7.17-1.83c-2-1.01-3.65-2.35-4.93-4.05-1.5-1.69-2.51-3.96-3.01-6.77-.52-2.52-.81-7.19-.88-13.86-.01-.97-.01-1.97-.01-3.02,0-.77,0-1.53,.01-2.26,.07-6.68,.37-11.39,.88-14,.49-2.7,1.5-4.93,3.05-6.69,1.24-1.65,2.89-3.03,4.91-4.12,1.96-1.05,4.37-1.63,7.12-1.7,2.84,.08,5.32,.65,7.33,1.69,1.94,1.09,3.51,2.47,4.67,4.11l.07,.08c1.51,1.7,2.56,3.94,3.12,6.63,.48,2.58,.76,7.29,.83,14,0,.73,0,1.48,0,2.26,0,1.05,0,2.05,0,3.02-.07,6.7-.35,11.36-.83,13.86-.56,2.79-1.61,5.06-3.12,6.76l-.07,.08Z"/><polygon class="cls-2" points="333.02 2.05 333.02 60.62 296.88 2.05 283.51 2.05 283.51 89.48 298.04 89.48 298.04 30.91 334.13 89.48 347.55 89.48 347.55 2.05 333.02 2.05"/><path class="cls-2" d="M454.65,87.71L424.84,3.05h-10.5l-29.81,84.66-.27,.77h13.28l6.36-19.11h31.38l6.41,19.11h13.23l-.27-.77Zm-35.14-67.19h.22l11.73,36.61h-23.68l11.73-36.61Z"/><g><polygon class="cls-2" points="492.35 3.05 504.16 3.05 541.63 63.78 541.86 63.78 541.86 3.05 554.38 3.05 554.38 88.48 542.52 88.48 505.1 27.75 504.87 27.75 504.87 88.48 492.35 88.48 492.35 3.05"/><path class="cls-2" d="M555.38,89.48h-13.43l-36.09-58.57v58.57h-14.53V2.05h13.37l36.14,58.58V2.05h14.53V89.48Zm-12.31-2h10.31V4.05h-10.53v60.73h-1.79L503.6,4.05h-10.25V87.48h10.53V26.75h1.79l37.42,60.73Z"/></g></g><g><path class="cls-1" d="M59.96,41.11c0-.52-.01-1.04-.01-1.54-.06-7.54-.31-12.74-.72-15.58-.53-3.35-1.49-6.07-2.89-8.14-1.93-3.94-5.07-7.46-9.42-10.55C42.53,2.18,37.05,.58,30.47,.5c-6.51,.08-11.93,1.67-16.28,4.79-4.43,3.07-7.64,6.57-9.64,10.5-1.25,2.08-2.18,4.8-2.78,8.16-.51,3.04-.8,8.76-.85,17.16-.01,.91-.01,1.84-.01,2.81,0,1.22,0,2.39,.01,3.51,.07,7.85,.35,13.28,.85,16.29,.3,1.84,.68,3.36,1.13,4.57,.49,1.17,1.04,2.4,1.64,3.69,2.01,3.95,5.22,7.43,9.65,10.43,4.35,3.13,9.77,4.77,16.28,4.92,6.58-.15,12.06-1.79,16.45-4.92,4.35-3,7.49-6.48,9.42-10.43,1.39-2.07,2.36-4.82,2.89-8.26,.4-2.81,.64-7.73,.72-14.77,0-.49,.01-1,.01-1.52,.01-1.12,.01-2.29,.01-3.51,0-.97,0-1.9-.01-2.81Zm-12.53,5.84c-.01,.9-.02,1.76-.03,2.59-.01,.49-.02,.96-.03,1.42-.01,.23-.02,.45-.03,.67-.01,.36-.02,.71-.03,1.05-.03,.68-.06,1.33-.09,1.95-.02,.39-.04,.76-.06,1.12-.04,.49-.07,.95-.1,1.39-.06,.68-.12,1.31-.18,1.87-.06,.54-.13,1.03-.2,1.47-.03,.18-.06,.36-.09,.52-.61,2.98-1.73,5.39-3.36,7.23-1.25,1.76-2.92,3.19-5,4.28-2.2,1.29-4.8,1.94-7.79,1.94s-5.5-.65-7.62-1.94c-2.16-1.09-3.9-2.52-5.23-4.28-1.63-1.84-2.71-4.25-3.24-7.23-.31-1.52-.54-3.74-.69-6.68-.03-.52-.06-1.07-.08-1.64-.03-.74-.05-1.52-.07-2.34,0-.26-.02-.53-.03-.8,0-.41-.01-.84-.02-1.27,0-.43-.01-.87-.01-1.32,0-.97,0-1.98,0-3.03,0-.78,0-1.54,0-2.27,0-.42,.01-.84,.01-1.24v-.08c.01-.43,.01-.86,.02-1.28,.01-.27,.02-.52,.03-.78,.02-.83,.04-1.62,.07-2.37,.02-.57,.05-1.12,.08-1.65,.15-2.96,.38-5.21,.69-6.77,.53-2.9,1.61-5.27,3.24-7.11,1.33-1.76,3.07-3.23,5.23-4.4,2.12-1.14,4.66-1.74,7.62-1.82,2.99,.08,5.59,.68,7.79,1.82,2.08,1.17,3.75,2.64,5,4.4,1.63,1.84,2.75,4.21,3.36,7.11,.05,.29,.1,.6,.15,.94,.05,.34,.1,.7,.14,1.08,.06,.58,.12,1.21,.18,1.9,.03,.44,.06,.91,.1,1.4,.02,.36,.04,.74,.06,1.14,.03,.62,.06,1.28,.09,1.96,0,.09,0,.18,.01,.27,0,.47,.03,.95,.05,1.45,.01,.47,.02,.95,.03,1.43,.01,.84,.02,1.7,.03,2.6,.01,.73,.01,1.49,.01,2.27,0,1.05,0,2.06-.01,3.03Z"/><polygon class="cls-1" points="115.08 12.68 92.4 12.68 92.4 1.2 150.3 1.2 150.3 12.68 127.61 12.68 127.61 86.63 115.08 86.63 115.08 12.68"/><path class="cls-1" d="M241.36,41.11c0-.52-.01-1.04-.01-1.54-.01-1.33-.03-2.59-.05-3.78-.01-.34-.01-.68-.02-1.02-.11-4.99-.32-8.59-.64-10.78-.53-3.35-1.5-6.07-2.89-8.14-1.93-3.94-5.07-7.46-9.42-10.55-4.39-3.12-9.87-4.72-16.45-4.8-6.51,.08-11.93,1.67-16.28,4.79-4.43,3.07-7.64,6.57-9.65,10.5-1.25,2.08-2.17,4.8-2.78,8.16-.37,2.19-.61,5.76-.73,10.73-.02,.71-.04,1.44-.05,2.21-.04,1.32-.05,2.73-.06,4.22,0,.91,0,1.84,0,2.81,0,1.22,0,2.39,0,3.51,.01,1.47,.03,2.86,.06,4.16,.02,.76,.03,1.48,.05,2.18,.14,4.52,.38,7.83,.73,9.95,.31,1.84,.68,3.36,1.14,4.57,.49,1.17,1.04,2.4,1.64,3.69,2.01,3.95,5.22,7.43,9.65,10.43,4.35,3.13,9.77,4.77,16.28,4.92,6.58-.15,12.06-1.79,16.45-4.92,4.35-3,7.48-6.48,9.41-10.43,1.4-2.07,2.37-4.82,2.9-8.26,.3-2.13,.51-5.47,.64-10.02,0-.33,.01-.67,.02-1.01,.02-1.17,.04-2.42,.05-3.74,0-.49,.01-1,.01-1.52,.01-1.12,.01-2.29,.01-3.51,0-.97,0-1.9-.01-2.81Zm-12.52,5.84c-.07,6.76-.35,11.45-.85,14.05-.6,2.98-1.72,5.39-3.35,7.23-1.25,1.76-2.92,3.19-5,4.28-2.2,1.29-4.8,1.94-7.79,1.94s-5.5-.65-7.62-1.94c-2.16-1.09-3.9-2.52-5.23-4.28-1.63-1.84-2.71-4.25-3.24-7.23-.53-2.6-.83-7.29-.9-14.05-.01-.97-.01-1.98-.01-3.03,0-.78,0-1.54,.01-2.27,.07-6.77,.37-11.5,.9-14.17,.53-2.9,1.61-5.27,3.24-7.11,1.33-1.76,3.07-3.23,5.23-4.4,2.12-1.14,4.66-1.74,7.62-1.82,2.99,.08,5.59,.68,7.79,1.82,2.08,1.17,3.75,2.64,5,4.4,1.63,1.84,2.75,4.21,3.35,7.11,.5,2.67,.78,7.4,.85,14.17,.01,.73,.01,1.49,.01,2.27,0,1.05,0,2.06-.01,3.03Z"/><polygon class="cls-1" points="284.6 1.2 296.41 1.2 333.88 61.93 334.11 61.93 334.11 1.2 346.64 1.2 346.64 86.63 334.77 86.63 297.35 25.9 297.12 25.9 297.12 86.63 284.6 86.63 284.6 1.2"/><path class="cls-1" d="M424.93,1.2h-10.5l-30.08,85.43h13.28l6.36-19.11h31.38l6.41,19.11h13.23L424.93,1.2Zm-17.06,54.85l11.73-36.61h.22l11.73,36.61h-23.68Z"/><polygon class="cls-1" points="492.43 1.2 504.24 1.2 541.71 61.93 541.94 61.93 541.94 1.2 554.47 1.2 554.47 86.63 542.6 86.63 505.18 25.9 504.96 25.9 504.96 86.63 492.43 86.63 492.43 1.2"/><path class="cls-1" d="M657.03,41.11c-.04-8.38-.29-14.09-.73-17.12-.53-3.35-1.49-6.07-2.89-8.14-1.93-3.94-5.07-7.46-9.42-10.55-4.38-3.12-9.87-4.72-16.45-4.8-6.5,.08-11.93,1.67-16.28,4.79-4.42,3.07-7.64,6.57-9.64,10.5-1.25,2.08-2.18,4.8-2.78,8.16-.51,3.04-.79,8.76-.84,17.16-.01,.91-.01,1.84-.01,2.81,0,1.22,0,2.39,.01,3.51,.06,7.85,.34,13.28,.84,16.29,.3,1.84,.68,3.36,1.13,4.57,.5,1.17,1.04,2.4,1.65,3.69,2,3.95,5.22,7.43,9.64,10.43,4.35,3.13,9.78,4.77,16.28,4.92,6.58-.15,12.07-1.79,16.45-4.92,4.35-3,7.49-6.48,9.42-10.43,1.4-2.07,2.36-4.82,2.89-8.26,.43-3.01,.67-8.44,.73-16.29,.01-1.12,.01-2.29,.01-3.51,0-.97,0-1.9-.01-2.81Zm-12.53,5.84c-.06,6.76-.34,11.45-.84,14.05-.61,2.98-1.73,5.39-3.35,7.23-1.26,1.76-2.92,3.19-5.01,4.28-2.2,1.29-4.79,1.94-7.79,1.94s-5.49-.65-7.61-1.94c-2.16-1.09-3.91-2.52-5.23-4.28-1.63-1.84-2.71-4.25-3.24-7.23-.53-2.6-.83-7.29-.9-14.05-.01-.97-.01-1.98-.01-3.03,0-.78,0-1.54,.01-2.27,.07-6.77,.37-11.5,.9-14.17,.53-2.9,1.61-5.27,3.24-7.11,1.32-1.76,3.07-3.23,5.23-4.4,2.12-1.14,4.66-1.74,7.61-1.82,3,.08,5.59,.68,7.79,1.82,2.09,1.17,3.75,2.64,5.01,4.4,1.62,1.84,2.74,4.21,3.35,7.11,.5,2.67,.78,7.4,.84,14.17,.01,.73,.01,1.49,.01,2.27,0,1.05,0,2.06-.01,3.03Z"/></g></g></svg>