<svg xmlns="http://www.w3.org/2000/svg" width="181" height="177" viewBox="0 0 181 177">
  <path id="中マド_5" data-name="中マド 5" d="M171,177H10A10.011,10.011,0,0,1,0,167V10A10.011,10.011,0,0,1,10,0H171a10.011,10.011,0,0,1,10,10V167A10.011,10.011,0,0,1,171,177ZM31.553,73.822a4,4,0,0,0-4,4v7.618a4,4,0,0,0,4,4h51.13v50.44a4,4,0,0,0,4,4h7.645a4.005,4.005,0,0,0,4-4V89.439h51.118a4,4,0,0,0,4-4V77.821a4,4,0,0,0-4-4Zm0-31.235a4,4,0,0,0-4,4V54.2a4,4,0,0,0,4,4H149.446a4,4,0,0,0,4-4V46.586a4,4,0,0,0-4-4Z" fill="#0f0f0f"/>
</svg>
